<svg width="32" height="32" viewBox="0 0 32 32" fill="none" xmlns="http://www.w3.org/2000/svg">
<path fill-rule="evenodd" clip-rule="evenodd" d="M9 0C4.02944 0 0 4.02944 0 9V23C0 27.9706 4.02944 32 9 32H23C27.9706 32 32 27.9706 32 23V9C32 4.02944 27.9706 0 23 0H9ZM16.252 21.2601L7.50617 24.4374L10.3952 15.937C12.313 10.2961 17.9526 6.7918 23.8104 7.62942C24.125 7.67475 24.3027 7.70768 24.3027 7.70768C24.3444 8.0468 24.3769 8.37798 24.4016 8.70053C24.825 14.2311 21.4558 19.3695 16.252 21.2601Z" fill="#653024"/>
</svg>
