<svg width="1600" height="200" viewBox="0 0 1600 200" fill="none" xmlns="http://www.w3.org/2000/svg">
<path d="M1600 6.64797e-05V200L0 200L9.19558e-06 0L1600 6.64797e-05Z" fill="#FEE5BE"/>
<path d="M677.48 6.64166e-05C677.48 6.64166e-05 677.58 0.475849 677.48 0.666161C675.487 3.80632 684.658 8.46899 676.683 9.80118C674.39 10.1818 669.506 15.0348 666.615 9.03993C666.017 7.70774 664.123 10.0866 664.023 11.0382C663.525 15.7009 659.537 18.2701 656.846 21.4103C653.257 25.6923 647.974 25.4068 644.186 21.22C642.89 19.7926 642.292 16.7476 639.701 18.3653C637.308 19.7926 635.913 23.2182 637.507 25.4068C639.701 28.2615 638.305 32.1629 641.395 34.5419C642.492 35.3983 642.492 37.1111 641.395 38.1578C639.8 39.5851 638.205 38.6336 637.109 37.3965C634.218 34.2564 630.629 31.4017 633.221 26.3584C634.916 23.0279 636.112 17.8895 631.726 17.2234C628.137 16.6524 622.455 17.7943 619.764 22.0764C618.368 24.3601 617.87 27.1196 615.677 28.9276C613.085 27.9761 614.082 25.8826 613.982 24.265C613.783 20.5539 614.979 15.7009 607.902 18.1749C606.905 18.4604 606.008 18.1749 605.808 17.1282C605.41 15.2251 606.606 14.1784 608.3 13.6074C610.194 13.0365 612.985 13.4171 611.49 10.0866C610.792 8.46899 610.892 6.18523 608.599 5.80461C606.107 5.42398 604.114 7.51742 603.815 9.13508C602.319 16.367 595.641 21.9812 598.432 30.8307C600.126 36.0644 592.949 34.0661 591.753 33.2097C586.27 29.6889 584.675 33.6854 583.579 36.8256C582.283 40.3464 582.283 44.1526 578.096 46.3412C576.402 47.2928 577.498 50.2427 578.695 50.0523C582.981 49.4814 585.373 52.5264 588.763 53.478C593.049 54.715 597.435 53.8586 596.937 47.6734C596.737 45.7703 596.538 43.2011 599.628 43.1059C608.001 42.9156 606.107 37.8723 604.911 33.1145C610.294 33.9709 610.294 33.9709 608.699 38.2529C606.606 43.772 607.902 50.5281 601.921 54.6198C601.721 54.8102 601.921 55.8569 602.22 56.4278C602.818 57.2842 603.715 57.4745 604.612 56.9036C605.908 56.0472 606.307 54.0489 608.898 54.5247C609.397 56.523 606.107 61.1856 612.587 59.8535C614.979 59.3777 614.979 62.613 615.178 64.6113C615.278 65.7532 615.677 66.895 617.072 66.9902C618.966 66.9902 618.966 65.5628 619.365 64.2307C620.262 60.3292 617.571 57.1891 615.976 52.6216C621.259 54.5247 621.957 58.4261 624.25 60.9002C627.24 64.0403 633.221 64.421 636.012 61.4711C636.81 60.7099 637.807 59.7583 636.71 58.6164C635.913 57.8552 634.916 58.0455 634.218 58.6164C632.623 59.8535 630.629 61.9469 629.632 58.6164C628.735 55.7617 629.433 52.8119 632.922 51.3845C634.417 50.8136 637.807 53.9538 637.408 49.9572C637.109 46.7219 633.62 45.009 630.629 43.6769C628.237 42.6301 626.243 43.2011 625.446 45.58C624.549 48.0541 623.552 50.0523 620.163 51.0039C620.163 46.6267 621.159 42.8205 620.362 38.8239C619.764 35.3983 623.851 33.7806 626.542 32.7339C629.134 31.6872 628.835 34.5418 629.533 36.1595C631.726 41.0125 636.511 43.3914 640.996 45.58C648.971 49.3863 651.064 55.7617 645.283 62.5178C643.588 64.5161 642.791 66.4192 644.186 68.6078C646.379 71.9383 649.569 74.6979 649.469 79.1702C649.469 81.1685 651.862 80.9782 653.457 80.883C655.55 80.883 657.145 79.8363 657.344 77.7429C657.444 76.5058 656.946 75.1736 656.746 73.8414C656.348 71.9383 655.151 69.5594 657.344 68.3224C659.338 67.1805 660.335 69.8449 661.83 70.7013C662.827 71.2722 664.023 71.8432 664.522 72.7947C665.718 74.793 669.506 73.2705 669.506 75.7446C669.506 78.5041 665.618 80.0266 665.718 83.3571C665.718 84.4038 664.322 83.7377 663.525 83.3571C661.431 82.1201 659.238 81.8346 656.447 83.5474C659.537 85.736 660.634 88.6859 660.833 92.1115C660.933 94.0146 662.827 96.2032 660.833 97.7257C658.441 99.6288 658.042 96.679 656.946 95.5371C656.048 94.6807 654.852 95.3468 654.952 96.2032C655.251 99.1531 648.871 99.8192 651.762 102.579C655.251 105.909 655.55 109.62 656.049 113.712C656.248 115.139 657.942 116.472 655.65 117.518C653.756 118.47 651.762 119.707 650.466 116.757C649.469 114.378 648.074 115.139 646.678 116.281C645.183 117.518 641.395 118.47 642.591 120.183C646.28 125.036 642.89 129.698 643.189 134.456C643.389 136.645 645.382 138.548 644.086 140.736C641.794 142.735 639.7 137.406 638.106 140.546C636.81 143.02 639.8 144.448 641.395 145.97C645.781 150.347 646.778 154.249 643.488 160.339C640.299 166.334 637.109 172.233 631.925 176.801C628.835 179.465 629.034 180.512 633.121 181.178C635.215 181.559 636.909 182.891 637.109 185.27C635.314 186.697 634.118 184.889 632.623 184.699C626.841 183.842 620.86 183.747 627.838 175.754C630.031 173.185 628.935 167.285 628.137 163.098C627.14 157.579 623.253 158.626 619.764 161.1C617.272 162.908 615.378 165.667 610.194 165.477C615.478 159.387 619.465 153.583 621.159 146.636C621.857 143.496 622.156 141.973 618.269 141.783C615.677 141.593 613.085 140.261 610.693 140.641C604.014 141.593 605.709 135.312 602.917 132.934C602.818 132.838 603.316 131.697 603.815 131.411C605.011 130.935 606.307 131.411 606.905 132.363C608.599 135.312 611.291 136.835 614.381 138.167C616.474 139.024 618.767 139.785 619.764 137.311C620.86 134.837 617.87 134.171 616.474 134.075C610.792 133.79 609.197 129.222 606.207 125.892C605.21 124.845 604.811 122.466 606.008 122.562C612.487 122.847 612.587 116.852 615.976 114.283C618.966 112.094 623.153 109.906 626.642 110.096C630.43 110.191 629.832 114.664 629.732 117.613C629.632 119.992 627.439 121.991 628.436 125.321C634.318 122.086 636.511 117.613 636.112 111.619C636.012 110.096 634.118 108.003 635.713 107.241C641.395 104.577 640.299 102.293 635.813 99.6288C635.314 99.3434 635.015 97.4402 635.215 97.3451C640.498 94.3001 635.813 86.2118 643.09 83.928C629.932 83.7377 617.471 94.871 604.612 84.3087C602.519 87.8294 607.702 89.1616 606.606 92.397C605.709 95.0613 603.416 97.0596 603.017 99.5337C602.319 103.911 605.709 107.432 607.503 111.238C609.098 114.759 610.095 115.71 605.709 118.279C602.12 120.373 601.123 126.273 594.743 125.321C593.747 125.131 593.547 127.7 593.946 128.842C595.84 133.314 595.641 138.453 598.731 142.64C599.628 143.877 600.126 145.494 600.525 147.017C601.323 149.681 599.229 151.394 597.734 152.821C595.342 155.01 594.245 151.965 592.75 150.918C591.952 150.442 591.155 149.205 590.557 149.301C582.981 150.823 581.984 144.448 578.894 140.546C577.399 138.738 575.006 137.501 576.502 134.266C578.096 130.84 580.888 131.982 583.579 131.697C578.794 125.702 573.71 126.177 570.122 132.648C567.729 132.743 569.125 126.558 564.938 129.793C561.848 132.172 564.639 133.885 565.237 136.169C566.234 140.165 564.739 144.923 563.144 149.015C562.546 150.538 560.054 147.968 558.559 147.207C554.073 144.828 547.593 147.968 546.995 152.916C546.796 154.82 545.699 156.532 545.002 158.34C546.098 160.243 549.986 156.723 549.786 160.434C549.587 163.479 549.388 167.095 547.494 169.283C546.397 170.52 541.712 169.759 539.918 167.761C535.432 162.527 531.445 161.861 527.158 167.761C526.062 169.283 523.071 169.283 522.972 168.237C522.673 165.001 517.29 164.145 519.184 160.434C519.682 159.292 522.174 157.865 521.576 157.579C514.499 153.963 521.576 148.444 519.483 144.162C517.689 140.451 514.499 140.641 511.209 140.641C504.929 140.641 504.929 140.641 502.238 145.589C506.624 144.162 508.617 145.018 508.418 149.586C508.219 154.249 512.804 158.055 510.91 163.479C509.515 167.285 514.598 164.145 515.894 166.524C513.103 168.903 511.109 171.472 516.293 174.136C518.386 175.183 518.685 178.894 516.692 179.941C514.598 180.988 510.212 180.702 509.614 177.943C508.119 170.616 502.238 170.14 496.556 168.998C490.176 167.666 487.584 164.05 488.282 156.818C490.874 159.482 492.868 161.005 496.157 158.721C498.45 157.103 500.344 158.721 500.742 161.671C500.942 163.288 501.34 165.858 503.733 165.382C505.527 165.001 506.026 162.718 506.125 160.91C506.325 158.436 505.727 156.247 504.132 154.058C502.138 151.108 498.25 148.73 499.945 144.162C500.443 142.83 499.347 141.973 497.951 142.259C496.157 142.64 494.961 143.496 495.559 145.589C495.958 146.922 498.549 148.063 496.456 149.586C494.761 150.823 492.867 149.967 491.273 148.73C488.88 146.922 486.488 148.063 483.996 148.254C479.709 148.634 475.523 151.299 470.937 149.11C469.542 148.444 467.448 148.444 466.95 150.538C466.651 151.775 466.651 153.392 467.349 154.344C468.346 155.866 469.841 154.534 471.037 154.058C473.031 153.202 474.925 152.346 477.118 153.202C478.613 153.773 480.706 154.249 480.407 156.152C480.008 158.911 478.015 157.008 476.619 157.103C474.526 157.294 472.433 157.674 470.539 158.435C466.252 160.053 462.664 161.481 460.57 155.295C459.274 151.299 454.689 152.345 453.692 155.391C451.2 163.669 448.708 160.243 446.016 155.676C442.827 157.103 446.615 160.339 443.624 161.481C440.933 162.432 439.138 160.529 437.145 159.673C430.865 157.008 425.382 160.339 419.601 161.481C418.305 161.766 418.205 163.479 419.302 164.145C426.678 168.427 419.002 170.52 417.507 172.423C414.616 175.944 411.925 174.612 410.928 170.235C410.729 169.188 409.333 169.093 408.536 169.664C402.754 173.375 402.056 168.427 400.262 165.382C399.066 163.288 398.368 161.861 401.757 160.339C405.446 158.721 406.542 155.01 404.748 151.108C403.651 148.73 402.953 144.638 399.764 149.871C398.966 151.108 397.969 150.633 396.773 150.728C391.191 151.394 392.287 153.583 390.194 156.437C387.004 160.814 390.493 163.003 390.792 166.143C390.992 168.808 389.297 171.282 385.808 171.662C383.814 171.853 382.817 172.994 383.117 174.802C383.316 175.754 383.914 176.991 384.711 177.562C386.605 178.704 388.001 177.181 388.798 176.039C392.188 171.186 394.48 171.948 396.374 176.991C396.773 178.133 397.471 179.655 399.365 179.18C403.751 178.228 402.854 181.083 402.156 183.081C400.461 187.839 402.854 189.742 407.24 190.503C408.336 190.694 409.832 190.694 410.529 191.36C416.112 196.403 420.996 196.403 425.083 189.171C428.173 192.692 424.485 195.547 425.282 198.401C421.893 198.401 418.504 198.496 415.115 198.592C414.716 198.496 414.417 198.496 414.018 198.592C413.819 198.306 413.52 198.306 413.221 198.592C410.629 197.64 408.037 197.925 405.446 198.401C396.973 197.64 388.499 197.735 380.026 198.401C372.55 197.354 364.974 197.735 357.498 198.401C354.208 198.401 350.819 198.401 347.53 198.401C345.237 198.306 342.845 198.021 340.552 198.021C312.94 198.021 285.228 198.021 257.616 197.925C255.223 196.879 252.831 197.354 250.439 197.545C231.1 197.545 211.662 196.974 192.323 197.545C183.751 197.83 175.278 199.258 166.705 197.45C164.213 197.45 161.82 196.879 159.428 197.925C143.08 198.401 126.732 196.974 110.384 198.401C94.4347 198.211 78.5852 197.83 62.6359 197.83C42.3006 197.83 21.9652 198.211 1.53022 198.496C-0.363759 196.403 0.0350338 193.834 0.0350339 191.455C0.0350348 172.709 0.0350357 153.963 0.0350365 135.217C0.035038 102.388 0.0350395 69.6545 0.0350411 36.8256C0.0350416 24.6456 0.0350422 12.5607 0.0350427 0.380664L548.092 0.380687C547.793 2.85475 548.59 5.23367 549.388 7.61258C549.886 9.03992 549.388 10.9431 551.88 10.9431C553.973 10.9431 551.581 7.51742 554.671 7.9932C555.867 11.9898 555.369 17.2234 561.549 18.841C561.549 17.6992 561.748 17.0331 561.549 16.4621C560.752 14.0832 559.854 11.2285 561.748 9.42055C564.34 6.94648 565.437 10.5624 567.231 11.4188C570.022 12.751 571.617 9.61086 574.009 9.13508C575.106 8.94477 575.106 7.32711 574.408 6.18523C573.212 4.2821 571.617 4.47241 569.524 4.85304C565.736 5.51913 563.543 3.42569 562.347 0.285531C581.187 0.285532 600.027 0.285532 618.867 0.285533C618.867 3.23538 618.867 6.09007 619.066 9.03992C619.265 11.4188 621.06 12.6559 623.452 12.2752C626.243 11.7995 627.34 9.80118 626.542 7.32711C625.845 5.04335 624.15 2.94991 624.449 0.285533L648.473 0.285534C646.778 3.71117 642.292 4.66273 640.797 8.37383C640.199 9.99149 639.8 11.3237 641.196 12.6559C642.093 13.5123 644.186 13.8929 644.286 13.322C644.784 8.08836 652.261 6.18523 651.264 0.285535C659.737 0.285535 668.21 0.285535 676.683 0.285536L677.48 6.64166e-05ZM547.494 21.7909C545.101 22.8376 544.304 24.5504 544.703 26.3584C546.397 33.4 547.693 40.6318 550.484 47.388C551.481 49.7669 552.677 50.5281 550.085 52.3361C544.902 55.952 548.192 62.4227 545.002 66.895C544.603 67.3708 545.6 68.703 546.696 68.5127C549.188 67.9418 552.079 67.7514 553.874 66.3241C555.568 64.9919 553.475 63.1839 552.279 61.8517C551.182 60.7099 549.587 59.0922 551.082 57.8552C553.176 56.0472 554.272 58.5213 555.369 59.7583C556.764 61.376 557.761 64.6113 560.552 62.8033C563.244 61.0905 560.752 59.0922 559.655 57.0939C558.559 55.1908 557.96 52.5264 561.051 51.5748C563.543 50.8136 565.736 51.5748 566.633 54.2392C567.032 55.2859 567.131 56.4278 567.43 57.4745C569.025 62.613 570.122 68.0369 577.698 68.0369C579.093 68.0369 580.289 69.8449 579.492 71.0819C575.106 77.4574 581.884 83.5474 578.794 90.3987C585.074 88.4004 587.766 83.928 590.657 80.2169C592.451 77.9332 592.85 73.2705 590.158 71.4625C584.676 67.9417 586.569 64.7064 588.962 60.9002C590.756 58.0455 589.56 56.8084 586.37 56.6181C583.878 56.4278 581.785 57.1891 579.791 58.6164C578.695 59.3777 576.601 59.7583 576.502 57.8552C576.202 50.8136 572.614 43.772 576.402 36.6353C577.997 33.5903 578.794 28.6421 576.402 27.1196C571.717 23.8843 574.408 22.3618 576.701 20.0781C577.498 19.3168 578.695 18.2701 577.897 17.2234C576.9 15.796 575.505 16.5573 574.209 17.2234C568.228 19.7926 565.835 24.3601 567.829 30.355C568.826 33.4951 569.424 35.4934 565.038 36.9208C561.35 38.1578 556.365 39.5851 556.864 45.1994C556.864 45.58 555.568 46.2461 554.771 46.5316C554.472 46.5316 553.774 45.8655 553.475 45.2945C549.886 38.1578 550.983 34.9225 558.26 30.7356C559.755 29.8792 562.147 29.4034 560.951 26.8342C560.353 25.502 560.552 23.5989 558.359 23.1231C556.565 22.7424 555.169 23.2182 553.973 24.5504C552.777 25.9778 552.278 28.6421 549.288 27.5003C546.497 26.3584 549.388 23.7892 547.593 21.7909H547.494ZM139.292 102.484C139.292 102.484 138.295 101.817 137.797 101.532C134.607 104.387 130.321 106.575 128.526 110.096C124.041 118.565 113.873 120.468 108.291 127.605C107.294 128.842 104.702 128.652 104.004 126.177C103.705 124.94 105.3 122.752 102.21 122.942C99.4189 123.132 99.9173 125.226 99.718 126.939C99.5186 128.842 100.416 131.411 97.5249 131.887C94.2354 132.458 89.6499 132.648 90.6468 136.55C91.7433 140.546 96.7274 138.453 100.017 138.643C101.712 138.738 104.303 138.357 105.3 137.216C110.882 130.935 119.355 128.366 125.037 122.371C126.034 121.324 127.031 120.563 128.227 119.897C135.205 115.805 135.604 108.288 139.392 102.388L139.292 102.484ZM538.722 149.491C537.725 148.063 538.323 145.209 535.931 144.733C533.04 144.067 533.737 146.826 533.04 148.254C532.043 150.728 528.753 151.679 528.355 154.629C528.056 156.532 523.271 157.769 526.361 159.863C529.551 162.051 530.049 157.96 531.544 156.342C532.741 155.01 534.435 154.153 535.931 153.107C537.226 152.25 539.021 151.775 538.622 149.491H538.722ZM638.903 125.892C632.922 126.082 633.121 131.601 629.832 133.505C628.436 134.361 627.739 135.312 628.835 136.645C629.633 137.691 630.928 137.311 632.025 136.93C637.208 135.122 637.906 130.745 639.003 125.892H638.903ZM637.607 68.8933C635.115 69.1788 633.321 70.6061 634.019 71.9383C635.713 74.793 638.504 76.7913 641.893 77.7429C643.389 78.1235 644.884 76.6961 644.585 75.364C643.688 71.748 638.604 72.2238 637.607 68.8933ZM606.207 65.7532C605.808 67.7514 605.509 68.6079 605.41 69.3691C605.31 71.9383 606.207 73.8414 609.197 74.0318C610.693 74.1269 612.886 74.6979 613.384 72.6044C614.182 69.5594 610.493 70.4158 609.397 68.8933C608.699 68.0369 607.902 67.2757 606.207 65.658V65.7532ZM598.232 70.0352C598.133 68.3224 597.634 66.7047 595.641 66.6096C593.248 66.6096 592.75 68.4175 592.75 70.2255C592.75 71.8432 593.348 73.4608 595.342 73.556C597.734 73.556 598.133 71.748 598.232 70.0352ZM628.137 71.1771C628.636 70.4158 629.134 69.94 629.134 69.3691C629.134 68.4175 628.536 67.7514 627.539 68.1321C627.14 68.2272 626.841 69.1788 626.941 69.7497C626.941 70.2255 627.639 70.6061 628.137 71.1771Z" fill="#FCDEB0"/>
<path d="M827.747 0.0949731C829.131 5.88442 828.933 11.579 825.967 16.8939C823.495 21.2597 827.549 21.4495 829.922 23.1578C830.12 22.5884 830.516 22.0189 830.516 21.5444C830.713 18.9819 830.911 15.8499 834.471 16.7989C837.042 17.4633 837.141 20.5953 837.24 23.0629C837.339 24.7713 833.284 26.3848 836.449 27.9982C838.822 29.1371 842.184 29.1371 844.557 27.8084C846.831 26.4797 848.71 25.4357 850.589 27.6186C852.764 30.1811 849.996 31.6047 848.512 33.1233C846.831 34.8316 845.744 36.0655 847.425 38.8178C849.6 42.4244 845.941 44.7022 843.766 46.98C842.876 48.024 841.195 48.4985 842.283 50.0171C843.37 51.6305 844.755 50.2069 845.941 49.6374C851.578 46.8851 867.696 56.5658 864.828 61.1214C859.291 69.853 861.466 72.7003 870.465 75.4527C873.134 76.3069 869.377 81.5268 871.552 85.3232C873.926 89.4992 868.487 90.1636 865.52 91.3974C864.136 91.9668 862.257 92.4414 863.642 93.865C866.509 96.9021 863.543 99.8443 864.136 102.786C864.433 104.4 863.444 106.962 866.015 107.152C868.586 107.342 868.685 104.874 869.377 102.976C870.959 98.041 871.849 92.4414 877.09 89.5941C878.87 88.645 882.43 86.0825 883.32 89.4992C884.111 92.5363 886.286 97.6614 881.045 99.2748C875.31 100.983 871.552 101.932 877.189 108.196C878.672 109.905 877.584 114.27 875.705 116.169C873.53 118.352 872.64 114.65 870.959 113.891C870.168 113.511 869.179 113.511 868.388 113.416C867.498 120.345 860.576 117.023 857.511 119.396C855.335 121.104 860.477 128.886 864.532 130.405C865.916 130.879 865.52 131.734 865.421 132.398C865.026 134.866 863.74 137.049 861.763 138.662C860.774 139.516 859.39 139.896 858.895 138.567C857.016 134.106 850.391 132.303 852.171 125.565C852.764 123.097 848.413 121.768 845.645 120.629C843.667 119.87 841.887 118.446 842.085 116.074C842.283 113.986 844.557 114.46 845.843 113.606C847.919 112.182 852.863 113.796 852.27 111.328C851.479 107.532 851.578 102.407 847.82 100.129C845.15 98.4206 844.953 97.2817 845.843 95.0039C848.611 87.8857 845.348 78.9643 853.259 73.4596C854.544 72.6054 853.654 71.0869 852.666 70.8021C849.798 69.9479 847.326 71.6563 844.755 72.6054C842.579 73.4596 841.096 75.1679 842.184 77.3508C845.15 83.2352 840.799 89.0246 842.579 95.0988C843.667 98.7054 839.02 100.414 835.658 97.9461C833.284 96.2377 832.098 97.1868 831.999 99.4646C831.603 105.254 830.219 110.664 828.538 116.169C827.846 118.541 827.252 120.345 825.472 122.148C822.407 125.28 818.748 128.317 820.429 133.537C820.825 134.771 820.528 136.289 818.847 136.764C817.463 137.143 816.177 136.954 815.287 135.53C812.716 131.259 810.145 132.683 807.97 135.815C804.905 140.465 802.531 136.005 800.751 134.961C798.279 133.442 800.356 130.69 802.136 130.31C806.882 129.076 807.574 123.002 813.606 123.097C811.925 120.819 810.739 119.301 809.552 117.687C808.662 116.548 807.772 115.125 809.849 114.46C817.166 112.182 813.903 108.671 810.937 105.634C808.168 102.692 805.003 100.414 808.86 96.0479C810.047 94.8141 808.168 93.2006 807.673 91.777C806.685 89.2145 806.091 87.1265 810.343 88.2654C813.606 89.1196 813.606 86.8417 813.804 84.7538C813.903 82.5708 813.409 80.293 814.595 78.205C815.287 77.0661 817.562 75.6425 815.188 74.4087C813.211 73.3647 811.53 75.073 810.64 76.6865C806.091 85.2283 798.675 89.9737 789.578 93.2955C785.82 94.6243 784.337 98.4206 785.227 101.553C786.314 105.539 790.962 104.969 794.225 104.685C795.708 104.685 797.291 103.925 797.587 105.349C798.378 109.24 800.653 113.037 799.268 117.023C798.675 118.731 796.499 118.257 794.917 118.257C792.742 118.257 790.962 117.782 792.742 115.125C793.632 113.891 796.005 112.657 794.818 111.328C793.039 109.43 790.468 108.006 787.995 106.962C786.018 106.108 785.919 108.006 785.721 109.335C785.425 111.993 786.512 114.935 784.732 117.687C780.283 115.22 786.809 107.532 778.7 107.532C778.305 102.122 772.866 99.8443 770.493 95.5734C770.098 94.909 768.021 95.2886 768.12 93.7701C768.318 92.2515 769.702 91.4923 771.086 91.5872C774.152 91.6821 776.525 90.5432 778.305 88.2654C778.997 87.4112 780.283 86.0825 778.997 85.4181C773.657 82.5708 778.503 77.7305 776.426 74.3138C776.129 73.7443 776.822 72.6054 777.019 71.7512C777.514 69.3785 771.976 66.816 776.129 65.5821C778.107 65.0127 781.667 69.3785 782.755 72.8901C783.447 74.8832 780.975 78.5847 785.128 78.4898C788.984 78.2999 788.094 74.6934 788.49 72.1309C788.787 69.948 789.677 66.816 792.346 67.5752C795.214 68.3345 798.378 70.4225 800.059 72.7952C801.147 74.4087 797.884 74.8832 796.302 75.6425C794.72 76.4018 793.434 77.8254 794.522 79.4388C795.807 81.2421 797.884 81.0523 799.268 79.4388C801.048 77.2559 802.828 75.5476 805.894 75.073C808.662 74.5985 807.179 72.8901 806.289 71.5614C803.619 67.765 805.992 64.4432 808.761 62.9247C811.728 61.3112 814.2 63.7789 815.287 66.9109C816.474 70.5174 823.297 70.4225 821.122 76.2119C824.879 75.6425 826.758 72.7003 830.021 72.036C833.482 71.3716 830.219 68.3345 830.614 66.4363C831.01 64.2534 827.945 58.7487 835.064 62.2603C838.426 63.9687 839.118 60.0774 839.811 58.0843C840.503 56.0912 841.294 52.8643 837.932 52.6745C827.747 52.2 827.945 45.2716 827.648 38.4382C827.549 36.2553 828.241 33.9775 826.659 31.32C823 35.2113 820.429 32.7436 817.661 30.0862C814.299 26.8593 810.937 25.5306 809.453 31.7946C809.157 33.1233 808.464 34.452 806.783 34.452C804.707 34.452 804.212 32.8386 804.015 31.2251C804.015 31.0353 804.015 30.6557 804.015 30.5607C799.466 27.4287 794.621 24.6764 794.522 18.2226C794.522 17.5582 791.555 18.6022 790.369 19.5513C787.699 21.4495 785.622 23.9171 786.216 27.4287C786.413 28.8524 787.996 30.276 786.216 31.6047C785.919 31.8895 784.831 31.6047 784.436 31.2251C783.051 29.8964 781.766 28.2829 782.854 26.4797C784.633 23.6324 783.941 19.836 786.809 17.2735C789.775 14.5211 787.501 14.2364 784.93 13.1924C778.305 10.44 771.877 13.0026 765.747 13.8568C760.506 14.616 760.506 11.8637 759.517 9.11132C758.726 6.7386 756.748 3.98624 762.286 4.55569C764.263 4.74551 763.275 1.61351 763.571 6.14969e-05L828.043 6.4146e-05L827.747 0.0949731ZM817.166 103.166C816.87 105.918 819.441 106.868 820.825 108.386C821.913 109.62 822.308 111.898 824.78 111.328C826.165 110.949 826.165 109.715 826.264 108.671C826.56 106.108 825.077 105.159 822.803 104.59C820.924 104.21 819.441 102.122 817.166 103.166ZM817.759 13.1924C817.562 10.9146 815.683 10.1553 813.606 9.77568C811.431 9.39605 811.035 11.0095 810.937 12.7179C810.838 15.2804 812.123 16.3244 814.694 16.1346C816.573 16.1346 817.759 15.3753 817.759 13.1924Z" fill="#FCDEB0"/>
<path d="M739.259 1.40856C738.859 2.15565 738.658 3.46306 738.057 3.64983C732.847 5.05062 733.048 7.38528 736.855 10.2802C734.15 12.4281 727.938 11.4009 730.343 17.3776C730.743 18.4982 729.04 19.8056 727.537 19.8056C724.432 19.8056 721.727 21.113 719.222 22.5138C717.218 19.4321 718.521 16.3504 716.817 13.7355C715.214 11.2141 713.111 10.5604 710.305 10.8406C707.801 11.1207 706.298 12.8017 706.799 14.9496C708.602 22.6072 705.396 29.331 702.992 36.2416C702.39 37.8292 701.589 40.1638 704.094 40.6308C706.999 41.1911 707.4 38.5763 707.901 36.8019C709.904 29.2376 709.905 29.2376 714.513 26.6228C713.411 30.9186 712.91 34.7474 713.611 38.6697C714.012 41.0043 711.207 41.0043 709.704 41.7514C705.396 43.8059 701.288 45.9538 700.186 51.4636C698.583 45.5802 691.971 47.5413 688.865 44.086C687.763 42.872 685.158 44.553 685.96 46.8876C686.862 49.4091 687.563 52.2106 683.956 52.6776C679.648 53.2379 683.155 49.7826 682.153 48.5686C680.55 46.5141 679.047 43.4323 675.741 44.3662C672.635 45.2067 675.04 47.7281 675.34 49.4091C676.142 53.7048 673.537 57.9072 675.04 62.3897C675.541 63.8839 673.336 65.4715 671.533 66.0318C669.529 66.6855 668.527 65.2847 667.726 63.8839C666.323 61.6427 664.72 59.4014 663.718 57.0667C662.216 53.7982 665.121 53.5181 667.425 53.1445C669.529 52.771 671.132 51.9305 670.932 49.7826C670.832 47.7281 668.427 47.3546 667.225 47.448C661.414 47.8215 659.511 45.767 662.516 40.9109C660.613 40.2572 660.012 40.9109 659.21 41.4712C657.206 42.9654 660.212 47.4479 656.305 46.981C653.399 46.7009 653.099 43.0588 652.498 40.444C652.498 40.0704 651.997 39.7903 651.696 39.4167C648.891 39.4167 650.694 42.5919 648.189 43.2456C646.687 40.0704 645.084 36.8019 643.581 33.5334C642.98 32.226 642.479 30.9186 643.781 29.8913C644.984 28.9575 646.586 27.6501 648.189 28.8641C652.297 32.0392 656.405 29.5178 659.21 27.8369C666.023 23.7279 673.737 23.0742 681.051 21.3932C686.16 20.1792 691.069 19.3387 692.071 13.2686C692.272 11.8678 693.374 9.253 695.778 10.5604C697.582 11.4943 695.979 13.362 695.377 14.6694C694.676 16.0702 693.875 17.3776 693.274 18.8718C692.372 21.2064 694.275 22.2337 695.678 21.0197C699.084 18.2181 705.396 16.7239 703.392 10.6538C702.19 6.91834 703.693 5.79771 707.3 5.61094C710.205 5.42416 713.11 5.05062 713.712 1.68872C722.227 1.68872 730.743 1.68872 739.259 1.68872V1.40856ZM678.045 37.8292C681.952 39.1366 698.383 33.6268 700.186 30.1715C700.587 29.4244 700.788 28.4906 700.788 27.6501C700.788 26.5294 700.387 25.4088 698.684 25.7824C690.468 27.8369 680.55 27.3699 678.045 37.8292Z" fill="#FCDEB0"/>
<path d="M962.355 1.40856C961.149 7.06333 968.688 9.12777 968.889 14.6928C960.345 13.3464 952.404 14.603 945.669 19.809C944.966 20.3476 943.056 20.6168 942.352 20.168C937.527 17.1163 936.723 18.9114 936.522 23.2198C936.321 26.1818 934.311 25.7331 932.3 23.8481C928.481 20.2578 924.761 16.3084 918.429 16.6675C915.916 16.7572 910.99 15.3211 914.509 20.6168C915.614 22.1427 914.006 23.4891 912.699 22.6813C909.583 20.7066 905.361 21.0656 902.547 18.5524C896.315 12.7181 893.199 12.0898 884.152 19.8988C882.343 21.4247 881.338 23.9379 877.518 23.8481C878.825 20.9759 882.644 18.9114 880.232 15.1416C879.026 13.1669 882.544 13.1669 883.851 12.1796C885.76 10.7434 885.962 8.67898 885.157 6.97357C884.152 4.5501 882.644 6.79405 881.237 6.97357C876.714 7.51212 873.899 5.44768 872.593 1.58807L886.866 1.58807C885.962 4.28082 889.882 5.44768 889.379 7.69164C887.469 16.3084 893.701 12.0898 896.415 10.9229C900.336 9.21753 903.753 6.34526 902.547 1.58807L929.586 1.58807C929.184 4.46034 927.375 6.16575 924.158 6.61454C922.248 6.88381 919.434 7.42236 920.439 9.30729C921.646 11.5512 924.259 13.6157 927.475 14.1542C929.787 14.603 930.994 13.4362 930.994 11.282C930.994 8.23019 932.602 5.44768 936.221 5.71696C940.442 6.07599 940.844 8.8585 939.839 12.3591C939.136 14.8723 941.347 18.0138 943.86 16.1289C946.172 14.3338 950.193 12.0898 949.992 9.21753C949.891 7.33261 947.076 4.5501 943.659 4.10131C941.95 3.83203 941.246 2.93445 941.045 1.58807L962.456 1.58808L962.355 1.40856Z" fill="#FCDEB0"/>
<path d="M867.3 1.40856C873.557 8.32144 873.948 15.2343 867.593 22.3291C866.714 23.3297 866.714 25.7856 868.767 26.7861C870.527 27.6957 873.166 28.1505 872.482 30.6064C871.7 33.4261 868.669 31.9708 866.616 32.3346C865.931 32.4256 865.247 32.3346 864.563 32.3346C864.465 30.0606 865.149 27.5138 861.336 27.059C856.741 26.6042 857.23 22.602 857.035 20.0552C856.839 16.7806 860.456 18.4179 862.412 18.145C864.465 17.8721 866.322 17.5083 865.443 15.1434C864.758 13.2332 863.585 9.86775 861.336 11.1412C858.599 12.6875 853.613 11.596 853.124 16.5987C852.928 18.9636 850.386 21.6015 848.333 21.3286C845.4 20.9647 845.205 17.5083 845.205 15.0524C845.205 9.50391 843.249 6.8661 836.992 9.50391C834.646 10.5045 834.255 9.41295 833.961 7.68473C833.57 5.59267 833.081 3.50061 832.593 1.49952C840.023 1.49952 847.356 1.49952 854.786 1.49952C855.079 3.86445 853.71 6.8661 856.546 8.4124C858.697 9.59487 860.945 8.13952 862.803 7.13898C865.638 5.59267 862.803 3.40966 863.096 1.49952L867.3 1.49952V1.40856Z" fill="#FCDEB0"/>
<path d="M562.26 0.380687C563.449 3.57317 565.629 5.545 569.394 4.88773C571.474 4.51214 573.06 4.32435 574.249 6.20228C574.942 7.23514 574.942 8.83139 573.852 9.11308C571.475 9.58256 569.79 12.775 567.115 11.3666C565.332 10.5215 564.242 6.95345 561.666 9.39477C559.882 11.1788 560.774 13.9957 561.467 16.3431C561.666 16.9065 561.467 17.5638 561.467 18.6905C555.325 17.0943 555.82 11.8361 554.631 7.98632C551.56 7.51683 553.937 10.8971 551.857 10.8971C549.479 10.8971 549.875 9.01918 549.38 7.61073C548.686 5.26331 547.894 3.00979 548.092 0.474583L562.161 0.474583L562.26 0.380687Z" fill="#FFD698"/>
<path d="M940.719 1.40856C940.919 2.87706 941.619 3.79487 943.32 3.97843C946.721 4.43734 949.522 7.28256 949.622 9.20997C949.823 12.147 945.821 14.4415 943.52 16.2771C941.019 18.2963 938.818 14.9922 939.518 12.4223C940.519 8.84284 940.218 5.99762 935.917 5.6305C932.315 5.35515 930.814 8.10859 930.714 11.3209C930.714 13.5237 929.514 14.7168 927.213 14.2579C924.111 13.7072 921.51 11.5963 920.21 9.30174C919.209 7.37434 922.011 6.91543 923.911 6.54831C927.013 6.0894 928.914 4.34556 929.314 1.40856L940.719 1.40856Z" fill="#FFC979"/>
<path d="M903.417 1.40856C904.74 6.2004 901.281 8.95127 897.211 10.6373C894.464 11.7909 888.054 15.9616 890.089 7.44273C890.597 5.22428 886.629 3.98195 887.545 1.40856L903.417 1.40856Z" fill="#FFC979"/>
<path d="M755.673 1.40856C756.11 5.28689 753.135 9.3499 756.548 13.1359C757.335 13.967 757.335 16.3678 755.323 16.8295C753.135 17.2912 751.298 15.4444 751.21 13.7823C751.123 9.3499 748.498 5.74859 748.148 1.5009H755.585L755.673 1.40856Z" fill="#FCDEB0"/>
<path d="M976.553 1.40856C982.471 7.36193 977.091 12.5711 975.37 18.1524C974.186 21.7803 971.711 21.5012 967.407 20.3849C977.199 15.4548 971.173 7.641 973.433 1.40856L976.553 1.40856Z" fill="#FCDEB0"/>
<path d="M624.584 0.74693C624.304 3.23673 625.89 5.10408 626.542 7.32711C627.288 9.63906 626.169 11.5064 623.652 11.951C621.414 12.3067 619.736 11.1507 619.549 8.92769C619.363 6.26005 619.456 3.50349 619.363 0.74693C621.134 0.74693 622.906 0.74693 624.677 0.74693H624.584Z" fill="#FFD698"/>
<path d="M651.743 0.904504C652.701 6.52408 644.819 8.24621 644.286 13.322C644.286 13.8658 641.942 13.5032 640.984 12.6875C639.492 11.4186 639.918 10.1496 640.558 8.60877C642.049 5.07387 646.949 4.16749 648.76 0.904503L651.743 0.904504Z" fill="#FFD698"/>
<path d="M864.08 1.40856C863.864 3.24728 866.887 5.34868 863.756 6.83717C861.705 7.80031 859.221 9.11368 856.846 8.06298C853.715 6.57449 855.226 3.68507 854.903 1.40856L864.08 1.40856Z" fill="#FFC979"/>
<path d="M696.193 1.40856C695.78 2.93369 697.227 5.44568 694.849 5.6251C692.369 5.80453 692.265 3.20283 691.852 1.40856L696.296 1.40856H696.193Z" fill="#FCDEB0"/>
<path d="M703.704 1.40856C703.497 2.2148 703.084 2.91354 701.12 2.80604C699.569 2.69854 699.466 2.05355 699.259 1.40856L703.704 1.40856Z" fill="#FCDEB0"/>
<path d="M749.261 197.183C732.416 197.183 715.571 197.183 698.726 197.183C699.023 193.069 696.843 188.189 703.978 186.658C706.356 186.18 706.752 182.162 706.951 179.483C707.149 176.421 704.275 177.186 702.392 176.612C697.933 175.273 696.645 168.766 700.807 166.566C706.158 163.791 710.716 158.242 718.048 160.155C719.238 160.442 720.526 160.155 720.823 158.816C721.318 156.806 721.418 154.797 719.238 153.458C715.274 151.066 714.184 146.569 711.707 143.029C710.419 141.115 711.707 136.905 707.05 138.149C702.987 139.297 701.104 143.124 702.293 145.995C705.068 152.597 703.284 151.544 698.33 149.439C695.258 148.1 691.592 149.152 688.421 150.779C683.566 153.266 680.989 152.023 680.395 146.664C679.503 138.245 679.404 138.819 688.124 140.924C690.799 141.593 693.871 145.899 696.645 142.359C700.014 138.149 700.609 132.887 699.717 127.624C699.321 125.519 695.159 123.51 698.924 121.501C701.996 119.874 703.978 122.745 705.662 124.85C706.059 125.328 706.752 125.519 708.635 126.667C706.653 119.013 707.248 111.837 701.203 106.957C698.825 105.044 699.123 103.8 701.203 102.269C704.275 100.164 703.482 103.322 704.473 104.374C706.851 106.957 707.05 111.167 712.103 112.89C710.716 108.68 714.382 104.948 710.716 101.312C709.527 100.164 711.112 98.8247 712.103 97.9636C713.391 96.9112 714.679 96.8155 715.571 98.3463C717.85 102.174 720.526 99.8772 722.904 98.3463C724.489 100.93 723.201 102.269 721.418 103.035C719.931 103.704 717.949 103.991 718.742 106.096C719.535 108.201 721.715 105.714 723.498 107.436C718.544 108.106 721.814 116.525 713.887 114.803C716.364 118.535 717.949 121.596 722.408 122.745C726.966 123.893 727.957 127.624 725.282 130.495C724.985 126.859 722.507 126.189 719.337 126.38C718.048 126.38 716.958 127.146 717.058 128.485C717.355 131.547 718.94 133.556 722.408 133.461C723.399 137.192 726.669 136.809 729.642 137.479C732.218 138.149 735.29 139.489 735.983 141.88C736.875 144.751 733.209 144.655 731.624 145.995C726.768 149.918 727.264 155.754 726.966 161.112C726.966 162.643 728.255 162.834 729.444 162.356C732.912 161.016 734.695 163.026 736.182 165.513C736.776 166.566 736.776 168.479 738.758 167.81C740.244 167.331 740.641 165.896 740.641 164.461C740.641 162.643 740.343 160.921 740.046 159.103C739.848 157.859 739.848 156.711 741.334 156.519C743.415 156.328 745.595 156.137 747.478 156.711C749.46 157.285 747.676 158.816 747.478 159.964C746.784 165.896 746.19 172.211 749.36 177.282C752.333 182.161 754.315 186.084 750.45 191.251C749.36 192.686 749.46 195.078 748.964 197.088L749.261 197.183Z" fill="#FCDEB0"/>
<path d="M942.856 91.5371C940.871 98.0876 945.934 102.23 949.607 105.601C952.883 108.588 952.586 111.285 952.586 114.464C952.586 117.354 950.898 117.932 948.416 116.583C945.934 115.234 944.345 110.514 941.169 112.922C937.694 115.523 941.864 118.991 942.36 122.363C940.176 122.748 938.091 123.037 936.106 123.615C933.822 124.289 932.333 123.037 933.425 121.399C939.183 113.5 929.95 112.055 927.171 108.202C926.277 106.95 924.589 106.083 924.49 104.156C924.49 101.844 923.398 100.207 920.817 99.9178C918.136 99.6289 915.754 100.977 915.257 103.193C913.57 110.418 909.896 116.583 905.727 122.652C904.238 124.771 905.131 126.312 907.216 127.757C910.293 129.78 911.386 132.477 909.201 136.62C907.216 133.152 905.032 130.358 900.664 131.033C899.075 131.321 898.38 130.069 897.586 128.817C895.402 125.445 894.608 120.918 888.055 121.881C884.581 122.363 883.886 116.872 883.092 113.982C882.397 111.574 884.581 109.744 888.155 108.973C895.799 107.143 900.961 99.4362 900.564 92.6931C900.564 90.9591 897.586 88.0692 902.054 87.4912C904.933 87.1059 908.209 87.2022 909.698 89.8032C911.783 93.56 906.124 92.0188 905.23 94.8123C908.507 95.9683 911.386 96.4499 912.974 92.9821C914.761 89.1288 916.349 90.2848 917.243 93.1747C918.831 97.9912 921.909 97.4133 925.483 95.872C927.071 95.1977 928.958 93.4637 930.645 95.1013C933.127 97.5096 934.319 95.9683 935.311 94.0417C936.999 90.7665 939.58 90.4775 942.658 91.6334L942.856 91.5371ZM938.588 101.17C936.602 101.266 934.914 101.941 934.716 104.156C934.517 105.89 935.808 106.565 937.297 106.468C939.382 106.276 941.764 105.987 942.062 103.578C942.261 101.748 940.275 101.266 938.588 101.17Z" fill="#FCDEB0"/>
<path d="M886.067 70.2798C888.839 70.374 890.621 69.6206 890.126 66.5127C889.532 63.1223 879.533 57.3774 876.167 58.5076C875.078 58.8843 873.89 59.5435 874.088 60.862C874.088 61.6155 874.781 62.4631 875.375 63.0281C876.563 64.0641 878.642 63.0281 879.929 65.1942C877.553 67.2661 876.167 69.5264 871.514 67.2661C866.861 65.0059 868.94 63.1223 870.128 60.6737C871.613 57.66 869.435 55.2113 868.148 53.3278C870.128 50.5024 880.622 53.6103 872.9 45.8877C872.108 45.1343 872.9 44.0042 873.989 44.0042C876.464 44.0042 878.84 41.4614 881.216 43.2507C882.404 44.0983 883.493 45.6052 882.305 47.3004C879.137 51.7268 883.691 54.0812 885.572 56.9066C886.364 58.1309 888.146 58.6959 889.532 59.5435C891.314 60.6737 892.601 64.1583 894.977 62.8398C897.452 61.4271 894.878 59.1668 894.383 57.0949C893.393 53.0453 898.937 52.1977 899.927 52.5744C908.341 55.1172 905.272 49.6548 905.074 46.2644C905.074 44.9459 904.678 43.6275 904.48 42.309C909.133 41.4614 911.707 49.0898 917.152 45.0401C918.934 44.7576 920.617 46.8295 922.498 45.3227C925.468 43.0624 925.369 45.3227 925.567 47.2062C925.765 48.9014 925.171 50.9733 927.745 51.4442C928.933 51.6326 930.121 51.4442 930.715 50.3141C931.606 48.5247 931.111 46.3586 929.725 45.3227C925.369 42.2148 926.26 37.035 923.686 33.1737C922.3 31.0076 923.884 29.3124 924.478 27.523C924.775 26.5812 925.963 26.5812 926.854 27.1463C928.636 28.3706 929.329 29.9716 929.725 32.1377C931.012 40.0487 932.794 48.2422 938.041 54.5521C942.397 59.7319 939.229 65.8535 942.1 71.0333C942.595 71.8809 941.506 73.1052 940.318 73.6703C937.942 74.612 926.755 69.5264 925.963 66.9836C925.171 64.6292 925.171 61.9922 923.884 60.0144C921.805 56.7182 924.181 49.8432 921.211 50.1257C917.053 50.5966 914.479 50.1257 910.717 48.6189C907.846 47.3946 908.539 51.2559 909.529 52.6685C911.806 55.8706 912.499 58.3192 907.847 59.8261C906.56 60.2028 905.669 61.2387 906.263 62.3689C909.43 68.6788 903.589 72.6343 902.599 77.8141C898.838 77.1548 901.61 73.4819 898.64 72.2576C897.452 76.2131 894.68 79.7918 890.423 78.6617C888.641 78.1908 882.602 75.2713 886.364 70.2798H886.067Z" fill="#FCDEB0"/>
<path d="M540.585 197.118C535.733 197.994 530.778 199.942 525.926 197.118C527.887 194.975 531.088 195.17 533.462 193.32C535.424 191.761 537.075 190.398 535.837 188.45C533.049 183.97 536.869 179.587 535.527 175.01C534.804 172.575 538.211 170.529 540.895 170.432C544.096 170.237 543.476 173.062 543.579 175.01C543.992 180.269 540.792 185.528 544.715 190.787C546.986 193.807 540.276 193.807 540.585 197.021V197.118Z" fill="#FCDEB0"/>
<path d="M797.629 56.3381C796.712 55.8896 795.286 55.5308 794.777 54.7234C793.147 52.2116 794.675 48.8924 796.101 47.7262C799.462 45.1247 801.194 40.3702 807.714 40.9981C810.769 41.2673 814.131 38.6657 817.289 37.3201C818.817 36.6922 820.65 35.9745 821.771 37.679C823.299 39.9216 820.548 39.6525 819.428 40.4599C816.881 42.3438 814.029 44.1379 812.297 46.4703C810.566 48.8924 810.158 50.5969 806.287 48.4439C803.435 46.8291 802.824 50.4174 801.602 51.9425C800.379 53.3778 800.379 55.6205 797.629 56.2484V56.3381Z" fill="#FCDEB0"/>
<path d="M557.098 198.461C555.439 198.657 553.781 198.853 552.641 197.282C553.884 193.159 557.512 188.74 549.013 187.071C544.452 186.188 547.872 182.064 548.287 179.511C549.427 173.228 553.47 170.773 560 172.246C556.89 176.959 555.128 181.279 558.134 187.17C559.585 190.115 557.512 194.631 557.098 198.461Z" fill="#FCDEB0"/>
<path d="M461.987 198.334C455.678 197.966 449.177 199.714 442.963 197.23C444.588 194.01 452.236 194.562 448.795 188.215C448.317 187.295 450.42 186.56 451.28 187.111C454.053 188.859 455.773 186.1 458.068 185.916C458.068 190.515 463.804 193.275 461.796 198.334H461.987Z" fill="#FCDEB0"/>
<path d="M465.564 164.88C466.77 164.88 467.876 165.152 468.278 166.421C468.479 167.056 468.68 167.691 468.68 168.235C468.881 171.5 476.622 171.591 473.204 176.126C471.193 178.847 466.469 177.033 463.654 179.482C462.045 180.842 459.733 180.479 458.326 178.303C456.918 176.217 458.527 175.491 459.733 174.131C461.543 172.226 464.76 170.775 463.151 167.238C462.548 165.877 463.754 164.88 465.463 164.789L465.564 164.88Z" fill="#FCDEB0"/>
<path d="M771.353 147.409C775.807 148.581 775.808 146.823 774.979 144.382C774.461 142.722 773.114 140.476 775.6 139.598C777.776 138.816 778.915 141.062 780.158 142.429C783.783 146.433 782.022 150.143 779.536 154.146C776.947 158.345 773.943 155.22 771.25 155.22C767.728 155.22 767.521 151.705 767.417 149.557C767.21 146.14 770.318 147.702 771.457 147.409H771.353Z" fill="#FCDEB0"/>
<path d="M917.037 45.2122C911.647 49.4762 908.952 41.5432 904.261 42.3365C902.864 42.2373 900.967 42.5348 900.468 41.1465C899.47 38.5683 894.38 37.3784 897.074 33.8085C899.47 30.7345 902.564 33.4119 904.461 34.8993C908.653 38.2708 916.538 37.2792 916.937 45.113L917.037 45.2122Z" fill="#FFCC91"/>
<path d="M782.161 139.339C779.751 133.401 777.55 129.799 773.044 136.029C771.891 137.49 769.061 137.782 767.908 136.029C766.441 133.596 768.432 132.038 770.843 131.746C774.196 131.357 774.511 129.507 774.616 126.976C774.72 124.932 773.253 121.33 776.502 121.135C779.646 120.94 782.266 124.153 783 126.684C784.048 130.189 784.048 134.18 782.161 139.437V139.339Z" fill="#FCDEB0"/>
<path d="M941.76 91.5494C941.556 88.8123 943.189 86.4528 940.229 83.2439C936.656 79.563 944.108 77.2979 944.108 73.2395C946.354 76.0709 942.372 80.6956 947.783 81.8281C951.458 82.5832 949.518 78.1473 951.968 77.581C953.703 85.509 952.274 87.5854 941.862 91.5494H941.76Z" fill="#FCDEB0"/>
<path d="M948.977 26.8499C948.677 30.2417 948.677 33.5442 954.074 35.9542C948.577 36.8467 944.679 37.65 940.681 38.0071C937.683 38.2748 936.884 35.9542 936.384 33.9012C935.884 31.402 937.583 30.1524 939.982 30.688C944.379 31.6698 945.479 27.2069 948.877 26.7607L948.977 26.8499Z" fill="#FCDEB0"/>
<path d="M560.015 172.814C559.637 165.953 566.353 166.848 569.285 163.567C569.853 162.871 571.556 164.263 571.65 165.456C571.65 168.638 572.407 172.615 570.988 174.704C569.38 176.991 565.691 176.096 563.137 174.107C562.286 173.411 561.15 173.312 560.11 172.914L560.015 172.814Z" fill="#FCDEB0"/>
<path d="M896.296 85.4073C896.296 88.4709 894.309 91.3431 895.564 94.6939C896.192 96.2258 893.786 97.0874 891.903 97.1831C889.706 97.1831 888.555 96.0343 888.974 94.2152C889.602 90.9601 890.438 87.6093 891.484 84.4499C891.903 83.0138 892.74 81.099 895.041 81.8649C896.715 82.4394 895.983 84.1627 896.192 85.503L896.296 85.4073Z" fill="#FCDEB0"/>
<path d="M685.926 175.063C681.496 177.021 678.406 181.404 674.595 176.928C672.946 174.97 671.607 170.12 673.564 169.374C678.612 167.603 680.981 172.825 685.926 175.063Z" fill="#FCDEB0"/>
<path d="M1159.99 121.455C1159.99 123.247 1160.19 124.567 1158.86 125.133C1157.53 125.793 1156.5 124.85 1155.99 123.812C1154.35 120.889 1152.71 117.871 1151.38 114.759C1150.87 113.534 1150.97 112.025 1152.71 111.459C1154.35 110.893 1155.68 111.647 1156.3 112.873C1157.73 115.891 1158.96 119.003 1159.99 121.455Z" fill="#FFCC91"/>
<path d="M439.879 197.22C436.991 199.621 433.999 198.373 431.111 197.22C431.111 194.337 431.111 191.551 431.111 187.324C435.134 190.975 440.91 191.359 439.879 197.22Z" fill="#FCDEB0"/>
<path d="M669.63 170.889C668.389 173.153 666.971 175.983 664.312 177.303C662.893 178.058 661.83 175.983 662.362 174.945C663.78 172.304 665.641 169.757 667.68 167.682C668.212 167.21 669.541 169.002 669.541 170.889H669.63Z" fill="#FCDEB0"/>
<path d="M721.858 133.803C718.737 133.803 717.311 131.908 717.043 128.875C716.954 127.548 717.846 126.885 719.094 126.79C721.948 126.6 724.177 127.264 724.444 130.865C724.355 132.571 723.374 133.424 721.948 133.803H721.858Z" fill="#FFC874"/>
<path d="M695.222 181.69C693.054 181.603 690.474 181.603 690.37 179.178C690.37 177.532 692.022 175.973 694.087 176.06C696.874 176.233 699.042 178.139 699.248 180.304C699.454 182.123 696.771 181.43 695.222 181.69Z" fill="#FCDEB0"/>
<path d="M779.259 107.6C778.717 109.529 780.344 113.193 776.657 112.615C772.102 111.843 771.235 108.179 772.211 104.225C775.464 104.418 776.006 108.179 779.259 107.6Z" fill="#FCDEB0"/>
<path d="M775.916 21.1268C777.183 23.7417 778.028 25.6592 778.872 27.4896C779.717 29.1457 779.126 30.2788 777.605 30.8018C775.915 31.4119 774.986 30.4531 774.902 28.7099C774.902 26.5308 774.395 24.2646 775.831 21.1268H775.916Z" fill="#FCDEB0"/>
<path d="M441.481 181.998C440.905 184.051 439.062 184.587 436.757 184.498C434.799 184.498 433.647 183.516 434.223 182.087C434.799 180.48 436.181 178.873 438.486 178.873C440.79 178.873 440.905 180.748 441.481 182.087V181.998Z" fill="#FCDEB0"/>
<path d="M691.852 56.435C694.978 55.9332 697.713 55.4315 700.741 54.9297C697.615 60.2817 697.224 60.2817 691.852 56.435Z" fill="#FCDEB0"/>
<path d="M571.473 181.779C574.668 184.708 576.008 187.015 573.535 189.678C573.225 190.033 571.885 190.299 571.679 190.033C569.618 187.637 570.339 185.151 571.473 181.69V181.779Z" fill="#FCDEB0"/>
<path d="M949.696 26.7607C949.696 26.7607 949.696 26.2436 949.696 26.0367C950.041 23.8649 948.66 20.8656 951.248 19.8314C952.974 19.2108 953.75 21.2793 954.009 22.8306C954.527 26.9675 951.852 26.5539 949.696 26.7607Z" fill="#FCDEB0"/>
<path d="M795.556 135.211C792.497 133.554 790.012 132.933 789.63 129.93C789.63 129.412 790.777 128.169 791.35 128.169C794.409 128.48 794.791 131.172 795.556 135.108V135.211Z" fill="#FCDEB0"/>
<path d="M423.569 184.615C423.569 184.615 422.588 185.915 420.982 185.915C419.822 185.915 419.108 184.94 419.287 183.424C419.465 181.365 420.536 180.282 422.142 180.282C423.302 180.282 424.016 181.148 423.569 184.615Z" fill="#FCDEB0"/>
<path d="M823.704 137.126C825.789 136.322 827.4 133.681 829.39 136.437C829.864 137.011 829.58 139.537 829.011 139.996C826.452 142.178 825.22 139.767 823.704 137.126Z" fill="#FCDEB0"/>
<path d="M773.333 33.9381C773.333 36.0458 772.025 36.6943 769.766 36.6132C768.339 36.6132 767.031 36.1268 767.507 34.9109C767.983 33.6949 768.696 32.3168 771.074 32.3979C772.62 32.3979 773.333 33.2896 773.214 33.9381H773.333Z" fill="#FCDEB0"/>
<path d="M934.803 77.4648C936.036 77.4648 936.253 78.6223 936.253 79.7798C936.253 81.0337 936.616 82.7699 935.238 83.0592C934.006 83.3486 933.499 81.9982 933.354 80.5514C933.209 79.0081 933.861 78.0436 934.803 77.4648Z" fill="#FCDEB0"/>
<path d="M453.333 173.239C453.424 169.454 454.239 167.351 456.231 166.299C457.046 165.879 457.861 166.825 457.771 167.877C457.68 170.716 455.96 171.767 453.333 173.239Z" fill="#FCDEB0"/>
<path d="M819.259 63.3804C819.703 60.6916 820.679 59.2511 822.809 59.1551C823.075 59.1551 823.785 60.1154 823.696 60.4995C823.341 62.9003 821.744 63.3804 819.259 63.3804Z" fill="#FCDEB0"/>
<path d="M930.959 85.9155C932.203 87.9642 931.986 89.5861 931.284 91.5494C930.041 89.9275 930.203 88.3056 930.959 85.9155Z" fill="#FCDEB0"/>
<path d="M847.327 136.939C847.407 138.091 847.167 139.012 846.286 139.358C845.165 139.703 844.444 138.897 844.444 137.285C844.444 136.133 844.925 135.211 845.806 135.211C846.607 135.211 847.247 135.672 847.407 136.939H847.327Z" fill="#FCDEB0"/>
<path d="M865.185 32.3945V36.6199C863.458 36.4233 860.621 37.1112 860.745 34.8511C860.745 33.0823 863.088 32.591 865.185 32.4928V32.3945Z" fill="#FCDEB0"/>
<path d="M865.185 36.6199C866.695 37.0234 868.677 35.8127 869.621 37.9315C869.715 38.1333 869.054 39.1422 868.677 39.2431C866.695 39.8485 865.374 39.0414 865.185 36.7207V36.6199Z" fill="#FCDEB0"/>
<path d="M862.222 44.8685C862.222 45.7161 861.703 46.3942 860.275 46.479C858.977 46.479 857.549 46.3942 857.809 45.3771C857.938 44.7838 858.977 44.0209 859.886 43.7667C861.054 43.4276 862.092 43.9362 862.222 44.9533V44.8685Z" fill="#FCDEB0"/>
<path d="M881.597 68.6673C882.173 68.3684 882.98 67.6958 883.786 67.6211C885.515 67.4717 885.746 68.4431 885.861 69.3398C886.091 70.2365 885.746 70.5354 884.247 70.386C882.864 70.2365 881.597 70.0871 881.482 68.742L881.597 68.6673Z" fill="#FCDEB0"/>
<path d="M712.468 151.495C712.468 152.717 711.718 153.816 710.469 153.45C709.595 153.205 708.471 152.106 708.221 151.25C707.846 150.029 708.97 149.296 710.344 149.296C711.593 149.296 712.343 150.151 712.593 151.495H712.468Z" fill="#FCDEB0"/>
<path d="M565.926 184.305C565.926 185.153 565.407 185.831 563.979 185.915C562.681 185.915 561.253 185.831 561.512 184.814C561.642 184.22 562.681 183.457 563.589 183.203C564.758 182.864 565.796 183.373 565.926 184.39V184.305Z" fill="#FCDEB0"/>
<path d="M441.576 173.24C441.576 173.24 442.626 174.044 442.889 174.608C443.151 175.413 442.713 176.056 441.663 176.056C440.788 176.056 440.088 175.734 440 174.849C440 174.044 440.175 173.4 441.576 173.24Z" fill="#FCDEB0"/>
<path d="M875.543 20.9571C875.638 22.1378 875.164 22.6828 874.501 22.5011C873.743 22.3195 872.985 21.6837 872.701 21.1388C872.322 20.2306 872.985 19.504 873.933 19.7765C874.596 19.9581 875.164 20.7755 875.543 21.048V20.9571Z" fill="#FCDEB0"/>
<path d="M506.431 183.099C507.157 183.637 507.988 183.852 508.092 184.39C508.403 185.681 507.365 186.004 506.431 185.896C505.912 185.896 505.185 185.143 505.185 184.605C505.185 184.175 505.912 183.637 506.431 183.099Z" fill="#FCDEB0"/>
<path d="M494.815 172.742C494.343 173.542 494.225 174.342 493.752 174.542C492.572 174.942 491.745 174.142 491.863 173.242C491.863 172.742 492.571 172.042 493.044 171.842C493.398 171.742 494.106 172.342 494.815 172.742Z" fill="#FCDEB0"/>
<path d="M832.786 147.887C833.43 148.569 834.074 148.995 834.074 149.421C834.074 150.274 833.43 150.956 832.013 150.615C831.498 150.529 831.111 149.677 831.111 149.251C831.111 148.825 831.884 148.484 832.657 147.887H832.786Z" fill="#FCDEB0"/>
<path d="M917.23 112.676C917.874 113.358 918.519 113.784 918.519 114.21C918.519 115.062 917.874 115.744 916.457 115.403C915.942 115.318 915.556 114.466 915.556 114.04C915.556 113.614 916.329 113.273 917.102 112.676H917.23Z" fill="#FCDEB0"/>
<path d="M812.288 52.1127C812.288 52.1127 812.985 52.3742 813.333 52.5486C813.159 52.8972 813.072 53.4202 812.898 53.5073C812.636 53.5945 812.201 53.2458 811.852 53.1587C812.026 52.81 812.113 52.4614 812.288 52.1127Z" fill="#FCDEB0"/>
<path d="M687.843 61.9718C687.843 61.9718 688.54 62.2333 688.889 62.4076C688.715 62.7563 688.628 63.2792 688.453 63.3664C688.192 63.4536 687.756 63.1049 687.407 63.0178C687.582 62.6691 687.669 62.3205 687.843 61.9718Z" fill="#FCDEB0"/>
<path d="M694.815 117.865C694.815 117.865 695.076 117.001 695.251 116.915C695.512 116.829 695.948 117.174 696.296 117.347C696.122 117.692 696.035 118.21 695.861 118.296C695.599 118.383 695.163 118.037 694.815 117.865Z" fill="#FCDEB0"/>
<path d="M411.852 177.085C411.852 177.085 410.283 177.544 409.76 177.453C409.238 177.361 409.237 176.809 408.889 176.442C409.586 176.258 410.458 175.983 410.98 176.074C411.503 176.166 411.503 176.718 411.852 177.085Z" fill="#FCDEB0"/>
<path d="M446.394 177.465C446.394 177.465 447.302 177.713 447.393 177.879C447.484 178.128 447.121 178.542 446.939 178.873C446.576 178.708 446.031 178.625 445.94 178.459C445.849 178.211 446.213 177.796 446.394 177.465Z" fill="#FCDEB0"/>
<path d="M477.037 184.062C477.037 184.062 477.298 183.199 477.473 183.112C477.734 183.026 478.17 183.371 478.519 183.544C478.344 183.889 478.257 184.407 478.083 184.493C477.821 184.58 477.386 184.234 477.037 184.062Z" fill="#FCDEB0"/>
<path d="M547.594 22.1607C549.382 24.1407 546.501 26.6864 549.283 27.8178C552.263 29.0436 552.661 26.3093 553.952 24.895C555.144 23.575 556.535 23.1035 558.323 23.4807C560.41 23.8578 560.211 25.7436 560.907 27.1578C562.099 29.7036 559.714 30.0807 558.224 31.0236C550.972 35.1721 549.978 38.3779 553.455 45.4493C553.753 45.9207 554.449 46.7693 554.747 46.675C555.542 46.4865 556.833 45.8265 556.833 45.355C556.336 39.7922 561.304 38.3779 564.98 37.1522C569.351 35.6436 568.755 33.7579 567.762 30.6464C565.775 24.7064 568.258 20.1807 574.12 17.635C575.411 17.0692 576.802 16.315 577.796 17.635C578.591 18.6721 577.399 19.7093 576.604 20.4635C574.319 22.7264 571.636 24.1407 576.306 27.4407C578.591 28.9493 577.796 33.8521 576.306 36.8693C572.53 44.035 576.107 50.9179 576.405 57.8951C576.405 59.7808 578.491 59.4036 579.684 58.6493C581.67 57.3293 583.757 56.5751 586.241 56.6693C589.42 56.8579 590.612 58.0836 588.824 60.9122C586.34 64.6836 584.452 67.8894 590.016 71.378C592.798 73.0751 592.4 77.6951 590.513 80.0523C587.632 83.7294 584.949 88.1608 578.69 90.1409C581.77 83.3523 575.014 77.2237 579.385 71.0008C580.28 69.7751 579.087 67.9837 577.597 67.9837C570.146 67.9837 568.954 62.6094 567.364 57.5179C567.066 56.4808 566.967 55.3493 566.569 54.3122C565.576 51.7665 563.49 50.9179 561.006 51.6722C557.827 52.7093 558.522 55.2551 559.615 57.1408C560.708 59.1208 563.192 61.1008 560.509 62.7979C557.727 64.4951 556.734 61.3836 555.343 59.7808C554.25 58.5551 553.157 56.1979 551.071 57.8951C549.581 59.2151 551.17 60.7236 552.263 61.8551C553.455 63.1751 555.542 64.9665 553.853 66.2865C552.064 67.7008 549.183 67.8894 546.7 68.4551C545.607 68.6437 544.613 67.3237 545.011 66.8522C548.19 62.5151 544.911 56.0093 550.077 52.4265C552.661 50.635 551.468 49.8808 550.475 47.5236C547.792 40.9236 546.402 33.7579 544.713 26.6864C544.315 24.895 545.011 23.1978 547.494 22.1607H547.594ZM583.558 76.9408C582.565 76.9408 581.77 77.318 581.671 78.3551C581.671 79.2037 581.671 80.3351 582.962 80.1465C583.658 80.0523 584.552 79.298 584.949 78.638C585.346 77.7894 584.75 77.0351 583.658 76.9408H583.558Z" fill="#FFD698"/>
<path d="M537.679 149.834C538.075 152.059 536.29 152.523 535 153.357C533.511 154.284 531.825 155.212 530.634 156.51C529.146 158.179 528.65 162.073 525.475 159.941C522.399 157.901 527.161 156.695 527.459 154.841C527.856 151.966 531.13 151.039 532.122 148.628C532.718 147.145 532.122 144.456 535 145.197C537.381 145.754 536.786 148.443 537.778 149.834H537.679Z" fill="#FFC979"/>
<path d="M638.519 126.761C637.456 131.45 636.877 135.859 631.76 137.641C630.698 138.016 629.539 138.391 628.671 137.359C627.608 136.046 628.284 135.108 629.636 134.264C632.822 132.295 632.629 126.854 638.422 126.761H638.519Z" fill="#FFC979"/>
<path d="M637.68 69.0141C638.641 72.6986 643.335 71.114 644.2 75.1142C644.488 76.588 643.047 78.167 641.605 77.7459C638.434 76.6932 635.652 75.0964 634.019 71.9383C633.346 70.5698 635.278 69.4352 637.68 69.0141Z" fill="#FFD698"/>
<path d="M606.232 66.1972C608.093 67.9018 608.969 68.5647 609.736 69.417C610.94 70.9322 614.991 69.9852 614.115 73.1103C613.567 75.0991 611.268 74.6256 609.517 74.5309C606.342 74.3415 605.247 72.4474 605.356 69.8905C605.356 69.0382 605.685 68.2806 606.232 66.2919V66.1972Z" fill="#FFD698"/>
<path d="M598.311 70.0206C598.203 71.7553 597.772 73.6827 595.186 73.5864C593.139 73.5864 592.385 71.8517 592.385 70.2134C592.385 68.2859 592.924 66.4549 595.51 66.5512C597.557 66.5512 598.203 68.2859 598.311 70.0206Z" fill="#FFD698"/>
<path d="M628.379 71.8311C627.975 71.2346 627.571 70.8937 627.571 70.5529C627.571 70.1268 627.706 69.2747 627.975 69.1043C628.648 68.7634 629.053 69.4451 629.053 70.212C629.053 70.6381 628.716 71.0642 628.379 71.8311Z" fill="#FFC979"/>
<path d="M817.801 103.102C820.104 102.073 821.448 104.132 823.271 104.507C825.478 104.975 826.918 106.005 826.63 108.533C826.534 109.656 826.63 110.78 825.191 111.154C822.791 111.809 822.311 109.469 821.352 108.252C820.008 106.66 817.513 105.817 817.801 103.102Z" fill="#FFC979"/>
<path d="M817.778 13.6678C817.778 16.0618 816.748 16.7904 815.118 16.8945C812.886 16.9986 811.771 15.9577 811.856 13.1474C811.856 11.2738 812.2 9.50432 814.174 9.92067C815.976 10.337 817.692 11.1697 817.778 13.6678Z" fill="#FFC979"/>
<path d="M678.519 37.8284C681.064 27.1579 690.658 27.5425 698.685 25.4276C700.349 25.0431 700.741 26.1966 700.741 27.3502C700.741 28.2154 700.545 29.1767 700.153 29.9457C698.391 33.4064 682.336 39.1742 678.519 37.8284Z" fill="#FFD698"/>
<path d="M938.721 101.409C940.415 101.511 942.408 101.92 942.208 103.965C941.91 106.52 939.518 106.827 937.426 107.032C935.931 107.134 934.636 106.52 934.835 104.578C935.034 102.226 936.728 101.511 938.721 101.409Z" fill="#FFC979"/>
<path d="M583.34 77.4648C584.882 77.4648 585.525 78.2053 585.011 78.9458C584.625 79.5217 583.469 80.1799 582.44 80.2622C580.898 80.4268 580.641 79.5217 580.77 78.699C580.898 77.794 582.055 77.5471 583.212 77.4648H583.34Z" fill="#FCDEB0"/>
</svg>
