<svg width="980" height="420" viewBox="0 0 980 420" fill="none" xmlns="http://www.w3.org/2000/svg">
<path d="M420 280C342.68 280 280 342.68 280 420C357.32 420 420 357.32 420 280Z" fill="#FDDFC1"/>
<path d="M280 0C202.68 0 140 62.6801 140 140C217.32 140 280 77.3199 280 0Z" fill="#FDDFC1"/>
<path d="M840 420C840 342.68 902.68 280 980 280V420H840Z" fill="#FDDFC1"/>
<path d="M840 154.772C846.04 183.014 869.035 205.064 897.786 210C869.035 214.936 846.04 236.986 840 265.228V280H980V265.228C973.96 236.986 950.965 214.936 922.214 210C950.965 205.064 973.96 183.014 980 154.772V140H840V154.772Z" fill="#FFEDCC"/>
<path d="M280 280C202.68 280 140 342.68 140 420C217.32 420 280 357.32 280 280Z" fill="#FFEDCC"/>
<path d="M840 140C685.36 140 560 265.36 560 420C714.64 420 840 294.64 840 140Z" fill="#FFEDCC"/>
<path d="M280 280V278.248C300.516 276.932 318.438 270.036 331.129 257.793C310.505 250.772 295.75 232.024 295.75 210C295.75 187.93 310.567 169.15 331.259 162.163C318.481 149.974 300.48 143.118 280 141.804V140H420V141.752C399.279 143.081 381.028 150.102 368.17 162.576C388.243 169.868 402.5 188.351 402.5 210C402.5 231.696 388.182 250.211 368.04 257.471C380.985 269.888 399.316 276.869 420 278.196V280H280Z" fill="#FFEDCC"/>
<path d="M700 0C545.36 0 420 125.36 420 280C574.64 280 700 154.64 700 0Z" fill="#EDF6E0"/>
<path d="M154.772 280C183.014 273.96 205.064 250.965 210 222.214C214.936 250.965 236.986 273.96 265.228 280H280V140H265.228C236.986 146.04 214.936 169.035 210 197.786C205.064 169.035 183.014 146.04 154.772 140H140V280H154.772Z" fill="#EDF6E0"/>
<path d="M280 0H282.281C285.134 34.1673 312.21 68.2687 350 68.25C387.772 68.2313 414.796 34.2015 417.652 0H420V140H417.719C414.866 105.833 387.79 71.7313 350 71.75C312.228 71.7687 285.204 105.799 282.348 140H280V0Z" fill="#EDF6E0"/>
<path d="M0 420V418.25C76.3534 418.25 138.25 356.353 138.25 280H140V420H0Z" fill="#EDF6E0"/>
<path d="M315 350C315 369.33 299.33 385 280 385C260.67 385 245 369.33 245 350C245 330.67 260.67 315 280 315C299.33 315 315 330.67 315 350Z" fill="#EDF6E0"/>
<path d="M896.502 28C883.674 12.1643 863.464 3.32927 840 1.81482V0H980V1.76296C956.529 3.27784 936.228 12.1402 923.342 28H896.502Z" fill="#EDF6E0"/>
<path d="M896.28 112C883.547 127.86 863.471 136.722 840 138.237V140H980V138.185C956.536 136.671 936.101 127.836 923.12 112H896.28Z" fill="#EDF6E0"/>
<path d="M911.391 61.2998C900.248 65.3269 892.862 75.757 892.691 87.3114C904.742 87.3427 915.684 79.6577 919.591 67.9727L923.256 57.0094L911.391 61.2998Z" fill="#EDF6E0"/>
<path fill-rule="evenodd" clip-rule="evenodd" d="M871.5 37.7013C871.5 34.2764 874.276 31.5 877.701 31.5H942.299C945.724 31.5 948.5 34.2764 948.5 37.7013V102.299C948.5 105.724 945.724 108.5 942.299 108.5H877.701C874.276 108.5 871.5 105.724 871.5 102.299V37.7013ZM909.107 54.9817C894.277 60.3416 884.762 74.9301 886.094 90.6368C886.151 91.3051 886.22 91.9855 886.303 92.6791C886.358 93.1419 886.71 93.5112 887.171 93.5827C887.353 93.6111 887.566 93.643 887.807 93.6773C904.567 96.0661 920.607 86.1193 925.962 70.1028L933.325 48.0803C933.61 47.2266 932.784 46.4204 931.938 46.7265L909.107 54.9817Z" fill="#EDF6E0"/>
<path d="M840 0C608.04 0 420 188.04 420 420C651.96 420 840 231.96 840 0Z" fill="#F2E1D0"/>
<path d="M698.963 24.2669C580.46 66.504 486.504 160.46 444.267 278.963C579.547 267.35 687.35 159.547 698.963 24.2669Z" fill="#FDDFC1"/>
<path d="M561.037 395.733C679.54 353.496 773.496 259.54 815.733 141.037C680.453 152.65 572.65 260.453 561.037 395.733Z" fill="#FDDFC1"/>
</svg>
