<svg width="199" height="48" viewBox="0 0 199 48" fill="none" xmlns="http://www.w3.org/2000/svg">
<path d="M10.3012 2.45914C10.3012 2.4506 10.3015 2.44106 10.3015 2.43252C10.3104 2.44106 10.3193 2.45027 10.3282 2.45881C10.3193 2.45881 10.3104 2.45881 10.3012 2.45914ZM9.57605 1.56304V1.59065C9.56684 1.58145 9.55797 1.57257 9.54876 1.56304H9.57605ZM9.55238 1.5397C9.55271 1.54825 9.55271 1.55745 9.55271 1.56633H9.52575V1.5397H9.55238ZM10.4219 2.59721V2.62416C10.4127 2.61529 10.4038 2.60641 10.3946 2.59754C10.4038 2.59754 10.4127 2.59721 10.4219 2.59721ZM10.2775 2.43317C10.2867 2.43383 10.2956 2.43514 10.3048 2.43613L10.3015 2.43252C10.3015 2.44106 10.3012 2.4506 10.3012 2.45914L10.3048 2.45651C10.2956 2.44863 10.2867 2.44106 10.2775 2.43317ZM10.2535 2.38551H10.2812C10.2808 2.4026 10.2805 2.41937 10.2802 2.43679C10.2713 2.4197 10.2624 2.4026 10.2535 2.38551ZM10.3282 2.50713C10.319 2.50681 10.3104 2.50681 10.3012 2.50648C10.3025 2.48971 10.3035 2.47295 10.3048 2.45651L10.3012 2.45914C10.3104 2.45881 10.3193 2.45881 10.3282 2.45881L10.3249 2.45586C10.3262 2.47262 10.3269 2.49004 10.3282 2.50713ZM9.89688 1.32406C9.90839 1.33524 9.91989 1.34641 9.9314 1.35792L9.93436 1.35595C9.92285 1.34444 9.91135 1.33293 9.89951 1.32143L9.89688 1.32406ZM10.0465 1.47264H9.99583C9.99649 1.45587 9.99747 1.43944 9.99813 1.42367L9.99681 1.42465C10.0133 1.44043 10.03 1.45621 10.0465 1.47264ZM9.99813 1.42367C9.97676 1.40098 9.9554 1.37797 9.93436 1.35595L9.9314 1.35792C9.95342 1.3806 9.97512 1.40229 9.99681 1.42465L9.99813 1.42367ZM10.2585 2.31812H10.2309V2.29084C10.2401 2.30037 10.2493 2.30957 10.2585 2.31812ZM9.69439 1.66035H9.66711V1.63273C9.67631 1.64226 9.68519 1.65114 9.69439 1.66035ZM9.67105 1.637H9.64344V1.60939C9.65264 1.61859 9.66185 1.62813 9.67105 1.637ZM10.4698 2.62383H10.4429C10.4347 2.61595 10.4268 2.60805 10.4186 2.60016V2.54888C10.4357 2.57419 10.4528 2.59885 10.4698 2.62383ZM10.4222 2.55414C10.4057 2.54592 10.3887 2.53738 10.3719 2.52949V2.47854C10.3887 2.50385 10.4057 2.52883 10.4222 2.55414ZM10.3048 2.43613C10.3035 2.41903 10.3025 2.40194 10.3012 2.38485C10.3183 2.41016 10.3351 2.43449 10.3522 2.45947C10.343 2.45816 10.3338 2.45684 10.3249 2.45586L10.3282 2.45881C10.3193 2.45027 10.3104 2.44106 10.3015 2.43252L10.3048 2.43613ZM9.51556 8.79397C9.51721 8.77786 9.51918 8.76143 9.52115 8.74467C9.52082 8.74434 9.51918 8.74138 9.51852 8.74138C9.51721 8.75814 9.51589 8.77524 9.51425 8.79331C9.51458 8.79365 9.51524 8.79397 9.51556 8.79397ZM9.57802 8.74861C9.58657 8.73283 9.59511 8.71673 9.60333 8.70062C9.60333 8.70029 9.60136 8.69733 9.60136 8.69733C9.59314 8.71311 9.58591 8.72889 9.57868 8.74565C9.57868 8.74664 9.57802 8.74861 9.57802 8.74861ZM9.60333 8.70029C9.60333 8.70029 9.60136 8.697 9.60136 8.69733L9.60333 8.70029ZM9.87059 8.49615C9.87059 8.49878 9.87124 8.50174 9.87124 8.5047C9.86993 8.5024 9.86927 8.50043 9.8673 8.49878C9.86697 8.49911 9.87059 8.49615 9.87059 8.49615ZM9.86697 8.49911C9.87322 8.50075 9.8788 8.50305 9.88439 8.5047C9.88373 8.49944 9.88341 8.49451 9.88341 8.48991C9.87913 8.49221 9.87486 8.49385 9.87059 8.49615L9.86697 8.49911ZM11.0668 4.3733C11.0642 4.37363 11.0616 4.37396 11.0589 4.37396C11.0602 4.37297 11.0619 4.37199 11.0635 4.37067C11.0632 4.37034 11.0668 4.3733 11.0668 4.3733ZM10.9143 4.37165C10.9163 4.37132 10.9179 4.371 10.9199 4.37034C10.9186 4.37166 10.9176 4.3733 10.9166 4.37461C10.9169 4.37527 10.9143 4.37165 10.9143 4.37165ZM10.6135 3.65471C10.6004 3.64879 10.5869 3.64386 10.5727 3.63926C10.5721 3.63926 10.5695 3.64057 10.5688 3.64057C10.5823 3.64616 10.5967 3.65175 10.6109 3.65701C10.6112 3.65701 10.6135 3.65471 10.6135 3.65471ZM10.5579 3.36938L10.5616 3.37135C10.5612 3.37135 10.5579 3.36938 10.5579 3.36938ZM10.5303 3.31744C10.5297 3.31809 10.5284 3.31875 10.527 3.31941C10.5267 3.31941 10.5303 3.31744 10.5303 3.31744ZM10.1175 2.79345C10.105 2.78293 10.0928 2.77274 10.0797 2.76288C10.079 2.76288 10.0767 2.7642 10.0764 2.7642C10.0892 2.77439 10.1027 2.78524 10.1155 2.79575C10.1161 2.79609 10.1175 2.79345 10.1175 2.79345ZM10.0724 2.71818C10.0589 2.71094 10.0455 2.70306 10.0313 2.69582C10.0303 2.69615 10.028 2.69582 10.0274 2.69582C10.0415 2.70404 10.0557 2.71259 10.0701 2.72048L10.0724 2.71818ZM9.76901 2.69582L9.76539 2.69714C9.76539 2.69714 9.76506 2.69385 9.76539 2.69418C9.76572 2.69451 9.76901 2.69582 9.76901 2.69582ZM10.0274 2.66229C10.0215 2.67117 10.0152 2.67939 10.009 2.68761C10.0149 2.69024 10.0208 2.69287 10.0274 2.69582C10.028 2.69582 10.0303 2.69615 10.0303 2.69615C10.0287 2.68399 10.0271 2.67215 10.0257 2.65999C10.0257 2.65966 10.0274 2.66229 10.0274 2.66229ZM9.76572 2.69451C9.76408 2.69352 9.76178 2.69287 9.75981 2.69221C9.76276 2.69352 9.76605 2.69451 9.76901 2.69582L9.76572 2.69451ZM9.91825 2.564C9.91595 2.56335 9.91365 2.56236 9.91135 2.5617C9.91332 2.5617 9.91496 2.56236 9.91693 2.56236L9.91825 2.564ZM9.45245 8.7943C9.44686 8.80647 9.44127 8.8183 9.43601 8.83013C9.43601 8.83046 9.43897 8.83375 9.43897 8.83408C9.44456 8.82159 9.45015 8.80975 9.45541 8.79759C9.45541 8.79726 9.45245 8.7943 9.45245 8.7943ZM9.62273 2.35165C9.6247 2.34935 9.627 2.34738 9.62897 2.3454C9.62832 2.34738 9.62733 2.34967 9.62667 2.35198C9.627 2.3523 9.62273 2.35165 9.62273 2.35165ZM9.60169 2.30891C9.59676 2.32042 9.59216 2.33193 9.5869 2.3431C9.59906 2.34606 9.61056 2.34869 9.62273 2.35165L9.627 2.35231C9.64804 2.31747 9.64738 2.29708 9.5984 2.3076C9.59873 2.3076 9.60169 2.30891 9.60169 2.30891ZM9.59873 2.3076C9.59577 2.30925 9.59248 2.31056 9.5892 2.3122C9.59314 2.3145 9.59774 2.3168 9.60202 2.31943C9.60202 2.31549 9.60169 2.31253 9.60169 2.30891L9.59873 2.3076ZM9.64508 2.25895C9.64475 2.25763 9.64475 2.25599 9.64409 2.25435C9.64607 2.25599 9.64771 2.25731 9.64968 2.25895H9.64508ZM9.65001 2.25895C9.64475 2.25501 9.63982 2.2504 9.63456 2.24744C9.6339 2.24679 9.63029 2.25204 9.62799 2.25501C9.6339 2.25632 9.63949 2.25763 9.64508 2.25895H9.65001ZM9.34167 2.04988C9.34298 2.04955 9.34463 2.04923 9.34594 2.04923C9.34594 2.04955 9.34167 2.04988 9.34167 2.04988ZM9.34594 2.04955C9.33674 2.0318 9.32688 2.01405 9.31734 1.99597C9.31734 1.99597 9.31866 1.99794 9.31866 1.99729C9.31504 2.01931 9.29072 2.04988 9.34167 2.04988L9.34594 2.04955ZM9.27724 1.99531C9.29137 1.99597 9.30518 1.9963 9.31866 1.99729C9.31866 1.99794 9.31734 1.99597 9.31734 1.99597H9.2779L9.27724 1.99531ZM9.2779 1.99597C9.27691 1.98019 9.27625 1.96441 9.2756 1.94864C9.27592 1.94831 9.27724 1.94929 9.27724 1.94896C9.27757 1.96441 9.27724 1.97954 9.27724 1.99531L9.2779 1.99597ZM9.17731 1.85495C9.18125 1.84345 9.18487 1.83227 9.18848 1.82109C9.17435 1.82076 9.15956 1.82076 9.14509 1.82076C9.14476 1.82076 9.14246 1.82043 9.14246 1.82043C9.15397 1.83293 9.1658 1.84476 9.17796 1.85758L9.17731 1.85495ZM8.87883 1.45686C8.88113 1.45818 8.88343 1.45884 8.88573 1.45949C8.88409 1.45949 8.88211 1.45917 8.88014 1.45884L8.87883 1.45686ZM8.87718 1.40657C8.87784 1.42333 8.8785 1.4401 8.87883 1.45686L8.88014 1.45884C8.87915 1.44109 8.87784 1.42399 8.87653 1.40591L8.87718 1.40657ZM9.41925 8.86498C9.42582 8.85512 9.43273 8.8446 9.43897 8.83408C9.43897 8.83375 9.43601 8.83046 9.43601 8.83046C9.43042 8.84098 9.42451 8.85216 9.41892 8.86334C9.41892 8.86366 9.41925 8.86498 9.41925 8.86498ZM8.24669 1.1781C8.24472 1.17844 8.24242 1.17909 8.23979 1.17975C8.24143 1.17844 8.24275 1.17712 8.24406 1.17548C8.24439 1.17548 8.24669 1.1781 8.24669 1.1781ZM9.45541 8.79726C9.47513 8.79595 9.49518 8.79529 9.51523 8.79397L9.51458 8.79365C9.49387 8.79398 9.47316 8.79398 9.45245 8.7943L9.45541 8.79726ZM8.77758 1.30499V1.33162C8.76049 1.32275 8.74306 1.3142 8.72597 1.30533C8.74306 1.30499 8.76049 1.30499 8.77758 1.30499ZM9.57868 8.74664C9.55863 8.74467 9.53857 8.74269 9.51852 8.74138C9.51918 8.74138 9.52082 8.74434 9.52082 8.74434C9.53989 8.74565 9.55895 8.74696 9.57802 8.74861L9.57868 8.74664ZM9.41892 8.86366C9.3992 8.86564 9.37914 8.86826 9.35909 8.86991L9.36106 8.87254C9.38046 8.86991 9.39985 8.86728 9.41925 8.86498L9.41892 8.86366ZM8.62374 9.31007C8.6142 9.30908 8.60467 9.30777 8.59481 9.30678C8.60467 9.3081 8.6142 9.30941 8.62439 9.31139C8.62472 9.31237 8.62374 9.31007 8.62374 9.31007ZM9.93567 2.58866C9.93008 2.58077 9.92417 2.57222 9.91825 2.564L9.91693 2.56236C9.92351 2.57123 9.93008 2.57979 9.93633 2.58833L9.93567 2.58866ZM10.079 2.76288C10.077 2.74776 10.0747 2.73297 10.0724 2.71818L10.0701 2.72048C10.0721 2.73494 10.0741 2.74973 10.0764 2.7642C10.0767 2.7642 10.079 2.76288 10.079 2.76288ZM10.8466 4.05115C10.8505 4.07153 10.8548 4.09224 10.8584 4.11328C10.8581 4.11361 10.8604 4.11065 10.86 4.11131C10.8561 4.09093 10.8525 4.06956 10.8489 4.04852L10.8466 4.05115ZM10.8581 4.11361C10.866 4.12873 10.8735 4.14418 10.8811 4.15996C10.8808 4.16061 10.8834 4.15733 10.8831 4.15765C10.8748 4.14253 10.8673 4.12709 10.86 4.11131C10.8604 4.11065 10.8581 4.11361 10.8581 4.11361ZM10.9008 4.21387C10.8946 4.19513 10.8886 4.17705 10.8831 4.15765C10.8834 4.15733 10.8808 4.16061 10.8808 4.16061C10.8873 4.17804 10.8939 4.19579 10.9008 4.21387ZM10.9008 4.21387C10.912 4.22636 10.9232 4.23885 10.9343 4.25167L10.937 4.24838C10.9248 4.23721 10.913 4.22537 10.9008 4.21387ZM10.9343 4.25167C10.9426 4.26646 10.9511 4.28093 10.9587 4.29572L10.9619 4.29309C10.9534 4.27863 10.9449 4.26383 10.937 4.24838L10.9343 4.25167ZM10.9169 4.37527C10.9133 4.36837 10.9097 4.36081 10.9061 4.35358C10.9001 4.36048 10.8942 4.36771 10.8883 4.37396C10.8969 4.3733 10.9057 4.37264 10.9143 4.37165L10.9169 4.37527ZM11.0632 4.37034C11.0731 4.3825 11.0823 4.39401 11.0921 4.40552C11.0921 4.40584 11.0918 4.40584 11.0918 4.40584C11.0832 4.39532 11.0754 4.38415 11.0668 4.3733L11.0632 4.37034ZM11.0214 4.49559C11.0234 4.49263 11.0264 4.48966 11.0264 4.48638C11.0267 4.48375 11.0231 4.48112 11.0214 4.47915C11.0221 4.48474 11.0228 4.49033 11.0234 4.49559C11.0234 4.49592 11.0214 4.49559 11.0214 4.49559ZM11.0234 4.49591C11.026 4.49887 11.0287 4.50183 11.0313 4.50446C11.032 4.5015 11.0326 4.49855 11.0336 4.49559H11.0214L11.0234 4.49591ZM9.15364 9.01126C9.14937 9.01751 9.14706 9.02441 9.14673 9.03164C9.13227 9.03362 9.11748 9.03559 9.10302 9.03822C9.11978 9.02868 9.13687 9.02014 9.15364 9.01126ZM11.0665 4.71878C11.0635 4.7247 11.0602 4.72997 11.0576 4.73621C11.0612 4.73556 11.0652 4.73522 11.0691 4.7349C11.0671 4.72931 11.0655 4.72405 11.0639 4.71813L11.0665 4.71878ZM11.2338 4.62214C11.2335 4.62971 11.2328 4.63661 11.2328 4.64417C11.2328 4.6514 11.2338 4.65896 11.2345 4.66619C11.2325 4.65863 11.2285 4.65107 11.2285 4.64384C11.2285 4.63661 11.2315 4.62937 11.2338 4.62181V4.62214ZM11.1493 4.59551C11.147 4.60176 11.1441 4.60801 11.1418 4.61426C11.1365 4.61031 11.1276 4.60735 11.1263 4.60275C11.125 4.59749 11.1306 4.59026 11.1332 4.58401C11.1385 4.58763 11.1441 4.59157 11.1493 4.59551ZM9.52641 2.08243C9.52707 2.09065 9.52773 2.09886 9.52838 2.10675C9.52017 2.08998 9.51195 2.07322 9.50373 2.05645C9.51129 2.06533 9.51885 2.07388 9.52641 2.08243ZM7.33678 9.87022C7.32396 9.87087 7.31147 9.87186 7.29898 9.87285C7.31147 9.87153 7.32396 9.87054 7.33645 9.86956L7.33678 9.87022ZM8.77396 1.32866H8.80059C8.80881 1.3451 8.8167 1.36186 8.82492 1.37863C8.80782 1.36186 8.79106 1.3451 8.77396 1.32866ZM8.82064 1.37534C8.83741 1.37534 8.85417 1.37534 8.87126 1.37501C8.87324 1.3852 8.87521 1.39605 8.87718 1.40657L8.87653 1.40591C8.85779 1.39605 8.83938 1.38553 8.82064 1.37534ZM11.2338 4.62181C11.2226 4.61557 11.2114 4.60801 11.2003 4.60143C11.2072 4.60308 11.2151 4.60341 11.2203 4.60669C11.2259 4.61031 11.2295 4.61688 11.2338 4.62214V4.62181ZM10.1572 2.86413C10.1438 2.84079 10.1306 2.81712 10.1175 2.79345L10.1161 2.79608C10.129 2.81975 10.1418 2.8431 10.1546 2.86676C10.1546 2.86742 10.1572 2.86413 10.1572 2.86413ZM8.87159 9.15162C8.86272 9.16773 8.85417 9.18417 8.84563 9.19995C8.83083 9.20225 8.8167 9.20455 8.80223 9.20652C8.80223 9.20652 8.80486 9.2108 8.80552 9.21112C8.82755 9.19107 8.84957 9.17201 8.87159 9.15162ZM9.54712 2.11004C9.55468 2.1176 9.56159 2.12516 9.56915 2.13305C9.55468 2.12351 9.54022 2.11365 9.52575 2.10379C9.532 2.10971 9.5389 2.11136 9.54712 2.11004ZM10.6763 3.79507C10.723 3.82137 10.7299 3.85984 10.7128 3.90651V3.90618C10.7016 3.86838 10.6901 3.83057 10.6789 3.7931L10.6763 3.79507ZM8.80223 9.20652C8.76476 9.21638 8.72761 9.22592 8.69014 9.23512V9.23578C8.7286 9.22723 8.76706 9.21902 8.80552 9.21112C8.80486 9.2108 8.80223 9.20652 8.80223 9.20652ZM6.63627 9.85871C6.64285 9.86463 6.64745 9.86824 6.65172 9.87285C6.64515 9.87482 6.63857 9.87876 6.63167 9.87876C6.62543 9.87876 6.61918 9.87482 6.6126 9.87186C6.62115 9.86759 6.62904 9.86265 6.63627 9.85871ZM8.69014 9.23512C8.66811 9.2601 8.64576 9.28509 8.62374 9.31007L8.62472 9.31237C8.60467 9.2509 8.67765 9.26898 8.69014 9.23578V9.23512ZM11.288 4.89958C11.2972 4.89958 11.3064 4.89926 11.3153 4.89926C11.3137 4.91044 11.3124 4.92128 11.3107 4.93246C11.3091 4.94331 11.3071 4.95383 11.3051 4.965C11.3009 4.95415 11.2959 4.94396 11.293 4.93246C11.29 4.92161 11.2894 4.91043 11.288 4.89958ZM7.13199 9.8975C7.13298 9.89388 7.13363 9.88961 7.13429 9.88961C7.14547 9.88928 7.15664 9.88961 7.16749 9.88961C7.16683 9.89224 7.16585 9.89717 7.16486 9.89717C7.15401 9.89783 7.14317 9.8975 7.13199 9.8975ZM6.61786 9.9238C6.61096 9.92215 6.60406 9.92018 6.59716 9.91854C6.60603 9.91591 6.61491 9.91098 6.62411 9.91032C6.62838 9.90966 6.63332 9.91624 6.63825 9.91887C6.63134 9.92051 6.62477 9.92215 6.61786 9.9238ZM11.3982 5.26085C11.3939 5.25066 11.3896 5.24507 11.3899 5.23883C11.3913 5.22765 11.3952 5.21681 11.3978 5.2053C11.3995 5.21187 11.4024 5.2191 11.4024 5.22568C11.4024 5.2362 11.4001 5.24639 11.3982 5.26085ZM10.9587 4.29572C10.9764 4.31709 10.9938 4.33846 11.0113 4.3595C11.0034 4.36344 10.9958 4.36771 10.9882 4.37165C10.9794 4.34536 10.9705 4.31939 10.9619 4.29309L10.9587 4.29572ZM7.06361 9.84556C7.07906 9.84556 7.08695 9.84491 7.09418 9.84556C7.10142 9.84622 7.10832 9.84852 7.11522 9.84918C7.10766 9.84918 7.09977 9.84983 7.09221 9.84951C7.08531 9.84918 7.07841 9.84786 7.06361 9.84556ZM7.93802 9.59573C7.91731 9.60263 7.89693 9.60954 7.87655 9.61644C7.87589 9.61053 7.87326 9.60033 7.87425 9.60033C7.89397 9.59343 7.91402 9.58817 7.9344 9.58258C7.93506 9.58751 7.93638 9.59146 7.93802 9.59573ZM10.6112 3.65701C10.6326 3.70336 10.6546 3.74905 10.6763 3.79507L10.6789 3.7931C10.6572 3.74642 10.6355 3.7004 10.6135 3.65471L10.6112 3.65701ZM9.14476 1.82076C9.06686 1.82109 9.05535 1.7754 9.06981 1.71195H9.06949C9.09381 1.74811 9.11781 1.78395 9.14246 1.82043L9.14476 1.82076ZM9.27592 1.94831C9.22596 1.93516 9.18651 1.9105 9.17731 1.85495L9.17796 1.85758C9.21117 1.88815 9.24437 1.91839 9.27724 1.94896C9.27724 1.94929 9.27592 1.94831 9.27592 1.94831ZM11.2917 4.80623C11.2913 4.83844 11.2913 4.87132 11.291 4.90386C11.2779 4.87263 11.2634 4.8414 11.2525 4.80919C11.2502 4.8036 11.2608 4.79308 11.2654 4.78454C11.2742 4.79177 11.2828 4.799 11.2917 4.80623ZM9.34068 8.91955C9.33279 8.92777 9.32523 8.93598 9.31734 8.9442C9.30156 8.95209 9.28579 8.95998 9.27001 8.96754C9.25324 8.96754 9.23648 8.96754 9.21971 8.96787C9.26672 8.93598 9.31406 8.90377 9.36106 8.87254L9.35909 8.86991C9.35285 8.88667 9.34627 8.90311 9.34068 8.91955ZM11.4208 5.40187V5.48964H11.4159V5.40352C11.4176 5.40286 11.4195 5.40253 11.4208 5.40187ZM11.0639 4.71813C10.9915 4.69052 11.0201 4.61392 10.9764 4.57217C10.9853 4.56823 10.9938 4.56429 11.0024 4.56034C11.0237 4.61294 11.0451 4.66586 11.0665 4.71878L11.0639 4.71813ZM10.7128 3.90651C10.8032 3.9121 10.8147 3.99132 10.8466 4.05115L10.8489 4.04852C10.8236 4.03209 10.7933 4.02025 10.7733 3.99855C10.7486 3.97193 10.7325 3.93741 10.7128 3.90618V3.90651ZM10.1546 2.86742C10.2749 2.94368 10.3538 3.09456 10.3324 3.20567C10.3111 3.15373 10.2933 3.10048 10.2674 3.0515C10.2338 2.98707 10.1944 2.92626 10.1572 2.86413L10.1546 2.86742ZM10.5721 3.63926C10.4922 3.49462 10.412 3.35031 10.3324 3.20567V3.206C10.3545 3.21225 10.3893 3.21159 10.3972 3.22573C10.457 3.33749 10.5132 3.4509 10.5668 3.5653C10.5767 3.58667 10.5681 3.61592 10.5688 3.64057C10.5695 3.64057 10.5721 3.63926 10.5721 3.63926ZM2.17188 9.31697C2.18075 9.31665 2.1893 9.31632 2.19883 9.31632C2.1985 9.32585 2.1985 9.3344 2.19818 9.34327H2.17155C2.17188 9.33473 2.17188 9.32585 2.17188 9.31697ZM2.19423 9.3413C2.20376 9.34064 2.21297 9.34064 2.2225 9.33999C2.22184 9.34886 2.22152 9.35807 2.22086 9.36727C2.21198 9.35807 2.20311 9.34952 2.19423 9.3413ZM1.31555 8.03331C1.31785 8.03364 1.32015 8.03429 1.32213 8.03462C1.32081 8.03528 1.3195 8.03561 1.31818 8.03627C1.31818 8.0366 1.31555 8.03331 1.31555 8.03331ZM9.33838 8.91692C9.33016 8.92514 9.32195 8.93303 9.31373 8.94124L9.31734 8.9442C9.32523 8.93598 9.33279 8.92777 9.34068 8.91955L9.33838 8.91692ZM10.7289 3.51533C10.7259 3.51435 10.7223 3.51303 10.7197 3.51204C10.7217 3.51402 10.7236 3.51632 10.7256 3.51829L10.7289 3.51533ZM10.672 3.44696C10.6723 3.44926 10.6727 3.45123 10.673 3.45353C10.673 3.45221 10.6727 3.4509 10.6727 3.44992C10.6727 3.45025 10.672 3.44696 10.672 3.44696ZM10.5054 2.75532C10.5073 2.75664 10.509 2.75795 10.5109 2.75894C10.51 2.7573 10.509 2.75565 10.508 2.75401C10.507 2.75598 10.5054 2.75828 10.5044 2.75959L10.5054 2.75532ZM10.4054 2.67347C10.4202 2.68136 10.4347 2.68892 10.4498 2.69648C10.4501 2.69681 10.4531 2.69352 10.4534 2.69352C10.4386 2.68662 10.4245 2.67939 10.4097 2.67215C10.4084 2.67281 10.4054 2.67347 10.4054 2.67347ZM10.4675 2.62877C10.46 2.62844 10.4524 2.62811 10.4449 2.62811L10.4429 2.62383H10.4698L10.4675 2.62877ZM10.4449 2.62811C10.4357 2.62548 10.4274 2.62252 10.4182 2.61989L10.4219 2.62416V2.59721L10.4186 2.60016C10.4268 2.60805 10.4347 2.61595 10.4429 2.62383L10.4449 2.62811ZM10.3259 2.50352C10.3183 2.50352 10.3107 2.50385 10.3032 2.50385L10.3012 2.50648C10.3104 2.50681 10.319 2.50681 10.3282 2.50713L10.3259 2.50352ZM10.8229 2.46801C10.8206 2.46933 10.8186 2.47065 10.8167 2.47163C10.8173 2.46999 10.8183 2.46835 10.819 2.4667C10.8183 2.46637 10.8229 2.46801 10.8229 2.46801ZM10.054 2.41181L10.0642 2.41312C10.0642 2.41312 10.0573 2.41411 10.057 2.41411C10.0563 2.41411 10.054 2.41181 10.054 2.41181ZM10.0517 2.37006C10.0524 2.38387 10.053 2.39767 10.054 2.41181L10.0563 2.41411C10.0543 2.39932 10.052 2.38452 10.0501 2.36973C10.0501 2.3694 10.0517 2.37006 10.0517 2.37006ZM10.2545 2.38222C10.2631 2.3819 10.2713 2.38156 10.2798 2.38123L10.2812 2.38551H10.2535L10.2545 2.38222ZM10.0501 2.3694C10.0481 2.37006 10.0458 2.37072 10.0438 2.37104C10.0465 2.37072 10.0491 2.37006 10.0517 2.37006L10.0501 2.3694ZM10.1691 2.35362C10.1842 2.3556 10.1993 2.35757 10.2144 2.35954C10.2148 2.35921 10.2177 2.35658 10.218 2.35625C10.2026 2.35461 10.1865 2.35329 10.1704 2.35231C10.1697 2.35231 10.1691 2.35362 10.1691 2.35362ZM10.2558 2.32305C10.2483 2.32305 10.2407 2.32239 10.2332 2.32206C10.2332 2.32239 10.2309 2.31812 10.2309 2.31812H10.2585L10.2558 2.32305ZM10.2332 2.32239C10.2319 2.3122 10.2305 2.30168 10.2289 2.2915C10.2286 2.29182 10.2309 2.29084 10.2309 2.29084V2.31812L10.2332 2.32239ZM10.1796 2.28854C10.1651 2.28032 10.1507 2.27177 10.1365 2.26289C10.1362 2.26257 10.1336 2.26552 10.1336 2.26552C10.1474 2.27341 10.1618 2.28131 10.177 2.28854C10.1776 2.28821 10.1796 2.28854 10.1796 2.28854ZM10.1362 2.26256C10.1244 2.25895 10.1129 2.25501 10.1004 2.25073C10.0994 2.25106 10.0977 2.25007 10.0971 2.25007C10.1089 2.25566 10.1211 2.26059 10.1336 2.26552L10.1362 2.26256ZM10.0379 2.1508C10.0504 2.15869 10.0629 2.16724 10.0751 2.17611C10.0754 2.17611 10.079 2.17315 10.0793 2.17315C10.0668 2.16461 10.054 2.15573 10.0412 2.14718L10.0379 2.1508ZM10.0096 2.12549C10.0192 2.13371 10.0287 2.14225 10.0379 2.1508L10.0412 2.14718C10.0313 2.13929 10.0215 2.13173 10.0116 2.12352C10.0113 2.12352 10.0096 2.12549 10.0096 2.12549ZM10.0767 2.10675C10.0793 2.10872 10.082 2.11004 10.0849 2.11234C10.082 2.11201 10.0797 2.11168 10.077 2.11135C10.0767 2.11168 10.0767 2.10675 10.0767 2.10675ZM10.011 10.0306C10.0086 10.0316 10.006 10.0323 10.0037 10.0333C10.005 10.0319 10.0063 10.0306 10.0077 10.029C10.0077 10.0283 10.011 10.0306 10.011 10.0306ZM9.99386 2.09623C9.99912 2.10609 10.0044 2.11596 10.0096 2.12549L10.0113 2.12352C10.0054 2.11333 9.99977 2.10379 9.99386 2.0936V2.09623ZM9.55205 2.10445C9.55994 2.11201 9.56816 2.11957 9.57572 2.12746L9.56915 2.13305C9.56159 2.12516 9.55468 2.1176 9.54712 2.11004L9.55205 2.10445ZM9.53167 2.07749C9.53857 2.0867 9.54515 2.09525 9.55205 2.10445L9.54712 2.11004C9.5389 2.11136 9.532 2.10971 9.52575 2.10379L9.52838 2.10675C9.52773 2.09886 9.52707 2.09065 9.52641 2.08243L9.53167 2.07749ZM9.50373 2.05843C9.51293 2.06468 9.52247 2.07092 9.53167 2.07749L9.52641 2.08243C9.51885 2.07388 9.51129 2.06533 9.50373 2.05645V2.05843ZM9.94126 2.0318C9.95474 2.04166 9.96854 2.05251 9.98268 2.06303C9.98301 2.06303 9.98531 2.06106 9.98531 2.06106C9.97183 2.05054 9.9577 2.04002 9.94389 2.0295C9.94356 2.02917 9.94126 2.0318 9.94126 2.0318ZM9.94356 2.02917C9.93699 2.02161 9.93074 2.01372 9.92384 2.00484C9.92384 2.00484 9.92088 2.00813 9.92088 2.0078C9.92778 2.01537 9.93436 2.02358 9.94126 2.0318L9.94356 2.02917ZM9.92384 2.00484C9.91266 2.00024 9.90149 1.99597 9.88932 1.99137C9.88866 1.99137 9.88702 1.99005 9.88669 1.99005C9.89787 1.9963 9.90938 2.00189 9.92088 2.0078C9.92088 2.00813 9.92384 2.00484 9.92384 2.00484ZM9.88867 1.99137C9.89031 1.98972 9.89195 1.98775 9.8936 1.98677C9.8913 1.98743 9.88866 1.98874 9.88669 1.99005C9.88702 1.99005 9.88867 1.99137 9.88867 1.99137ZM10.4478 1.96212C10.4383 1.95587 10.4284 1.94864 10.4192 1.94272L10.4238 1.93779C10.4307 1.94666 10.438 1.95586 10.4449 1.96441L10.4478 1.96212ZM9.70589 1.92596C9.70326 1.92661 9.70096 1.92661 9.69833 1.92727L9.70524 1.9253L9.70589 1.92596ZM9.80714 1.86875C9.80944 1.87007 9.81207 1.87138 9.81437 1.87303C9.81306 1.87204 9.81174 1.87105 9.8101 1.8704L9.80714 1.86875ZM9.60662 1.88322C9.60925 1.88322 9.61188 1.88289 9.61451 1.88256C9.61287 1.88322 9.61089 1.88421 9.60925 1.88552L9.60662 1.88322ZM10.3374 1.85034C10.3509 1.85692 10.3637 1.86382 10.3771 1.8704C10.3775 1.8704 10.3804 1.8681 10.3804 1.86777C10.3676 1.86119 10.3545 1.85462 10.3413 1.84805C10.341 1.84805 10.3374 1.85034 10.3374 1.85034ZM9.8101 1.8704C9.80057 1.85955 9.79103 1.84837 9.78117 1.8372C9.78117 1.8372 9.77887 1.83884 9.77854 1.83851C9.78808 1.84837 9.79761 1.85856 9.80714 1.86875L9.8101 1.8704ZM10.341 1.84805C10.3367 1.83556 10.3324 1.82306 10.3285 1.8109C10.3285 1.81057 10.3301 1.81287 10.3305 1.81287C10.3328 1.82503 10.3351 1.83785 10.3374 1.85034L10.341 1.84805ZM9.75685 1.81748C9.76408 1.82438 9.77131 1.83161 9.77854 1.83851C9.77887 1.83884 9.78117 1.8372 9.78117 1.8372C9.77361 1.82997 9.76638 1.82273 9.75915 1.81583C9.75882 1.81583 9.75685 1.81748 9.75685 1.81748ZM9.75882 1.81583C9.75257 1.80794 9.746 1.80038 9.73942 1.79249C9.73942 1.79249 9.7368 1.79545 9.7368 1.79512C9.74337 1.80268 9.75027 1.81024 9.75685 1.81748L9.75882 1.81583ZM9.70359 1.78066C9.71477 1.78559 9.72562 1.79019 9.7368 1.79512C9.7368 1.79545 9.73942 1.79249 9.73942 1.79249C9.72891 1.78756 9.71839 1.78263 9.70754 1.77836C9.70721 1.77868 9.70359 1.78066 9.70359 1.78066ZM9.70721 1.77868C9.70425 1.76586 9.70162 1.75337 9.69899 1.73989C9.69932 1.73957 9.69768 1.7422 9.69801 1.74154C9.69998 1.75436 9.70195 1.76751 9.70359 1.78066L9.70721 1.77868ZM9.65264 1.73891C9.66776 1.7399 9.68321 1.74023 9.69801 1.74154C9.69768 1.7422 9.69932 1.73957 9.69932 1.73957C9.68387 1.73957 9.66842 1.73957 9.65264 1.73924V1.73891ZM9.65264 1.73924C9.64968 1.72707 9.6464 1.71491 9.64311 1.70275L9.64048 1.70472C9.64475 1.7159 9.6487 1.7274 9.65264 1.73891V1.73924ZM10.2286 1.70998C10.221 1.70143 10.2138 1.69355 10.2065 1.685L10.2138 1.67711C10.221 1.68566 10.2279 1.69453 10.2351 1.70308L10.2286 1.70998ZM9.64311 1.70275C9.64048 1.70176 9.63719 1.70111 9.63522 1.69913C9.6339 1.69848 9.63522 1.69519 9.63555 1.69256C9.63719 1.69716 9.63883 1.70045 9.64048 1.70472L9.64311 1.70275ZM10.1848 1.65969C10.1947 1.6656 10.2042 1.67152 10.2138 1.67711L10.2065 1.685C10.1996 1.67579 10.1931 1.66725 10.1862 1.65805L10.1848 1.65969ZM8.09942 9.89356C8.09877 9.89158 8.09844 9.88961 8.09778 9.8883C8.09942 9.88862 8.10041 9.88895 8.10139 9.88961L8.09942 9.89356ZM9.69143 1.6656C9.6865 1.65969 9.68157 1.65377 9.67697 1.64785C9.67467 1.65344 9.67236 1.65936 9.67039 1.66528L9.66711 1.66035H9.69439L9.69143 1.6656ZM10.1862 1.65805C10.1783 1.65015 10.1704 1.64259 10.1628 1.63438L10.1608 1.63635C10.1691 1.64424 10.177 1.65179 10.1848 1.65969L10.1862 1.65805ZM9.67039 1.66528C9.66185 1.65476 9.6533 1.64424 9.64475 1.63306L9.64344 1.637H9.67105L9.66711 1.63273V1.66035L9.67039 1.66528ZM10.1369 1.61301C10.1447 1.6209 10.153 1.62879 10.1608 1.63635L10.1628 1.63438C10.1546 1.62648 10.147 1.6186 10.1392 1.61071L10.1369 1.61301ZM9.64475 1.63306C9.63062 1.62879 9.61714 1.62419 9.60268 1.61991V1.61958C9.6178 1.61728 9.63325 1.61531 9.64837 1.61235L9.64344 1.60939V1.637L9.64475 1.63306ZM10.1073 1.59131C10.1171 1.59854 10.127 1.60577 10.1369 1.61301L10.1392 1.61071C10.1299 1.60348 10.1201 1.59591 10.1106 1.58901L10.1073 1.59131ZM9.60728 1.57093C9.60563 1.58737 9.60432 1.60347 9.60268 1.61958C9.60399 1.60347 9.60498 1.58704 9.60596 1.5706L9.60728 1.57093ZM10.1106 1.58901C10.102 1.58211 10.0931 1.57553 10.0843 1.56896C10.0839 1.56896 10.0803 1.57126 10.08 1.57126C10.0889 1.57816 10.0981 1.58474 10.1073 1.59131L10.1106 1.58901ZM9.60596 1.5706C9.59479 1.57652 9.58361 1.58244 9.57243 1.58803L9.57605 1.59065V1.56304L9.57243 1.56567C9.58427 1.56731 9.59577 1.56929 9.60728 1.57093L9.60596 1.5706ZM10.0839 1.56896L10.0662 1.54102L10.0635 1.54332C10.0688 1.55252 10.0741 1.56206 10.08 1.57126C10.0803 1.57126 10.0839 1.56896 10.0839 1.56896ZM9.54909 1.54233C9.55698 1.55022 9.56487 1.55778 9.57243 1.56567L9.57605 1.56304H9.54876L9.55271 1.56633C9.55271 1.55745 9.55271 1.54825 9.55238 1.5397L9.54909 1.54233ZM9.52181 1.56469C9.52444 1.5591 9.52838 1.55384 9.53003 1.54825C9.53036 1.54694 9.52477 1.54365 9.52181 1.54102L9.52575 1.5397V1.56633L9.52181 1.56469ZM9.52181 1.54102C9.52773 1.52984 9.53364 1.51834 9.53956 1.5065C9.53989 1.50618 9.53726 1.50814 9.53792 1.50748C9.54219 1.51899 9.54548 1.5305 9.54909 1.54233L9.55238 1.5397H9.52575L9.52181 1.54102ZM10.1336 1.52228C10.1276 1.51308 10.1217 1.50354 10.1155 1.49335C10.1161 1.49335 10.1142 1.49466 10.1142 1.49466C10.1244 1.50058 10.1346 1.50618 10.1444 1.51143C10.1411 1.51538 10.1372 1.51899 10.1336 1.52228ZM9.53989 1.50617C9.53923 1.50354 9.53857 1.50059 9.53792 1.49796C9.53562 1.4996 9.53364 1.50124 9.53134 1.50256C9.53364 1.5042 9.53594 1.50584 9.53792 1.50748C9.53726 1.50814 9.53989 1.50617 9.53989 1.50617ZM9.46264 1.48875C9.46691 1.49565 9.47119 1.50289 9.47513 1.51012C9.46856 1.50584 9.46165 1.50124 9.45475 1.49697L9.46264 1.48875ZM2.21889 9.36464H2.24617C2.23729 9.37319 2.22809 9.38206 2.21921 9.39094C2.21921 9.38206 2.21889 9.37319 2.21889 9.36464ZM9.37651 1.42103C9.39098 1.43056 9.40544 1.44076 9.4199 1.4516C9.42056 1.4516 9.42286 1.45029 9.42319 1.45062C9.4084 1.43977 9.39361 1.42958 9.37849 1.41939C9.37816 1.41906 9.37651 1.42103 9.37651 1.42103ZM2.31947 9.37319C2.32375 9.39094 2.32835 9.40836 2.33262 9.42611C2.33262 9.42644 2.33328 9.42381 2.33295 9.42381C2.32802 9.40737 2.32342 9.38962 2.31915 9.37154C2.31915 9.37089 2.31947 9.37319 2.31947 9.37319ZM2.37339 9.4317C2.35991 9.4294 2.3461 9.42677 2.33295 9.42381C2.33328 9.42381 2.33262 9.42644 2.33262 9.42644C2.34479 9.4294 2.35695 9.4317 2.36944 9.43367C2.3701 9.43367 2.37339 9.4317 2.37339 9.4317ZM2.52328 9.5908C2.52558 9.58948 2.52789 9.58817 2.53019 9.58653C2.52887 9.58817 2.52821 9.59014 2.52723 9.59211C2.52756 9.59244 2.52328 9.5908 2.52328 9.5908ZM2.52756 9.59244C2.52065 9.57403 2.51342 9.55497 2.50619 9.53623C2.50652 9.5359 2.50849 9.53623 2.50849 9.5359C2.51375 9.55398 2.51835 9.57272 2.52328 9.5908L2.52756 9.59244ZM8.77396 1.30697C8.78218 1.31551 8.7904 1.3234 8.79796 1.33129L8.80059 1.32866H8.77396L8.77758 1.33162V1.30499L8.77396 1.30697ZM8.1415 0.751421C8.14183 0.754051 8.14216 0.755698 8.14216 0.75767C8.14051 0.755371 8.1392 0.753065 8.13723 0.750763C8.1369 0.750763 8.1415 0.751421 8.1415 0.751421ZM2.46115 9.53821C2.47693 9.53722 2.49304 9.53656 2.50849 9.5359C2.50849 9.53623 2.50652 9.5359 2.50652 9.5359C2.49173 9.53689 2.47693 9.53788 2.46181 9.53886L2.46115 9.53821ZM8.19903 0.775091C8.19738 0.777062 8.19607 0.778706 8.19475 0.780678C8.19541 0.778379 8.19672 0.776404 8.19738 0.774102L8.19903 0.775091ZM9.4347 0.78857C9.43766 0.792844 9.44061 0.796786 9.4439 0.80106C9.43897 0.79843 9.43437 0.796132 9.42977 0.793829L9.4347 0.78857ZM9.17632 1.18764C9.18552 1.19389 9.1944 1.20078 9.2036 1.20703C9.19999 1.21098 9.19605 1.21493 9.19243 1.21887C9.18487 1.21065 9.17731 1.20243 9.16975 1.19389L9.17632 1.18764ZM2.46181 9.53886C2.46214 9.52308 2.46214 9.50665 2.46247 9.49087C2.46247 9.49087 2.46313 9.4912 2.46346 9.4912C2.4628 9.50665 2.46214 9.52243 2.46115 9.53821L2.46181 9.53886ZM4.60772 9.49613C4.61035 9.49514 4.61265 9.4935 4.61528 9.49251C4.61397 9.49415 4.61232 9.49613 4.61101 9.4981C4.61101 9.49843 4.60772 9.49613 4.60772 9.49613ZM2.46247 9.49087C2.44768 9.44945 2.43519 9.47969 2.42204 9.49185C2.42204 9.49218 2.41974 9.49054 2.41941 9.49054C2.4342 9.4912 2.44899 9.4912 2.46346 9.4912C2.46313 9.4912 2.46247 9.49087 2.46247 9.49087ZM8.95739 1.17515C8.95936 1.17416 8.96134 1.1735 8.96331 1.17252C8.96265 1.17383 8.96232 1.17548 8.96199 1.17712C8.96232 1.17712 8.95739 1.17515 8.95739 1.17515ZM4.61101 9.49843C4.61002 9.47969 4.60904 9.46161 4.60772 9.44287H4.60838C4.60805 9.46063 4.60805 9.47838 4.60772 9.49613L4.61101 9.49843ZM8.94588 1.1242C8.9495 1.14096 8.95345 1.15805 8.95739 1.17515L8.96232 1.17712C8.95575 1.1597 8.94983 1.14194 8.94391 1.1242H8.94588ZM9.51984 0.9434L9.51359 0.945372L9.51425 0.939454L9.51984 0.9434ZM8.94391 1.1242C8.94227 1.12518 8.94096 1.12617 8.93964 1.12715C8.94161 1.12617 8.94358 1.12518 8.94588 1.1242H8.94391ZM7.49457 1.12584C7.49687 1.12617 7.4995 1.12683 7.5018 1.12781C7.50016 1.12781 7.49852 1.12847 7.49687 1.12912L7.49457 1.12584ZM7.49687 1.12912C7.49884 1.12847 7.50082 1.12716 7.50279 1.12617C7.50016 1.12584 7.49753 1.12584 7.49457 1.12584L7.49687 1.12912ZM7.65039 1.05779C7.64841 1.05516 7.64677 1.05287 7.64513 1.05024C7.64644 1.05385 7.64743 1.05648 7.64907 1.0601L7.65039 1.05779ZM2.3701 9.43367C2.3724 9.44748 2.3747 9.46161 2.37733 9.47542C2.37733 9.47575 2.37634 9.47509 2.37634 9.47509C2.37536 9.46063 2.37437 9.44616 2.37339 9.4317L2.3701 9.43367ZM8.16254 1.09724C8.14774 1.08836 8.13295 1.07982 8.11849 1.07028L8.11652 1.07292C8.13394 1.0785 8.15136 1.08442 8.16878 1.09001L8.16254 1.09724ZM8.11849 1.07028C8.11159 1.06897 8.10435 1.06798 8.09745 1.06634C8.10074 1.06239 8.10402 1.05878 8.10731 1.05516C8.11027 1.06075 8.11323 1.06733 8.11652 1.07292L8.11849 1.07028ZM7.73618 1.01342H7.72698C7.72961 1.01276 7.73224 1.0121 7.73487 1.01144C7.73487 1.01111 7.73618 1.01342 7.73618 1.01342ZM2.37733 9.47575C2.39147 9.48035 2.40527 9.48561 2.41941 9.49054C2.41974 9.49054 2.42204 9.49219 2.42204 9.49219C2.40659 9.4866 2.39147 9.48101 2.37634 9.47509L2.37733 9.47575ZM8.46562 1.15181C8.46003 1.15115 8.45444 1.15115 8.44886 1.15115C8.44918 1.15411 8.44984 1.15674 8.45017 1.16036C8.45543 1.15608 8.4597 1.15247 8.46431 1.14885C8.46431 1.14852 8.46562 1.15181 8.46562 1.15181ZM8.74175 0.847742C8.72038 0.845112 8.69869 0.842479 8.67699 0.840176C8.67666 0.840508 8.67403 0.843141 8.6737 0.843468C8.69507 0.846425 8.71677 0.848396 8.73978 0.85004C8.73978 0.849709 8.74175 0.847742 8.74175 0.847742ZM8.1369 0.750763C8.15761 0.758651 8.17832 0.767202 8.19903 0.775091L8.19738 0.774102C8.19278 0.758651 8.18818 0.743205 8.18358 0.727755C8.16977 0.735974 8.15563 0.743532 8.1415 0.751421L8.1369 0.750763ZM8.48764 0.708689C8.48337 0.704746 8.4791 0.701127 8.4745 0.697185C8.47384 0.703099 8.47351 0.708685 8.47285 0.714603C8.47745 0.711646 8.48239 0.709016 8.48666 0.706056L8.48764 0.708689ZM6.89728 11.1595L6.90353 11.1634L6.89596 11.1657L6.89728 11.1595ZM9.99386 2.09327C9.99123 2.08242 9.98827 2.07191 9.98531 2.06106L9.98301 2.06303C9.98662 2.07421 9.99024 2.08538 9.99386 2.09623V2.09327ZM10.1697 2.35231C10.1733 2.33094 10.1763 2.31023 10.1796 2.28854L10.1776 2.2882C10.1747 2.31023 10.1717 2.33193 10.1691 2.35362L10.1697 2.35231ZM10.2798 2.38123C10.2884 2.38354 10.2969 2.38617 10.3055 2.3888C10.3058 2.3888 10.3012 2.38485 10.3012 2.38485C10.3025 2.40194 10.3035 2.41903 10.3048 2.43613C10.2956 2.43514 10.2867 2.43383 10.2775 2.43317L10.2802 2.43679C10.2805 2.41937 10.2808 2.4026 10.2812 2.38551L10.2798 2.38123ZM10.8183 2.46637C10.8239 2.47163 10.8291 2.47722 10.8344 2.48248C10.836 2.47755 10.838 2.47229 10.84 2.46703C10.8341 2.46736 10.8285 2.46769 10.8229 2.46801L10.8183 2.46637ZM1.31818 8.03659C1.31687 8.01161 1.31522 7.98597 1.31391 7.96099C1.31457 7.98531 1.3149 8.00931 1.31555 8.03331L1.31818 8.03659ZM1.28893 7.91201C1.29747 7.92844 1.30569 7.94455 1.31391 7.96099H1.31358C1.30471 7.94521 1.2955 7.92976 1.28663 7.91332C1.28663 7.91299 1.28893 7.91201 1.28893 7.91201ZM10.4501 2.69681C10.4537 2.71325 10.458 2.72968 10.4616 2.74677C10.4613 2.74677 10.4639 2.74414 10.4636 2.74447C10.46 2.72771 10.4567 2.71095 10.4534 2.69352C10.4531 2.69352 10.4501 2.69681 10.4501 2.69681ZM1.08117 7.73614C1.08019 7.7299 1.0792 7.72431 1.07789 7.71839C1.07986 7.72365 1.08216 7.72858 1.08413 7.73417C1.08479 7.73417 1.08117 7.73614 1.08117 7.73614ZM10.4465 2.96932C10.4514 2.992 10.4564 3.01502 10.4616 3.03901C10.4613 3.03967 10.4613 3.03737 10.461 3.03835C10.4564 3.01501 10.4518 2.99102 10.4475 2.96735L10.4465 2.96932ZM10.4613 3.03967C10.4735 3.0469 10.4856 3.05479 10.4978 3.06235C10.4942 3.06597 10.4906 3.06892 10.4869 3.07188C10.4784 3.06104 10.4695 3.05019 10.461 3.03835C10.4613 3.03737 10.4613 3.03967 10.4613 3.03967ZM10.7959 3.35097C10.7996 3.37102 10.8035 3.39173 10.8071 3.41178C10.8042 3.39107 10.8009 3.37003 10.7979 3.349L10.7959 3.35097ZM10.6529 3.39601C10.6592 3.41244 10.6658 3.42986 10.672 3.44696L10.6727 3.45024C10.6671 3.43118 10.6618 3.41178 10.6562 3.39305L10.6529 3.39601ZM10.8946 3.51632C10.8886 3.49396 10.8824 3.47194 10.8765 3.44959L10.8768 3.44992C10.8817 3.4726 10.8867 3.49561 10.8916 3.51862L10.8946 3.51632ZM10.8916 3.51862C10.8952 3.53736 10.8992 3.55642 10.9024 3.57582C10.9018 3.57647 10.9038 3.5745 10.9034 3.57516C10.9001 3.55577 10.8972 3.53604 10.8946 3.51632L10.8916 3.51862ZM10.9018 3.57647C10.911 3.59357 10.9202 3.61033 10.9294 3.62775H10.9284C10.9199 3.61 10.9113 3.59258 10.9034 3.57516C10.9038 3.5745 10.9018 3.57647 10.9018 3.57647ZM10.9951 3.66556C10.9958 3.69153 10.9968 3.7175 10.9974 3.74445C10.9971 3.74478 10.9981 3.74314 10.9978 3.74379C10.9965 3.71816 10.9958 3.69186 10.9948 3.66523L10.9951 3.66556ZM10.9971 3.74478C10.9955 3.75037 10.9942 3.75596 10.9925 3.76155C10.9978 3.76089 11.0034 3.76056 11.0093 3.7599C11.005 3.75464 11.0014 3.74971 10.9978 3.74379C10.9981 3.74314 10.9971 3.74478 10.9971 3.74478ZM10.937 3.91605C10.9297 3.89961 10.9225 3.88252 10.9149 3.86608L10.913 3.86772C10.9202 3.88482 10.9278 3.90125 10.935 3.91769L10.937 3.91605ZM10.9547 3.97062C10.9485 3.95221 10.9429 3.9338 10.937 3.91605L10.935 3.91769C10.9409 3.93577 10.9468 3.95451 10.9524 3.97259C10.9521 3.97324 10.9547 3.97062 10.9547 3.97062ZM10.982 4.01203C10.9728 3.99823 10.9633 3.98442 10.9547 3.97062L10.9521 3.97324C10.9616 3.98672 10.9705 4.0002 10.9794 4.01433L10.982 4.01203ZM11.0366 4.09553C11.0418 4.11459 11.0471 4.13399 11.052 4.15306L11.0543 4.15108C11.0491 4.13235 11.0441 4.11229 11.0389 4.09323C11.0392 4.09257 11.0366 4.09553 11.0366 4.09553ZM9.31373 8.94124C9.29795 8.94913 9.28217 8.95702 9.26639 8.96491L9.27001 8.96754C9.28579 8.95998 9.30156 8.95209 9.31734 8.9442L9.31373 8.94124ZM1.07526 7.12406C1.07591 7.1211 1.07657 7.11749 1.07723 7.1142C1.07986 7.11814 1.08347 7.12176 1.08578 7.1257C1.0861 7.12702 1.08183 7.13063 1.07986 7.13294C1.07789 7.12998 1.07657 7.12702 1.07526 7.12406ZM1.09202 7.48664C1.08282 7.46429 1.07361 7.44128 1.06441 7.4186L1.07164 7.41268C1.07789 7.43799 1.0838 7.4633 1.09005 7.48861L1.09202 7.48664ZM1.09005 7.48861C1.09728 7.51228 1.1055 7.53529 1.11339 7.55896L1.11602 7.55699C1.1078 7.53365 1.09991 7.50998 1.09202 7.48664L1.09005 7.48861ZM9.77953 2.06698C9.79169 2.06632 9.80418 2.06533 9.81667 2.06467C9.81602 2.07059 9.81569 2.07618 9.81536 2.08177C9.80418 2.07552 9.79334 2.06895 9.78216 2.06336C9.78183 2.06336 9.77953 2.06698 9.77953 2.06698ZM9.57243 1.58803C9.55567 1.58014 9.53857 1.57258 9.52181 1.56469L9.52575 1.56633H9.55271L9.54876 1.56304C9.55797 1.57257 9.56684 1.58145 9.57605 1.59065L9.57243 1.58803ZM9.42056 1.4516C9.4347 1.46377 9.4485 1.47659 9.46264 1.48875L9.45475 1.49697C9.44423 1.48119 9.43404 1.46607 9.42319 1.45062C9.42286 1.45029 9.42056 1.4516 9.42056 1.4516ZM8.14873 0.0998938C8.14906 0.0972642 8.14906 0.0926596 8.15005 0.0926596C8.15366 0.0920012 8.15761 0.0926633 8.16122 0.0929906C8.16089 0.0956202 8.16089 0.100548 8.16024 0.100548C8.15629 0.100879 8.15268 0.100548 8.14873 0.0998938ZM1.05488 6.95345C1.05718 6.96824 1.06013 6.98303 1.06178 6.99816C1.06276 7.00506 1.06112 7.01262 1.06079 7.01985C1.05685 7.01229 1.04962 7.00506 1.04962 6.9975C1.04929 6.98271 1.0529 6.96759 1.0552 6.95214C1.05553 6.95148 1.05488 6.95345 1.05488 6.95345ZM11.4928 5.21976C11.4905 5.21976 11.4863 5.22042 11.4863 5.21976C11.4856 5.2168 11.4849 5.21319 11.4856 5.21023C11.4859 5.20727 11.4882 5.2053 11.4899 5.20201C11.4905 5.20793 11.4915 5.21385 11.4928 5.21976ZM11.2887 4.80722C11.2966 4.8391 11.3045 4.87099 11.3124 4.90353L11.3153 4.89926C11.3064 4.89926 11.2972 4.89958 11.288 4.89958L11.291 4.90386C11.2913 4.87132 11.2913 4.83844 11.2917 4.80623L11.2887 4.80722ZM10.9294 3.62775C10.9514 3.64024 10.9728 3.65274 10.9951 3.66556L10.9948 3.66523C10.9725 3.65274 10.9504 3.64024 10.9284 3.62775H10.9294ZM10.8071 3.41178C10.8305 3.42493 10.8535 3.4371 10.8768 3.44992L10.8765 3.44959C10.8531 3.43709 10.8305 3.4246 10.8071 3.41178ZM10.3745 2.57682C10.3745 2.56006 10.3745 2.54362 10.3748 2.5262L10.3719 2.52949C10.3887 2.53738 10.4057 2.54592 10.4222 2.55414L10.4186 2.54888V2.60016L10.4219 2.59721C10.4127 2.59721 10.4038 2.59754 10.3946 2.59754L10.3985 2.60115C10.3893 2.59162 10.3801 2.58275 10.3709 2.57354L10.3745 2.57682ZM10.3748 2.5262C10.3584 2.51897 10.3423 2.51075 10.3259 2.50352L10.3282 2.50713C10.3269 2.49004 10.3262 2.47262 10.3249 2.45586C10.3338 2.45684 10.343 2.45816 10.3522 2.45947L10.3476 2.4552C10.3571 2.46473 10.3663 2.47394 10.3758 2.48314L10.3719 2.47854V2.52949L10.3748 2.5262ZM10.0754 2.17611C10.0826 2.20044 10.0895 2.22542 10.0971 2.25007C10.0977 2.25007 10.0994 2.25106 10.0994 2.25106C10.0928 2.22476 10.0862 2.19912 10.0793 2.17315C10.079 2.17315 10.0754 2.17611 10.0754 2.17611ZM7.88049 0.0239552C7.85748 0.0275704 7.83447 0.0305311 7.81113 0.033819C7.81113 0.0292144 7.81113 0.0246173 7.8108 0.0200127C7.83414 0.0213294 7.85715 0.0226423 7.88016 0.0242863L7.88049 0.0239552ZM10.3775 1.8704C10.3929 1.89275 10.408 1.91543 10.4238 1.93779L10.4192 1.94272C10.4061 1.91774 10.3936 1.89243 10.3804 1.86777C10.3804 1.8681 10.3775 1.8704 10.3775 1.8704ZM8.84431 0.931893C8.86831 0.947016 8.8923 0.962793 8.9163 0.978571L8.91827 0.975945C8.8946 0.960164 8.87061 0.945041 8.84661 0.92959L8.84431 0.931893ZM8.70263 1.25996C8.7263 1.27574 8.75029 1.29152 8.77396 1.30697L8.77758 1.30499C8.76049 1.30499 8.74306 1.30499 8.72597 1.30533L8.73024 1.30861C8.72104 1.29908 8.71183 1.28987 8.70263 1.28067L8.7069 1.2856C8.70657 1.27607 8.70657 1.26653 8.70657 1.25733L8.70263 1.25996ZM8.79796 1.33129C8.82229 1.34707 8.84563 1.36285 8.86962 1.37863L8.87126 1.37501C8.85417 1.37534 8.83741 1.37534 8.82064 1.37534L8.82492 1.37863C8.8167 1.36186 8.80881 1.3451 8.80059 1.32866L8.79796 1.33129ZM10.7552 3.25137C10.7687 3.2849 10.7821 3.31744 10.7959 3.35097L10.7979 3.349C10.7802 3.31941 10.7627 3.28983 10.7453 3.26057C10.7486 3.25728 10.7519 3.25432 10.7552 3.25137ZM10.0662 1.54102C10.0435 1.51702 10.0205 1.49336 9.9978 1.46903L9.99583 1.47264H10.0465L10.0422 1.46837C10.0514 1.47823 10.0606 1.48743 10.0698 1.49631L10.0665 1.49204C10.0655 1.5088 10.0642 1.52623 10.0635 1.54332L10.0662 1.54102ZM10.1444 1.51143C10.1618 1.5305 10.1789 1.54957 10.196 1.56863C10.1914 1.57257 10.1822 1.58014 10.1819 1.5798C10.1651 1.56107 10.1497 1.542 10.1336 1.52228C10.1372 1.51899 10.1411 1.51538 10.1444 1.51143ZM9.55567 0.910852C9.54876 0.900003 9.54318 0.890474 9.53726 0.88061C9.54351 0.879297 9.55139 0.876009 9.55534 0.877984C9.56158 0.881599 9.56619 0.889161 9.56849 0.895733C9.56915 0.899021 9.56159 0.904607 9.55567 0.910852ZM8.67666 0.840507C8.64182 0.82736 8.60697 0.814208 8.57213 0.80106H8.5718C8.61387 0.795801 8.66351 0.772134 8.6737 0.843468C8.67403 0.843141 8.67666 0.840507 8.67666 0.840507ZM11.0392 4.09257C11.0201 4.06594 11.0011 4.03899 10.982 4.01203L10.9794 4.01433C10.9984 4.04162 11.0178 4.06857 11.0366 4.09553L11.0392 4.09257ZM7.61883 0.000292596C7.62968 0.000292596 7.63362 -0.000365744 7.63757 0.000292596C7.63921 0.000619885 7.64052 0.00291843 7.64217 0.00423511C7.63724 0.00324572 7.63099 0.00226385 7.61883 0.000292596ZM0.980255 6.2651C0.980912 6.25886 0.982227 6.25228 0.982885 6.24538C0.986172 6.24932 0.991431 6.25327 0.992089 6.25754C0.992746 6.26412 0.990445 6.27102 0.989459 6.27792C0.986501 6.27365 0.983214 6.26971 0.980255 6.2651ZM1.05553 6.95148C1.01083 6.90776 1.022 6.85746 1.03745 6.80618H1.03712C1.04304 6.85549 1.04896 6.90414 1.05488 6.95345L1.05553 6.95148ZM10.4449 1.96441C10.4652 1.98381 10.4853 2.00255 10.5054 2.02194C10.4978 2.02753 10.4899 2.03311 10.482 2.0387C10.4705 2.01339 10.4593 1.98743 10.4478 1.96212L10.4449 1.96441ZM10.4182 2.61989C10.4143 2.63764 10.41 2.65572 10.4054 2.67347L10.4084 2.67281C10.3949 2.65539 10.3781 2.63961 10.3693 2.61989C10.3643 2.60871 10.3722 2.59096 10.3745 2.57682L10.3709 2.57354C10.3801 2.58275 10.3893 2.59162 10.3985 2.60115L10.3946 2.59754C10.4038 2.60641 10.4127 2.61529 10.4219 2.62416L10.4182 2.61989ZM8.48666 0.706056C8.51526 0.737615 8.54353 0.769174 8.5718 0.80106H8.57213C8.54419 0.770159 8.51592 0.739262 8.48764 0.708689L8.48666 0.706056ZM8.73978 0.849713C8.77462 0.876998 8.80979 0.904611 8.84431 0.931893L8.84661 0.92959C8.79467 0.923673 8.75062 0.907568 8.74175 0.847742L8.73978 0.849713ZM9.27658 1.34017C9.34101 1.32899 9.37355 1.3566 9.37651 1.42103L9.37816 1.41906C9.34463 1.39309 9.3111 1.36679 9.27691 1.34017H9.27658ZM9.26639 8.96491C9.23023 8.99121 9.1944 9.01751 9.15791 9.0438C9.1543 9.03986 9.15068 9.03559 9.14673 9.03164C9.14706 9.02441 9.14937 9.01751 9.15364 9.01126L9.15002 9.01488C9.1589 9.00567 9.1681 8.9968 9.17698 8.98759L9.17303 8.99088C9.19013 8.98201 9.20755 8.97313 9.22497 8.96425L9.21971 8.96787C9.23648 8.96754 9.25324 8.96754 9.27001 8.96754L9.26639 8.96491ZM10.3285 1.81057C10.2953 1.77704 10.2618 1.74318 10.2286 1.70998L10.2351 1.70308C10.267 1.73989 10.2989 1.77605 10.3305 1.81287C10.3301 1.81287 10.3285 1.81057 10.3285 1.81057ZM8.9163 0.978571C8.95673 1.00816 8.99717 1.03774 9.0376 1.06765C9.03464 1.07094 9.03168 1.07423 9.02872 1.07719C8.99191 1.04366 8.95509 1.0098 8.91827 0.975945L8.9163 0.978571ZM9.27691 1.34017C9.24864 1.29973 9.22037 1.2593 9.19243 1.21887C9.19605 1.21493 9.19999 1.21098 9.2036 1.20703C9.25094 1.23892 9.30222 1.26817 9.27658 1.34017H9.27691ZM10.5566 3.21553C10.5333 3.16787 10.5103 3.1202 10.4869 3.07188C10.4906 3.06892 10.4942 3.06597 10.4978 3.06235C10.5169 3.11396 10.5356 3.1659 10.5543 3.21784C10.554 3.21816 10.5566 3.21553 10.5566 3.21553ZM10.2148 2.35921C10.2279 2.3671 10.2414 2.37466 10.2545 2.38222L10.2535 2.38551C10.2624 2.4026 10.2713 2.4197 10.2802 2.43679L10.2775 2.43317C10.2867 2.44106 10.2956 2.44863 10.3048 2.45651C10.3035 2.47295 10.3025 2.48971 10.3012 2.50648L10.3032 2.50385C10.2585 2.46408 10.2 2.43186 10.218 2.35625C10.2177 2.35658 10.2148 2.35921 10.2148 2.35921ZM8.41007 0.148216C8.3532 0.14427 8.29666 0.14 8.23946 0.136385C8.30257 0.0929906 8.35254 0.133755 8.40744 0.150518C8.40744 0.150191 8.41007 0.148216 8.41007 0.148216ZM9.78183 2.06336C9.75323 2.01964 9.68486 1.99794 9.70589 1.92596L9.70524 1.9253C9.73515 1.97 9.79366 1.99926 9.77953 2.06698L9.78183 2.06336ZM9.16975 1.19389C9.12274 1.1551 9.07573 1.11631 9.02872 1.07719C9.03168 1.07423 9.03464 1.07094 9.0376 1.06765C9.08395 1.10776 9.1303 1.14787 9.17632 1.18764L9.16975 1.19389ZM0.964805 5.90712C0.967106 5.95281 0.969078 5.99785 0.971379 6.04321C0.966777 6.04355 0.962175 6.04355 0.957573 6.04355V5.90778C0.960203 5.90778 0.962504 5.90745 0.964805 5.90712ZM7.88016 0.0242863C7.94196 0.0390782 8.00442 0.0538739 8.06622 0.0689932C8.00245 0.0611044 7.92553 0.0982461 7.88049 0.0239552L7.88016 0.0242863ZM10.6562 3.39305C10.6227 3.33355 10.5898 3.2747 10.5566 3.21553L10.554 3.21817C10.6214 3.2586 10.652 3.31876 10.6529 3.39601L10.6562 3.39305ZM10.2098 2.62252C10.1845 2.58931 10.1595 2.55645 10.1178 2.50188C10.1973 2.51437 10.2144 2.55776 10.2322 2.60016L10.2342 2.59688C10.2253 2.60575 10.2161 2.61496 10.2072 2.62383L10.2098 2.62252ZM8.10139 9.88961C8.14906 9.81006 8.23749 9.80513 8.31441 9.77916C8.25359 9.83669 8.17602 9.8643 8.09942 9.89356L8.10139 9.88961ZM9.15791 9.0438C9.05469 9.09706 8.95114 9.14998 8.84793 9.20323L8.84563 9.19995C8.85417 9.18417 8.86272 9.16773 8.87159 9.15162L8.86634 9.15557C8.88376 9.14702 8.90118 9.13749 8.9186 9.12862L8.91466 9.13157C8.93175 9.1227 8.94884 9.11415 8.96594 9.10561L8.96068 9.10889C8.9781 9.09969 8.99552 9.09081 9.0136 9.08161L9.00801 9.0849C9.04122 9.06846 9.07409 9.05235 9.10663 9.03526L9.10302 9.03822C9.11748 9.03559 9.13227 9.03362 9.14673 9.03164C9.15068 9.03559 9.1543 9.03986 9.15791 9.0438ZM9.8696 2.17841C9.8742 2.16263 9.87519 2.1508 9.87946 2.14916C9.88899 2.1462 9.90642 2.14357 9.91003 2.14817C9.9383 2.18762 9.96394 2.22904 9.9909 2.26947C9.98202 2.2744 9.9669 2.28623 9.96559 2.28459C9.9314 2.24843 9.89886 2.21128 9.8696 2.17841ZM1.28663 7.913C1.27085 7.90478 1.24488 7.9005 1.23995 7.88834C1.19655 7.77888 1.15678 7.66777 1.11602 7.55699L1.11339 7.55896C1.13278 7.59874 1.15152 7.63851 1.17124 7.67763C1.21036 7.75587 1.24981 7.8341 1.28893 7.91201L1.28663 7.913ZM7.72303 0.0814828C7.58694 0.0712917 7.45085 0.0627484 7.31476 0.0512443C7.25723 0.0459852 7.20036 0.0348047 7.14349 0.020671C7.33645 0.0341501 7.53303 0.0163975 7.72106 0.0831306C7.72139 0.0831306 7.72303 0.0814828 7.72303 0.0814828ZM9.60925 1.88552C9.54909 1.81945 9.48729 1.75436 9.43042 1.68598C9.4015 1.65081 9.38177 1.60841 9.35811 1.56929C9.36106 1.56666 9.36402 1.56403 9.36731 1.5614C9.43798 1.63536 9.50965 1.70867 9.57901 1.78394C9.60333 1.8109 9.63621 1.8395 9.60662 1.88322L9.60925 1.88552ZM10.9149 3.86608C10.8531 3.74938 10.791 3.63203 10.7289 3.51533L10.7256 3.51829C10.744 3.52947 10.7703 3.53604 10.7795 3.55215C10.8298 3.64222 10.8765 3.73328 10.9218 3.82532C10.9268 3.83551 10.9163 3.85359 10.913 3.86772L10.9149 3.86608ZM10.4475 2.96735C10.4238 2.94039 10.3965 2.91574 10.3765 2.88615C10.3193 2.79904 10.2651 2.71094 10.2098 2.62252L10.2072 2.62383C10.2161 2.61496 10.2253 2.60575 10.2342 2.59688L10.2322 2.60016C10.3236 2.7116 10.4103 2.82567 10.4465 2.96932L10.4475 2.96735ZM10.5044 2.75959C10.5879 2.92363 10.6714 3.08734 10.7552 3.25137C10.7519 3.25432 10.7486 3.25728 10.7453 3.26057C10.7216 3.23033 10.6924 3.20305 10.6753 3.16984C10.6027 3.02915 10.5339 2.88648 10.4636 2.74447C10.4639 2.74414 10.4613 2.74677 10.4613 2.74677C10.4761 2.74973 10.4909 2.75302 10.5054 2.75532L10.5044 2.75959ZM9.35811 1.56929C9.21643 1.48448 9.12175 1.35398 8.99815 1.22216C9.09184 1.2455 9.26606 1.41347 9.36731 1.5614C9.36402 1.56403 9.36106 1.56666 9.35811 1.56929ZM8.40744 0.150187C8.54846 0.200153 8.68915 0.250116 8.83018 0.299427C8.85516 0.307974 8.88178 0.312579 8.90742 0.318497C8.92583 0.323428 8.95246 0.321453 8.96166 0.333616C9.05272 0.44834 9.19835 0.480222 9.3088 0.564377C9.3272 0.577856 9.34463 0.592979 9.3821 0.624207C9.34101 0.617304 9.32162 0.619275 9.3088 0.611386C9.06028 0.448667 8.79566 0.318165 8.51953 0.210017C8.48041 0.195225 8.44655 0.169253 8.41007 0.148216L8.40744 0.150187ZM9.9978 1.46903C9.86927 1.33425 9.74008 1.1998 9.61287 1.06371C9.6007 1.05089 9.59873 1.02919 9.59216 1.01144C9.61977 1.00815 9.64705 1.00257 9.67467 1.00257C9.68354 1.00257 9.69373 1.01539 9.70129 1.02394C9.83903 1.18074 9.97676 1.33786 10.1142 1.49466L10.1161 1.49335C10.0994 1.49302 10.0829 1.49269 10.0665 1.49204L10.0698 1.49631C10.0606 1.48743 10.0514 1.47823 10.0422 1.46837L10.0465 1.47264C10.03 1.45621 10.0133 1.44043 9.99681 1.42465C9.97512 1.40229 9.95342 1.3806 9.9314 1.35792C9.91989 1.34641 9.90839 1.33524 9.89688 1.32406L9.89951 1.32143C9.91135 1.33293 9.92285 1.34444 9.93436 1.35595C9.9554 1.37797 9.97676 1.40098 9.99813 1.42367C9.99747 1.43944 9.99649 1.45587 9.99583 1.47264L9.9978 1.46903ZM9.42977 0.793829C9.41826 0.7912 9.40413 0.791858 9.39624 0.785282C9.19999 0.618948 8.95476 0.538739 8.73682 0.41054C8.52676 0.28661 8.29304 0.221194 8.05472 0.170242C7.94262 0.146245 7.83348 0.111071 7.72303 0.0814828L7.72139 0.0831306C7.97516 0.0837852 8.21546 0.156105 8.45247 0.232367C8.77758 0.336245 9.0708 0.50817 9.3558 0.693242C9.38868 0.714938 9.4084 0.756353 9.4347 0.78857L9.42977 0.793829ZM10.3058 2.3888C10.2891 2.3671 10.2726 2.34507 10.2558 2.32305L10.2585 2.31812C10.2493 2.30957 10.2401 2.30037 10.2309 2.29084L10.2286 2.29182C10.2049 2.20832 10.1599 2.14225 10.0767 2.10675V2.11168C10.0777 2.09787 10.0849 2.07848 10.0783 2.07092C9.9577 1.93614 9.83508 1.80268 9.7128 1.66955C9.70885 1.66495 9.69866 1.66725 9.69143 1.6656L9.69439 1.66035C9.68519 1.65114 9.67631 1.64226 9.66711 1.63273L9.67105 1.637C9.66185 1.62813 9.65264 1.61859 9.64344 1.60939L9.64837 1.61235C9.6178 1.57257 9.58986 1.5305 9.55633 1.49368C9.36501 1.28757 9.18618 1.06831 8.94523 0.914467C8.85647 0.857598 8.76377 0.807308 8.67272 0.754054C8.64149 0.735647 8.61026 0.716582 8.57903 0.698171C8.58297 0.690613 8.58692 0.683048 8.59053 0.675159C8.61913 0.682389 8.65003 0.684695 8.67567 0.697516C8.91663 0.819798 9.15561 0.944713 9.34101 1.14885C9.57178 1.40296 9.81109 1.65048 10.0323 1.91346C10.3397 2.27834 10.6086 2.67051 10.8213 3.10015C10.9498 3.36083 11.0957 3.61296 11.2315 3.8697C11.2686 3.93873 11.2992 4.01072 11.3298 4.08238C11.3337 4.09159 11.3219 4.10802 11.3173 4.12084C11.3084 4.11097 11.2969 4.10276 11.291 4.09159C11.2519 4.02058 11.2138 3.94826 11.1756 3.87693C10.9942 3.54031 10.814 3.20239 10.6293 2.86742C10.5833 2.78327 10.5218 2.70766 10.4675 2.62877L10.4698 2.62383C10.4528 2.59885 10.4357 2.57419 10.4186 2.54888L10.4222 2.55414C10.4057 2.52883 10.3887 2.50385 10.3719 2.47854L10.3758 2.48314C10.3663 2.47394 10.3571 2.46473 10.3476 2.4552L10.3522 2.45947C10.3351 2.43449 10.3183 2.41016 10.3012 2.38485L10.3058 2.3888ZM11.1493 4.59551C11.1441 4.59157 11.1385 4.58763 11.1332 4.58401C11.1306 4.59026 11.125 4.59749 11.1263 4.60275C11.1276 4.60735 11.1365 4.61031 11.1418 4.61426C11.1441 4.60801 11.147 4.60176 11.1493 4.59551ZM6.63627 9.85871C6.62904 9.86265 6.62115 9.86759 6.6126 9.87186C6.61918 9.87482 6.62543 9.87876 6.63167 9.87876C6.63857 9.87876 6.64515 9.87482 6.65172 9.87285C6.64745 9.86824 6.64285 9.86463 6.63627 9.85871ZM7.13199 9.8975C7.14317 9.8975 7.15401 9.89783 7.16486 9.89717C7.16585 9.89717 7.16683 9.89224 7.16749 9.88961C7.15664 9.88961 7.14547 9.88928 7.13429 9.88961C7.13363 9.88961 7.13298 9.89388 7.13199 9.8975ZM6.61786 9.9238C6.62477 9.92215 6.63134 9.92051 6.63825 9.91887C6.63332 9.91624 6.62838 9.90966 6.62411 9.91032C6.61491 9.91098 6.60603 9.91591 6.59716 9.91854C6.60406 9.92018 6.61096 9.92215 6.61786 9.9238ZM11.3982 5.26085C11.4001 5.24639 11.4024 5.2362 11.4024 5.22568C11.4024 5.2191 11.3995 5.21187 11.3978 5.2053C11.3952 5.21681 11.3913 5.22765 11.3899 5.23883C11.3896 5.24507 11.3939 5.25066 11.3982 5.26085ZM7.06361 9.84556C7.07841 9.84786 7.08531 9.84918 7.09221 9.84951C7.09977 9.84983 7.10766 9.84918 7.11522 9.84918C7.10832 9.84852 7.10142 9.84622 7.09418 9.84556C7.08695 9.84491 7.07906 9.84556 7.06361 9.84556ZM7.93802 9.59573C7.93638 9.59146 7.93506 9.58751 7.9344 9.58258C7.91402 9.58817 7.89397 9.59343 7.87425 9.60033C7.87326 9.60033 7.87589 9.61053 7.87655 9.61644C7.89693 9.60954 7.91731 9.60263 7.93802 9.59573ZM11.4208 5.40187C11.4195 5.40253 11.4176 5.40286 11.4159 5.40352V5.48964H11.4208V5.40187ZM11.0635 4.71846C11.0655 4.72405 11.0671 4.72931 11.0691 4.7349C11.0652 4.73522 11.0612 4.73556 11.0576 4.73621C11.0602 4.72997 11.0635 4.7247 11.0665 4.71878C11.0451 4.66586 11.0237 4.61294 11.0024 4.56034C10.9938 4.56429 10.9853 4.56823 10.9764 4.57217C11.0201 4.61392 10.9915 4.69052 11.0635 4.71846ZM11.2338 4.62181C11.2315 4.62937 11.2285 4.63661 11.2285 4.64384C11.2285 4.65107 11.2325 4.65863 11.2345 4.66619C11.2338 4.65896 11.2328 4.6514 11.2328 4.64417C11.2328 4.63661 11.2335 4.62971 11.2338 4.62214C11.2295 4.61688 11.2259 4.61031 11.2203 4.60669C11.2151 4.60341 11.2072 4.60308 11.2003 4.60143C11.2114 4.60801 11.2226 4.61557 11.2338 4.62181ZM11.0234 4.49559C11.0228 4.49033 11.0221 4.48474 11.0214 4.47915C11.0231 4.48112 11.0267 4.48375 11.0264 4.48638C11.0264 4.48966 11.0234 4.49263 11.0214 4.49559H11.0336C11.0326 4.49855 11.032 4.5015 11.0313 4.50446C11.0287 4.50183 11.026 4.49887 11.0234 4.49559ZM10.9166 4.37461C10.9176 4.3733 10.9186 4.37166 10.9199 4.37034C10.9179 4.371 10.9163 4.37132 10.9143 4.37165C10.9057 4.37264 10.8969 4.3733 10.8883 4.37396C10.8942 4.36771 10.9001 4.36048 10.9061 4.35358C10.9097 4.36081 10.9133 4.36837 10.9166 4.37461ZM9.64968 2.25862C9.64771 2.2573 9.64607 2.25599 9.64409 2.25435C9.64475 2.25599 9.64475 2.25763 9.64508 2.25895C9.63949 2.25763 9.6339 2.25632 9.62799 2.25501C9.63029 2.25204 9.6339 2.24679 9.63456 2.24744C9.63982 2.2504 9.64475 2.25501 9.64968 2.25862ZM9.62634 2.35198C9.62733 2.34967 9.62832 2.34738 9.62897 2.3454C9.627 2.34738 9.6247 2.34935 9.62273 2.35165C9.61056 2.34869 9.59906 2.34606 9.5869 2.3431C9.59216 2.33193 9.59676 2.32042 9.60169 2.30891C9.60169 2.31253 9.60202 2.31549 9.60202 2.31943C9.59774 2.3168 9.59314 2.3145 9.5892 2.3122C9.59248 2.31056 9.59577 2.30925 9.5984 2.3076C9.64738 2.29708 9.64804 2.31746 9.62634 2.35198ZM9.76506 2.69385L9.76539 2.69714L9.76901 2.69582C9.76605 2.69451 9.76276 2.69352 9.75981 2.69221C9.76178 2.69287 9.76408 2.69352 9.76506 2.69385ZM9.87059 8.49615C9.87486 8.49385 9.87913 8.49221 9.88341 8.48991C9.88341 8.49451 9.88373 8.49944 9.88439 8.5047C9.8788 8.50305 9.87322 8.50075 9.86763 8.49878C9.86927 8.50043 9.86993 8.5024 9.87124 8.5047C9.87124 8.50174 9.87059 8.49878 9.87059 8.49615ZM11.0918 4.40584C11.1135 4.36903 11.1204 4.33221 11.1013 4.2898C11.0813 4.24543 11.0694 4.19743 11.0543 4.15108L11.052 4.15306C11.1805 4.35325 11.2529 4.57349 11.2887 4.80722L11.2917 4.80623C11.2828 4.799 11.2742 4.79177 11.2654 4.78454C11.2608 4.79308 11.2502 4.8036 11.2525 4.80919C11.2634 4.8414 11.2779 4.87263 11.291 4.90386L11.288 4.89958C11.2894 4.91043 11.29 4.92161 11.293 4.93246C11.2959 4.94396 11.3009 4.95415 11.3051 4.965C11.3071 4.95383 11.3091 4.94331 11.3107 4.93246C11.3124 4.92128 11.3137 4.91044 11.3153 4.89926L11.3124 4.90353C11.3324 4.96106 11.3528 5.01957 11.3725 5.07743C11.3775 5.05244 11.3827 5.02417 11.3883 4.9959C11.3952 4.9959 11.4018 4.99557 11.4087 4.99557C11.43 5.15172 11.4511 5.30819 11.4721 5.46499C11.4764 5.46499 11.4803 5.46532 11.4843 5.46565C11.4918 5.43902 11.4997 5.41272 11.5073 5.38642C11.5116 5.38708 11.5162 5.38807 11.5204 5.38906V5.77268C11.5158 5.773 11.5106 5.77333 11.506 5.77366C11.502 5.71745 11.4991 5.66124 11.4955 5.60503C11.4869 5.60503 11.479 5.60535 11.4708 5.60535C11.4708 5.65499 11.4679 5.70496 11.4715 5.75394C11.4945 6.08431 11.4475 6.40744 11.3775 6.72893C11.3051 7.06259 11.1575 7.36173 10.9689 7.64312C10.9238 7.7105 10.8729 7.76146 10.7798 7.75587C10.7496 7.75422 10.7121 7.78611 10.6868 7.81142C10.5293 7.96789 10.3854 8.14014 10.2167 8.28281C9.96822 8.49188 9.70359 8.68089 9.4439 8.87615C9.41497 8.89785 9.37388 8.90344 9.33838 8.91692L9.34068 8.91955C9.34627 8.90311 9.35285 8.88667 9.35909 8.86991C9.37914 8.86826 9.3992 8.86564 9.41892 8.86334C9.42451 8.85216 9.43042 8.84098 9.43601 8.83013C9.44127 8.8183 9.44686 8.80647 9.45245 8.7943C9.47316 8.79398 9.49387 8.79397 9.51425 8.79331C9.51589 8.77524 9.51721 8.75814 9.51852 8.74072C9.53857 8.74269 9.55863 8.74467 9.57868 8.74565C9.58591 8.72889 9.59314 8.71311 9.60136 8.697C9.60136 8.697 9.60333 8.70029 9.60333 8.70062C9.59511 8.71673 9.58657 8.73283 9.57802 8.74861C9.55895 8.74696 9.53989 8.74565 9.52115 8.74467C9.51918 8.76143 9.51721 8.77786 9.51556 8.79397C9.49518 8.79529 9.47513 8.79594 9.45541 8.79759C9.45015 8.80975 9.44456 8.82159 9.4393 8.83408C9.43273 8.8446 9.42582 8.85512 9.41925 8.86498C9.39985 8.86728 9.38046 8.86991 9.36074 8.87221C9.31406 8.90377 9.26672 8.93598 9.21971 8.96787L9.22497 8.96425C9.20755 8.97313 9.19013 8.98201 9.17303 8.99088L9.17698 8.98759C9.1681 8.9968 9.1589 9.00567 9.15002 9.01488L9.15364 9.01126C9.13687 9.02014 9.11978 9.02868 9.10302 9.03822L9.10663 9.03526C9.07409 9.05235 9.04122 9.06846 9.00801 9.0849L9.0136 9.08161C8.99552 9.09081 8.9781 9.09969 8.96068 9.10889L8.96594 9.10561C8.94884 9.11415 8.93175 9.1227 8.91466 9.13157L8.9186 9.12862C8.90118 9.13749 8.88376 9.14702 8.86634 9.15557L8.87159 9.15162C8.84957 9.17201 8.82755 9.19107 8.80552 9.21112C8.76706 9.21902 8.7286 9.22723 8.69014 9.23578C8.67765 9.26898 8.60467 9.2509 8.62439 9.31139C8.6142 9.30941 8.60467 9.3081 8.59481 9.30678C8.60467 9.30777 8.6142 9.30908 8.62374 9.31007C8.64576 9.28509 8.66811 9.2601 8.69014 9.23512C8.72761 9.22592 8.76476 9.21638 8.80223 9.20652C8.8167 9.20455 8.83083 9.20225 8.84563 9.19995L8.84793 9.20323C8.79664 9.23677 8.74734 9.2749 8.69343 9.30284C8.52052 9.39324 8.34991 9.48725 8.17108 9.56417C8.05504 9.61447 7.92619 9.63551 7.80423 9.67265C7.75722 9.68679 7.71186 9.7075 7.66748 9.72788C7.65597 9.73347 7.64381 9.7522 7.6448 9.76239C7.64644 9.77291 7.66419 9.7831 7.67635 9.78968C7.7158 9.81138 7.75722 9.8288 7.79568 9.85214C7.81278 9.86266 7.82395 9.88336 7.83776 9.8998C7.81442 9.91821 7.79338 9.94714 7.76741 9.95371C7.73092 9.96193 7.68852 9.95996 7.65137 9.95174C7.54585 9.92741 7.44132 9.8975 7.33645 9.86956C7.32396 9.87054 7.31147 9.87153 7.29898 9.87285C7.31147 9.87186 7.32396 9.87087 7.33678 9.87022C7.31246 9.89158 7.27301 9.91032 7.32232 9.94648C7.3496 9.96719 7.37689 9.9879 7.40319 10.0106C7.41535 10.0214 7.42521 10.0352 7.43573 10.0477C7.41897 10.0546 7.40088 10.0698 7.38576 10.0681C7.29273 10.0563 7.20069 10.0392 7.10766 10.0267C6.81411 9.98691 6.51991 9.95371 6.22734 9.90835C5.93938 9.86364 5.64813 9.83767 5.3674 9.75155C5.19318 9.69796 5.01402 9.66016 4.8398 9.60724C4.74743 9.57864 4.67478 9.5129 4.60838 9.44287H4.60772C4.5686 9.42545 4.5262 9.41296 4.49102 9.39028C4.38485 9.32026 4.28195 9.24663 4.17808 9.17365C4.15605 9.1582 4.13929 9.13059 4.11562 9.1227C3.95619 9.07142 3.8487 8.95308 3.732 8.84328C3.51669 8.6398 3.29315 8.44487 3.07751 8.24238C2.78889 7.97019 2.53117 7.67072 2.32605 7.33017C2.1801 7.0879 2.07227 6.82887 1.99765 6.55504C1.95361 6.39298 1.90035 6.2342 1.90528 6.06228C1.9066 6.02612 1.87307 5.98931 1.8711 5.95183C1.86847 5.89825 1.83165 5.83776 1.89444 5.78878C1.90594 5.77958 1.89674 5.73882 1.89181 5.71318C1.87373 5.61851 1.83362 5.52613 1.88622 5.4285C1.89674 5.40911 1.88227 5.37558 1.87866 5.34862C1.85236 5.15468 1.81587 4.96171 1.80272 4.76711C1.79319 4.62806 1.80897 4.48572 1.82507 4.34634C1.878 3.88284 1.96577 3.4269 2.12191 2.98609C2.22612 2.69089 2.39081 2.4312 2.55879 2.17151C2.88817 1.66166 3.37402 1.36186 3.92134 1.14194C4.01799 1.10349 4.11102 1.05582 4.20832 1.019C4.27538 0.994021 4.34638 0.975941 4.41772 0.964106C4.52488 0.946026 4.63402 0.940767 4.74151 0.923014C5.10606 0.863188 5.47292 0.851357 5.84109 0.876667C6.09881 0.893434 6.35686 0.903622 6.61392 0.925975C6.71352 0.934191 6.81378 0.960491 6.90944 0.992708C7.02351 1.03117 7.1333 1.08475 7.24507 1.13208C7.28156 1.14721 7.32429 1.19224 7.34303 1.11302C7.3828 1.12288 7.42455 1.12781 7.46203 1.1426C7.52679 1.16824 7.61127 1.15937 7.65433 1.11006C7.66222 1.10053 7.6517 1.07555 7.65039 1.05779L7.64907 1.0601C7.70693 1.0555 7.7181 1.04958 7.73618 1.01342L7.73487 1.01112C7.797 1.03018 7.85978 1.04727 7.92125 1.06897C7.99061 1.09362 8.05767 1.12354 8.12703 1.14753C8.16484 1.16068 8.20527 1.16595 8.24406 1.17548C8.24275 1.17712 8.24143 1.17844 8.23979 1.17975C8.24242 1.17909 8.24472 1.17844 8.24669 1.1781C8.21875 1.15115 8.19015 1.1242 8.16254 1.09724L8.16878 1.09001C8.42453 1.18567 8.63656 1.34609 8.82985 1.53412C8.86042 1.56403 8.88803 1.59657 8.91762 1.62747C8.98763 1.70045 8.98796 1.70045 9.06981 1.71195C9.05535 1.7754 9.06686 1.82109 9.14509 1.82076C9.15956 1.82076 9.17435 1.82076 9.18848 1.82109C9.18487 1.83227 9.18125 1.84345 9.17731 1.85495C9.18651 1.9105 9.22596 1.93516 9.2756 1.94864C9.27625 1.96441 9.27691 1.98019 9.2779 1.99597H9.31734C9.32688 2.01405 9.33674 2.0318 9.34594 2.04923C9.34463 2.04923 9.34298 2.04955 9.34167 2.04988C9.29072 2.04988 9.31504 2.01931 9.31899 1.99663C9.30518 1.9963 9.29137 1.99597 9.27724 1.99531C9.27724 1.97954 9.27757 1.96441 9.27757 1.94864C9.24437 1.91839 9.21117 1.88815 9.17796 1.85758C9.1658 1.84476 9.15397 1.83293 9.14213 1.82043C9.11781 1.78395 9.09381 1.74811 9.06949 1.71195C9.0468 1.69387 9.02051 1.67842 9.00144 1.65739C8.86107 1.49861 8.70986 1.352 8.52742 1.24155C8.49389 1.22084 8.45839 1.20078 8.46562 1.15181L8.46431 1.14852C8.53531 1.1712 8.58955 1.23596 8.67272 1.22676C8.68126 1.2261 8.69277 1.24813 8.70263 1.25996L8.70657 1.25733C8.70657 1.26653 8.70657 1.27607 8.7069 1.2856L8.70263 1.28067C8.71183 1.28987 8.72104 1.29908 8.73024 1.30861L8.72597 1.30533C8.74306 1.3142 8.76049 1.32275 8.77758 1.33162L8.77396 1.32866C8.79106 1.3451 8.80782 1.36186 8.82492 1.37863L8.82064 1.37534C8.83938 1.38553 8.85779 1.39605 8.87653 1.40591C8.87784 1.42399 8.87915 1.44109 8.88014 1.45884C8.88211 1.45917 8.88409 1.45949 8.88573 1.45949C8.88343 1.45884 8.88113 1.45818 8.87883 1.45686C8.8785 1.4401 8.87784 1.42333 8.87718 1.40657C8.87521 1.39605 8.87324 1.3852 8.87126 1.37501L8.86962 1.37863C8.95147 1.46607 9.03267 1.55449 9.11616 1.64095C9.22169 1.75009 9.32983 1.85692 9.4347 1.96606C9.461 1.99367 9.48105 2.02786 9.50373 2.05843V2.05645C9.51195 2.07322 9.52017 2.08998 9.52838 2.10675L9.52575 2.10379C9.54022 2.11365 9.55468 2.12351 9.56915 2.13305L9.57572 2.12746C9.66316 2.23002 9.75192 2.33061 9.8364 2.43547C9.8742 2.48281 9.90346 2.53705 9.93633 2.58833C9.93008 2.57979 9.92351 2.57123 9.91693 2.56236C9.91496 2.56236 9.91332 2.5617 9.91135 2.5617C9.91365 2.56236 9.91595 2.56335 9.91825 2.564C9.92417 2.57222 9.93008 2.58077 9.93567 2.58866C9.96592 2.61233 9.99583 2.63599 10.0257 2.65999C10.0271 2.67215 10.0287 2.68399 10.0313 2.69582C10.0455 2.70306 10.0589 2.71094 10.0724 2.71818C10.0747 2.73297 10.077 2.74776 10.0797 2.76288C10.0928 2.77274 10.105 2.78293 10.1175 2.79345C10.1306 2.81712 10.1438 2.84079 10.1572 2.86413C10.1944 2.92626 10.2338 2.98707 10.2674 3.0515C10.2933 3.10048 10.3111 3.15373 10.3324 3.20567C10.412 3.35031 10.4922 3.49462 10.5727 3.63926C10.5869 3.64386 10.6004 3.64879 10.6135 3.65471C10.6355 3.7004 10.6572 3.74642 10.6789 3.7931C10.6901 3.83057 10.7016 3.86838 10.7128 3.90618C10.7325 3.93741 10.7486 3.97193 10.7733 3.99855C10.7933 4.02025 10.8236 4.03209 10.8489 4.04852C10.8525 4.06956 10.8561 4.09092 10.8597 4.11163C10.8673 4.12708 10.8748 4.14254 10.8824 4.15832C10.8886 4.17705 10.8946 4.19513 10.9008 4.21387C10.913 4.22537 10.9248 4.23721 10.937 4.24838C10.9449 4.26383 10.9534 4.27863 10.9616 4.29342C10.9705 4.31939 10.9794 4.34536 10.9882 4.37165C10.9958 4.36771 11.0034 4.36344 11.0113 4.3595C10.9938 4.33846 10.9764 4.31709 10.9587 4.29572C10.9511 4.28093 10.9426 4.26646 10.9343 4.25167C10.9232 4.23885 10.912 4.22636 10.9008 4.21387C10.8939 4.19579 10.8873 4.17804 10.8811 4.15996C10.8735 4.14418 10.866 4.12873 10.8584 4.11328C10.8548 4.09224 10.8505 4.07153 10.8466 4.05115C10.8147 3.99132 10.8032 3.9121 10.7128 3.90651C10.7299 3.85984 10.723 3.82137 10.6763 3.79507C10.6546 3.74905 10.6326 3.70336 10.6109 3.65701C10.5967 3.65175 10.5823 3.64616 10.5681 3.64091C10.5681 3.61592 10.5767 3.58667 10.5668 3.5653C10.5132 3.4509 10.457 3.33749 10.3972 3.22573C10.3893 3.21159 10.3545 3.21225 10.3324 3.20567C10.3538 3.09456 10.2749 2.94368 10.1546 2.86676C10.1418 2.8431 10.129 2.81975 10.1155 2.79575C10.1027 2.78524 10.0892 2.77439 10.0764 2.7642C10.0741 2.74973 10.0721 2.73494 10.0701 2.72048C10.0557 2.71259 10.0415 2.70404 10.0271 2.69582C10.0208 2.69287 10.0149 2.69024 10.009 2.68761C10.0152 2.67939 10.0215 2.67117 10.0274 2.66229C10.008 2.62087 9.9955 2.57354 9.96756 2.53836C9.82917 2.36381 9.69669 2.18269 9.54252 2.02325C9.40708 1.88223 9.29105 1.72609 9.16021 1.58277C9.02971 1.4401 8.87784 1.31716 8.73419 1.18665C8.70953 1.1643 8.68126 1.14622 8.6599 1.1163C8.71907 1.10809 8.76081 1.14195 8.7996 1.17416C8.92452 1.27738 9.05239 1.37895 9.1681 1.49269C9.32688 1.64851 9.48236 1.8086 9.62536 1.97822C9.79136 2.17512 9.93765 2.3888 10.1013 2.58767C10.2644 2.78524 10.3837 3.00811 10.4988 3.23427C10.5123 3.26057 10.5175 3.29114 10.527 3.31941C10.5284 3.31875 10.5297 3.31809 10.5303 3.31744C10.5409 3.33519 10.551 3.3536 10.5616 3.37135L10.5579 3.36938C10.7006 3.63235 10.8449 3.89468 10.9853 4.15996C11.027 4.23852 11.0569 4.32334 11.0921 4.40552C11.0823 4.39401 11.0731 4.3825 11.0635 4.37067C11.0619 4.37199 11.0602 4.37297 11.0589 4.37396C11.0616 4.37396 11.0642 4.37363 11.0668 4.3733C11.0754 4.38415 11.0832 4.39532 11.0918 4.40584ZM6.8059 11.1056C6.80096 11.1056 6.79603 11.1056 6.7911 11.1059C6.79307 11.1075 6.79472 11.1092 6.79669 11.1115C6.79866 11.1088 6.80031 11.1069 6.80228 11.1042L6.8059 11.1056ZM0.895444 6.26543L0.901361 6.26477C0.901361 6.26477 0.895116 6.26642 0.894787 6.26675C0.894458 6.26675 0.895444 6.26543 0.895444 6.26543ZM9.25061 10.6052L9.24502 10.6115C9.24502 10.6115 9.25258 10.6072 9.25258 10.6069L9.25061 10.6052ZM9.25357 10.5707C9.25259 10.5822 9.25193 10.5937 9.25061 10.6052L9.25258 10.6069V10.5704L9.25357 10.5707ZM9.3752 10.5773V10.5684C9.37586 10.5707 9.37651 10.573 9.37684 10.5753C9.37717 10.5753 9.3752 10.5773 9.3752 10.5773ZM9.47382 10.4905L9.47447 10.4935C9.47447 10.4935 9.47086 10.4918 9.4702 10.4922L9.47382 10.4905ZM9.82128 10.2561C9.82062 10.2584 9.82029 10.2604 9.81963 10.2627C9.82128 10.2614 9.82292 10.2601 9.82489 10.2591C9.82292 10.2584 9.82062 10.2584 9.81799 10.2581L9.82128 10.2561ZM9.81799 10.2581C9.82259 10.2568 9.82719 10.2555 9.83212 10.2542C9.82982 10.2525 9.82785 10.2502 9.82588 10.2482C9.82424 10.2512 9.82292 10.2538 9.82128 10.2561L9.81799 10.2581ZM2.09068 9.20159C2.092 9.20422 2.09364 9.20718 2.09496 9.20981C2.09266 9.20816 2.09068 9.20586 2.08838 9.20488L2.09068 9.20159ZM2.17845 9.28279H2.16991C2.17221 9.28213 2.17418 9.28147 2.17549 9.28049C2.17549 9.28016 2.17845 9.28279 2.17845 9.28279ZM2.17418 9.31993C2.17549 9.30777 2.17648 9.29528 2.17845 9.28279L2.17549 9.28016C2.1824 9.29331 2.1893 9.30678 2.1962 9.31993L2.19883 9.31632C2.1893 9.31632 2.18075 9.31665 2.17188 9.31697L2.17418 9.31993ZM2.17319 9.34327C2.17155 9.33538 2.17188 9.32782 2.17418 9.31993L2.17188 9.31697C2.17188 9.32585 2.17188 9.33473 2.17155 9.34327H2.17319ZM2.1962 9.31993C2.20475 9.32782 2.21297 9.33538 2.22086 9.34327L2.2225 9.33999C2.21297 9.34064 2.20376 9.34064 2.19423 9.3413L2.19818 9.34327C2.1985 9.3344 2.1985 9.32585 2.19883 9.31632L2.1962 9.31993ZM2.22086 9.34327C2.22875 9.35149 2.23664 9.35938 2.24453 9.3676L2.24617 9.36464H2.21889L2.22086 9.36727C2.22152 9.35807 2.22184 9.34886 2.2225 9.33999L2.22086 9.34327ZM9.29104 0.38424C9.30715 0.386212 9.32359 0.388845 9.34035 0.391474L9.34167 0.389496C9.32458 0.389496 9.30715 0.388841 9.29006 0.388841L9.29104 0.38424ZM1.03055 7.58526C1.03482 7.6086 1.0391 7.63161 1.04337 7.65527L1.04567 7.65298C1.04041 7.6303 1.03581 7.60761 1.03121 7.5846C1.03154 7.58394 1.03055 7.58526 1.03055 7.58526ZM2.05387 9.1697C2.05156 9.16116 2.04959 9.15196 2.04729 9.14374C2.04433 9.14538 2.04203 9.14702 2.0394 9.149C2.04532 9.15393 2.05091 9.15984 2.05682 9.16576C2.0565 9.16576 2.05387 9.1697 2.05387 9.1697ZM1.03154 7.58394C1.03219 7.57802 1.03318 7.57178 1.03417 7.56586C1.02891 7.56981 1.02332 7.5731 1.01872 7.5777C1.01773 7.57901 1.02003 7.5846 1.02233 7.58723C1.02332 7.58821 1.02759 7.58624 1.03055 7.58526L1.03154 7.58394ZM9.37717 10.5753C9.35252 10.5747 9.32819 10.5743 9.30288 10.5743C9.30222 10.5743 9.30025 10.5763 9.29992 10.577C9.3249 10.5776 9.35022 10.5773 9.3752 10.5773L9.37717 10.5753ZM9.75619 10.291C9.76243 10.2903 9.76901 10.2893 9.77558 10.2887C9.77558 10.2923 9.77624 10.2953 9.77624 10.2985C9.76967 10.2989 9.76342 10.2995 9.75685 10.2999C9.75652 10.2999 9.75619 10.2939 9.75619 10.291ZM2.22119 9.38863C2.20541 9.37352 2.1893 9.35807 2.17319 9.34327H2.17155H2.19818L2.19423 9.3413C2.20311 9.34952 2.21198 9.35807 2.22086 9.36727L2.21889 9.36464C2.21889 9.37319 2.21921 9.38206 2.21921 9.39094L2.22119 9.38863ZM0.844492 6.60599L0.843506 6.5958L0.84745 6.59712L0.844492 6.60599ZM0.890842 6.11192C0.890184 6.1014 0.88887 6.09417 0.889198 6.08628C0.889856 6.08102 0.892814 6.07543 0.894129 6.06984C0.895115 6.07806 0.897088 6.08529 0.896759 6.09318C0.896431 6.09844 0.893472 6.10436 0.890842 6.11192ZM0.863887 5.57215C0.86553 5.5498 0.867174 5.52778 0.868817 5.50641L0.876707 5.57544C0.872433 5.57478 0.86816 5.57347 0.863887 5.57215ZM3.20111 16.6932H9.94027V47.3253H3.20111V16.6932Z" fill="#653024"/>
<path d="M41.9801 32.0093C41.9801 25.3927 37.3855 20.0631 30.7075 20.0631C24.0298 20.0631 19.4349 25.3927 19.4349 32.0093C19.4349 38.6258 24.0298 43.9561 30.7075 43.9561C37.3855 43.9561 41.9801 38.6258 41.9801 32.0093ZM15.0238 32.0093C15.0238 23.2488 21.5792 16.0803 30.2789 16.0803C34.996 16.0803 39.4069 18.5313 41.6126 21.8396V1.37684H45.9008V47.3252H41.6126V42.1793C39.4069 45.4876 34.996 47.9382 30.2789 47.9382C21.5792 47.9382 15.0238 40.7701 15.0238 32.0093Z" fill="#653024"/>
<path d="M60.2337 28.2723H73.3442C72.3636 24.5965 69.3617 23.371 66.9725 23.371C63.2964 23.371 61.0298 25.4545 60.2337 28.2723ZM50.9824 31.9481C50.9824 22.7586 57.9665 16.0198 67.2174 16.0198C76.0397 16.0198 83.9425 22.0233 83.5754 34.1538H59.9884C60.4174 37.278 62.7451 40.0354 67.7079 40.0354C70.4034 40.0354 72.854 38.8099 73.5894 37.1557H83.269C81.3081 43.5271 74.9372 48 67.2174 48C57.7219 48 50.9824 41.2605 50.9824 31.9481Z" fill="#653024"/>
<path d="M98.7042 47.9383C91.5364 47.9383 85.9616 44.1395 85.5937 38.0138H92.5781C93.1294 41.3217 95.8864 42.5469 98.888 42.5469C101.829 42.5469 103.85 41.3832 103.85 39.3001C103.85 37.2169 102.503 36.0533 99.3169 35.2568L94.2934 33.9087C89.0246 32.5609 86.4513 29.13 86.4513 24.6581C86.4513 19.5112 90.9851 16.0803 97.8466 16.0803C104.463 16.0803 109.058 19.7568 109.548 25.2705H102.809C102.197 22.6976 100.175 21.4721 97.7854 21.4721C95.2122 21.4721 93.3128 22.6361 93.3128 24.5966C93.3128 26.5568 94.8446 27.5985 97.4176 28.2724L102.564 29.6201C108.078 31.0294 110.712 34.215 110.712 38.8711C110.712 44.8141 105.566 47.9383 98.7042 47.9383Z" fill="#653024"/>
<path d="M129.15 22.2073C123.697 22.2073 120.022 26.4958 120.022 32.0092C120.022 37.5235 123.697 41.812 129.15 41.812C134.602 41.812 138.278 37.5235 138.278 32.0092C138.278 26.4958 134.602 22.2073 129.15 22.2073ZM127.924 16.0802C132.336 16.0802 136.011 18.3477 137.727 20.798V16.6933H144.466V47.325H137.727V43.2213C136.011 45.6716 132.336 47.9381 127.924 47.9381C119.531 47.9381 113.16 40.7703 113.16 32.0092C113.16 23.2487 119.531 16.0802 127.924 16.0802Z" fill="#653024"/>
<path d="M150.712 16.6932H159.963V19.818C161.556 17.6731 164.189 16.0196 167.805 16.0196C172.215 16.0196 175.401 18.0412 177.3 21.411C179.261 17.6731 183.488 16.0196 186.674 16.0196C194.148 16.0196 198.314 21.3492 198.314 29.8651V47.3253H189.063V31.4581C189.063 26.9858 187.777 24.4126 184.652 24.4126C181.405 24.4126 179.138 26.8632 179.138 32.438V47.3253H169.887V31.4581C169.887 26.9858 168.601 24.4126 165.476 24.4126C162.229 24.4126 159.963 26.8632 159.963 32.438V47.3253H150.712V16.6932Z" fill="#653024"/>
</svg>
