<svg width="114" height="114" viewBox="0 0 114 114" fill="none" xmlns="http://www.w3.org/2000/svg">
<path fill-rule="evenodd" clip-rule="evenodd" d="M28.7757 0.12532C29.2589 -0.14219 29.8675 0.0326406 30.135 0.515815L35.4839 10.1771C35.6441 10.4664 35.6509 10.8162 35.5021 11.1115C35.3533 11.4068 35.0682 11.6094 34.7404 11.6528C29.6913 12.3215 21.8957 13.5195 15.1306 16.1871C8.31232 18.8756 2.90503 22.9069 1.98917 29.0392C1.90759 29.5855 1.39865 29.9621 0.852423 29.8806C0.306197 29.799 -0.0704742 29.2901 0.0111049 28.7438C1.09524 21.4848 7.43795 17.0705 14.3969 14.3265C20.7711 11.8131 27.9688 10.5752 33.0264 9.86746L28.3852 1.48455C28.1177 1.00138 28.2926 0.392829 28.7757 0.12532ZM95.6276 47.4776C95.7525 46.9396 96.2898 46.6047 96.8278 46.7295C100.553 47.5939 104.173 50.2148 107.102 53.8967C110.039 57.5901 112.335 62.416 113.381 67.8176C115.482 78.6592 112.545 91.7994 99.7551 102.76C99.3357 103.119 98.7044 103.07 98.345 102.651C97.9857 102.231 98.0343 101.6 98.4537 101.241C110.689 90.7561 113.384 78.3449 111.418 68.198C110.431 63.1053 108.269 58.5775 105.536 55.1417C102.795 51.6943 99.5329 49.4103 96.3757 48.6777C95.8377 48.5529 95.5028 48.0156 95.6276 47.4776Z" fill="#FFA400"/>
<path fill-rule="evenodd" clip-rule="evenodd" d="M35.4787 1.05382L57.3355 0.000244142L54.3675 14.2086C79.3075 13.6967 93.0123 19.1368 93.0123 19.1368L83.3982 33.1877C83.3982 33.1877 70.5417 25.8127 54.6821 25.1635L57.456 44.8856C96.1159 47.8 102.188 57.1815 104.629 69.8795C107.913 86.9516 88.9509 96.3648 64.9341 98.0559L70.18 112.704L44.5698 114L49.3491 98.1127C33.2639 97.1776 15.9695 93.2721 1.00012 86.3813L7.4645 64.1517C14.642 71.349 31.9974 79.6103 48.2057 81.8978L46.3175 55.1211C23.7911 54.2592 6.25957 49.5181 9.36667 32.8148C11.5899 20.8629 28.2135 16.1466 42.6341 14.705L35.4787 1.05382ZM26.1286 33.7145C27.2974 28.4467 34.31 26.8663 44.2556 25.8809L45.5277 43.9209C31.9656 42.118 24.9598 38.9824 26.1286 33.7145ZM62.7914 82.8212L59.119 56.7099C59.119 56.7099 82.8138 59.0002 85.7357 66.3752C90.4108 79.5449 76.3152 82.4252 62.7914 82.8212ZM12.6878 33.7145L25.5442 48.9913C25.5442 48.9913 9.18149 44.2502 12.6878 33.7145ZM27.8818 80.0717L9.76587 71.1163L8.01272 77.9645L27.8818 80.0717Z" fill="white"/>
</svg>
