<svg width="440" height="440" viewBox="0 0 440 440" fill="none" xmlns="http://www.w3.org/2000/svg">
<path d="M232.854 317.308L90.4954 316.25L81.4988 313.606L75.1482 273.413L87.8493 250.673L73.0314 224.76L83.6156 197.26L73.5606 173.99L78.8527 147.548L68.2685 131.154L67.21 54.4712L80.4404 16.9231L189.987 6.34615L245.026 17.9808L252.964 66.1058L249.259 134.327L259.844 184.038L246.613 213.125L239.204 252.26L245.555 301.442L232.854 317.308Z" fill="white"/>
<path d="M241.321 382.356L279.648 424.663L342.625 406.683L414.598 354.327L334.687 279.76L337.862 214.712L305.58 148.077L308.226 95.1923L305.051 70.8654L274.132 66.6346L250.847 86.7308L249.259 131.683L258.785 182.981L238.146 244.856L244.496 304.615L224.386 317.308L141.829 319.423L138.125 328.942L170.936 360.144L241.321 382.356Z" fill="#D6A461"/>
<path d="M46.5707 276.587L72.5022 297.74L73.5606 278.173L87.8493 245.385L76.2067 233.75V218.942L83.6156 195.144L73.0314 169.231L78.3235 149.663L69.8561 133.798L70.9145 99.4231L39.1618 85.1442L17.9932 104.712L38.1033 133.269L25.4022 162.885L37.5741 185.625L19.0517 205.192L24.873 228.462L49.2168 241.683L46.5707 276.587Z" fill="#D6A461"/>
<path fill-rule="evenodd" clip-rule="evenodd" d="M334.799 154.872C335.571 154.377 336.598 154.602 337.093 155.375L335.695 156.272C337.093 155.375 337.094 155.376 337.094 155.376L337.096 155.38L337.128 155.43C337.15 155.464 337.182 155.515 337.224 155.582C337.307 155.714 337.429 155.911 337.587 156.167C337.904 156.68 338.362 157.435 338.937 158.409C340.086 160.358 341.7 163.185 343.567 166.713C347.301 173.767 352.056 183.638 356.135 194.899C364.125 216.959 369.693 244.827 359.265 267.234C359.447 267.421 359.659 267.638 359.899 267.882C360.823 268.822 362.17 270.168 363.851 271.785C367.216 275.02 371.913 279.328 377.245 283.632C382.584 287.941 388.525 292.218 394.382 295.409C400.274 298.62 405.906 300.635 410.67 300.635C411.587 300.635 412.331 301.38 412.331 302.298C412.331 303.216 411.587 303.96 410.67 303.96C405.078 303.96 398.857 301.633 392.795 298.33C386.698 295.007 380.584 290.598 375.162 286.221C369.733 281.84 364.963 277.463 361.552 274.183C359.845 272.543 358.477 271.175 357.533 270.215C357.061 269.735 356.695 269.357 356.447 269.098C356.322 268.969 356.227 268.869 356.163 268.801L356.089 268.724L356.07 268.704L356.065 268.698L356.063 268.696C356.063 268.696 356.063 268.696 356.347 268.428L356.063 268.696C355.588 268.191 355.475 267.443 355.781 266.821C366.249 245.542 361.079 218.301 353.013 196.032C349.001 184.955 344.317 175.229 340.634 168.271C338.793 164.793 337.204 162.01 336.078 160.1C335.514 159.145 335.067 158.409 334.762 157.913C334.609 157.665 334.492 157.477 334.413 157.352C334.374 157.29 334.344 157.243 334.325 157.212L334.303 157.179L334.298 157.171L334.297 157.169C334.297 157.169 334.297 157.169 334.302 157.166L334.297 157.169C333.803 156.396 334.027 155.368 334.799 154.872ZM1.59482 209.438C2.511 209.402 3.28297 210.117 3.31908 211.034C3.74278 221.801 6.1282 231.414 8.4147 238.345C9.55683 241.806 10.6712 244.59 11.4972 246.502C11.9031 247.441 12.239 248.169 12.474 248.664L30.4837 251.253C30.9919 251.326 31.4377 251.631 31.6913 252.078C31.9449 252.525 31.9777 253.064 31.7802 253.538C23.7533 272.822 31.0623 287.894 40.5759 298.327C45.3438 303.555 50.637 307.575 54.7514 310.291C56.8053 311.647 58.5571 312.672 59.7905 313.357C60.4071 313.699 60.8935 313.955 61.2228 314.125C61.3874 314.209 61.5126 314.272 61.5951 314.313C61.6364 314.334 61.6669 314.349 61.6864 314.358L61.7072 314.368L61.711 314.37C62.5372 314.767 62.8863 315.76 62.4898 316.588C62.0933 317.416 61.1017 317.765 60.2749 317.368L60.993 315.869C60.2749 317.368 60.2732 317.367 60.2732 317.367L60.2704 317.366L60.2615 317.361L60.2308 317.347C60.2048 317.334 60.1675 317.316 60.1195 317.292C60.0234 317.244 59.8841 317.174 59.7052 317.082C59.3473 316.898 58.8303 316.625 58.1816 316.265C56.8846 315.546 55.0587 314.476 52.9239 313.067C48.6609 310.253 43.1326 306.062 38.124 300.569C28.4053 289.911 20.5381 274.188 27.9336 254.246L11.1333 251.83C10.602 251.754 10.1404 251.425 9.89411 250.947L11.3692 250.185C9.89411 250.947 9.89411 250.947 9.89411 250.947L9.89106 250.941L9.88482 250.929L9.86293 250.886C9.84423 250.849 9.81738 250.796 9.78291 250.726C9.71397 250.587 9.61452 250.384 9.48869 250.12C9.23704 249.591 8.87973 248.817 8.44984 247.822C7.59024 245.832 6.43922 242.956 5.26197 239.388C2.90972 232.258 0.440634 222.329 0.00131196 211.165C-0.034791 210.248 0.678649 209.475 1.59482 209.438Z" fill="#FFA400"/>
<path d="M162.261 44.1112C166.697 44.1112 170.293 40.5174 170.293 36.0843C170.293 31.6511 166.697 28.0573 162.261 28.0573C157.826 28.0573 154.23 31.6511 154.23 36.0843C154.23 40.5174 157.826 44.1112 162.261 44.1112Z" fill="#151313"/>
<path fill-rule="evenodd" clip-rule="evenodd" d="M418.921 374.562L440 357.431C423.974 342.537 362.161 298.084 362.161 298.084C362.161 298.084 348.989 283.314 343.528 271.113C351.559 231.942 341.921 205.934 341.921 205.934C330.998 183.78 311.08 144.609 311.08 144.609L315.035 80.4751C312.143 70.0936 283.378 47.9641 258.319 71.4028L257.998 29.9838C257.891 19.2812 244.505 -1.80293 216.555 0.123532C194.723 2.25223 160.756 1.49179 133.785 0.887982C121.702 0.61748 111.024 0.378415 103.47 0.44464C88.3709 0.765704 65.5606 11.7466 65.5606 41.5426V86.8146C49.6045 78.4666 21.8689 71.7239 13.8371 101.905C13.8371 101.905 13.1951 118.28 33.113 134.976C31.7345 137.258 30.3965 139.303 29.15 141.208C21.1003 153.512 16.8686 159.979 30.2216 186.67C14.8009 200.476 5.16348 212.677 28.6158 238.363L44.9998 245.427C34.0768 270.792 43.7147 289.415 70.3796 303.221C72.3072 318.633 80.7243 328.843 101.542 331.155L122.424 331.797C131.42 339.182 151.916 355.621 161.94 362.299C171.963 368.978 216.234 381.243 237.437 383.49C250.609 408.534 261.927 420.414 278.953 440L302.085 435.184C295.622 428.269 290.568 423.274 286.1 418.858C275.823 408.702 268.644 401.607 254.537 381.243C254.537 381.243 274.456 374.179 274.777 363.262L261.927 368.4C242.486 377.035 217.982 370.248 192.838 361.953C188.065 360.378 183.128 358.75 178.004 357.162C167.299 353.846 150.054 335.115 146.841 329.228L225.871 328.907C225.871 328.907 242.898 325.375 245.79 314.78L255.749 319.275C249.645 302.579 241.176 269.561 246.754 236.116C250.288 214.925 264.744 194.055 264.744 194.055C264.744 194.055 266.351 172.863 254.143 135.939C249.081 120.629 264.317 53.8242 300.394 79.4299L301.766 87.791L297.908 140.113C306.582 167.084 328.749 207.54 328.749 207.54C336.084 250.006 332.32 265.255 327.838 283.415C326.627 288.322 325.363 293.442 324.252 299.368C323.288 304.505 326.501 307.716 326.501 307.716L333.89 291.02L418.921 374.562ZM223.031 18.7042C234.95 18.7274 244.65 28.2947 244.832 40.2056L245.79 103.19C245.79 103.19 238.401 130.481 249.002 169.331C252.11 180.718 248.22 192.186 243.495 206.114C239.616 217.55 235.175 230.643 233.582 246.711C231.252 270.212 240.007 300.01 240.007 300.01C233.992 305.4 226.259 308.484 218.183 308.715L99.6935 310.164C91.0046 310.412 83.6419 303.819 82.9377 295.16L80.9818 271.113C95.7599 254.096 92.2257 238.042 80.9813 231.942L80.6601 219.099C90.6192 206.577 87.7283 187.954 78.4112 178.001L79.0537 163.231C84.2694 150.448 82.975 143.729 77.4474 132.087L79.2724 39.8683C79.508 27.9641 89.2433 18.4436 101.157 18.4668L223.031 18.7042ZM37.2899 90.0254C43.9377 86.4958 64.2761 101.263 64.2761 101.263L63.9548 126.949C63.9548 126.949 56.5662 122.133 45.3215 129.197C45.3215 129.197 6.44853 106.4 37.2899 90.0254ZM56.5657 134.334C49.0503 133.905 36.3261 139.471 31.1859 158.094C28.2911 168.581 41.466 181.854 41.466 181.854L56.8867 176.716L53.3528 174.469C53.3528 174.469 71.6651 162.91 73.2714 154.883C75.7576 142.46 67.81 134.976 56.5657 134.334ZM30.5429 197.907C57.529 178.964 75.0989 180.532 77.4474 193.733C80.7543 212.322 70.5014 216.96 62.9365 220.382C58.7414 222.28 55.3729 223.804 55.6019 227.126L64.2761 230.015C64.2761 230.015 56.8865 230.978 52.7101 236.437C21.5475 233.868 19.569 205.611 30.5429 197.907ZM65.8819 237.079C74.4677 235.667 81.624 237.079 83.2302 248.959C83.9694 254.427 81.1486 257.617 77.508 261.735C73.6975 266.045 68.9889 271.371 66.5244 281.388L70.0583 280.103L69.7371 290.699C69.7371 290.699 54.6739 284.105 52.0676 274.324C48.3417 260.342 53.882 239.053 65.8819 237.079Z" fill="#151313"/>
<path d="M298.332 363.526L296.119 370.73L338.176 411.184L351.635 407.601L298.332 363.526Z" fill="#151313"/>
<path fill-rule="evenodd" clip-rule="evenodd" d="M195.708 103.654L187.039 103.755L173.471 116.447V103.944L165.586 104.054L152.16 117.37V104.242L144.704 104.346L130.849 118.293V104.539C118.967 104.705 108.853 114.428 109.02 126.245L109.925 190.439C110.092 202.256 119.859 211.702 131.741 211.536L196.821 210.101C208.703 209.935 218.2 200.221 218.034 188.403L216.59 124.745C216.48 116.909 212.149 110.116 205.779 106.477L195.708 115.523V103.654Z" fill="#653024"/>
<path d="M164.215 176.388C181.241 170.398 192.054 153.784 190.362 135.782C190.263 134.733 190.137 133.657 189.981 132.552C189.981 132.552 189.394 132.438 188.358 132.283C169.031 129.38 150.655 140.611 144.649 158.902L135.599 186.461L164.215 176.388Z" fill="white"/>
</svg>
