<svg width="172" height="88" viewBox="0 0 172 88" fill="none" xmlns="http://www.w3.org/2000/svg">
<path fill-rule="evenodd" clip-rule="evenodd" d="M5.91421 11.2C2.82701 11.2 0.314209 8.6872 0.314209 5.6C0.314209 2.5128 2.82701 0 5.91421 0C9.00141 0 11.5142 2.5128 11.5142 5.6C11.5142 6.41794 11.3378 7.19556 11.0211 7.89681L25.2714 22.1472C26.0265 21.7672 26.8786 21.5531 27.7797 21.5531C30.8669 21.5531 33.3797 24.0659 33.3797 27.1531C33.3797 30.2403 30.8669 32.7531 27.7797 32.7531C24.6925 32.7531 22.1797 30.2403 22.1797 27.1531C22.1797 25.7411 22.7054 24.4493 23.5712 23.4631L9.76753 9.65942C8.7628 10.6136 7.40552 11.2 5.91421 11.2ZM5.91421 2.13449C4.00358 2.13449 2.44696 3.68937 2.44696 5.6C2.44696 7.51063 4.00184 9.06725 5.91421 9.06725C7.82657 9.06725 9.38145 7.51236 9.38145 5.6C9.38145 3.68764 7.82657 2.13449 5.91421 2.13449ZM27.7797 23.6876C25.8691 23.6876 24.3125 25.2425 24.3125 27.1531C24.3125 29.0638 25.8674 30.6204 27.7797 30.6204C29.6921 30.6204 31.247 29.0655 31.247 27.1531C31.247 25.2408 29.6921 23.6876 27.7797 23.6876Z" fill="#653024"/>
<path fill-rule="evenodd" clip-rule="evenodd" d="M107.62 64.7497C107.62 65.357 108.113 65.8499 108.72 65.8499C109.328 65.8499 109.821 65.357 109.821 64.7497V59.4749C112.291 63.3073 116.597 65.8499 121.486 65.8499C129.133 65.8499 135.353 59.6304 135.353 51.9844C135.353 44.3384 129.133 38.1171 121.486 38.1171C116.596 38.1171 112.29 40.6602 109.821 44.4927V29.3137C109.821 28.7063 109.328 28.2134 108.72 28.2134C108.113 28.2134 107.62 28.7063 107.62 29.3137V51.7632C107.619 51.8368 107.618 51.9105 107.618 51.9844C107.618 52.0582 107.619 52.132 107.62 52.2055V64.7497ZM109.821 51.9668L109.821 51.9827L109.821 51.9985C109.829 58.4225 115.06 63.6477 121.486 63.6477C127.917 63.6477 133.151 58.4139 133.151 51.9827C133.151 45.5514 127.917 40.3176 121.486 40.3176C115.058 40.3176 109.829 45.5428 109.821 51.9668Z" fill="#653024"/>
<path fill-rule="evenodd" clip-rule="evenodd" d="M138.709 38.5727C136.79 38.082 135.367 36.3386 135.367 34.2681C135.367 31.8178 137.359 29.8256 139.809 29.8256C142.26 29.8256 144.252 31.8178 144.252 34.2681C144.252 36.3388 142.829 38.0823 140.909 38.5729V64.7497C140.909 65.357 140.417 65.8499 139.809 65.8499C139.202 65.8499 138.709 65.357 138.709 64.7497V38.5727ZM137.399 34.2681C137.399 32.9388 138.48 31.8577 139.809 31.8577C141.138 31.8577 142.22 32.9388 142.22 34.2681C142.22 35.5974 141.138 36.6785 139.809 36.6785C138.48 36.6785 137.399 35.5974 137.399 34.2681Z" fill="#653024"/>
<path fill-rule="evenodd" clip-rule="evenodd" d="M57.3502 65.8499C53.004 65.8499 49.0621 64.0846 46.204 61.2334V73.9783C46.204 75.2607 45.1645 76.3002 43.8821 76.3002C42.5997 76.3002 41.5602 75.2607 41.5602 73.9783V36.5935C41.5602 35.3111 42.5997 34.2716 43.8821 34.2716C45.1645 34.2716 46.204 35.3111 46.204 36.5935V38.8863C49.0621 36.0351 53.004 34.2698 57.3502 34.2698C66.0565 34.2698 73.1402 41.3536 73.1402 50.0599C73.1402 58.7662 66.0565 65.8499 57.3502 65.8499ZM57.3502 38.9137C51.2036 38.9137 46.204 43.9132 46.204 50.0599C46.204 56.2065 51.2036 61.2061 57.3502 61.2061C63.4968 61.2061 68.4964 56.2065 68.4964 50.0599C68.4964 43.9132 63.4968 38.9137 57.3502 38.9137Z" fill="#653024"/>
<path fill-rule="evenodd" clip-rule="evenodd" d="M79.004 36.5935V38.8863C81.8621 36.0351 85.804 34.2698 90.1502 34.2698C98.8565 34.2698 105.94 41.3536 105.94 50.0599C105.94 58.7662 98.8565 65.8499 90.1502 65.8499C85.804 65.8499 81.8621 64.0846 79.004 61.2334V73.9783C79.004 75.2607 77.9645 76.3002 76.6821 76.3002C75.3997 76.3002 74.3602 75.2607 74.3602 73.9783V36.5935C74.3602 35.3111 75.3997 34.2716 76.6821 34.2716C77.9645 34.2716 79.004 35.3111 79.004 36.5935ZM90.1502 61.2061C84.0036 61.2061 79.004 56.2065 79.004 50.0599C79.004 43.9132 84.0036 38.9137 90.1502 38.9137C96.2968 38.9137 101.296 43.9132 101.296 50.0599C101.296 56.2065 96.2968 61.2061 90.1502 61.2061Z" fill="#653024"/>
<path fill-rule="evenodd" clip-rule="evenodd" d="M158.133 65.1905C150.487 65.1905 144.266 58.9692 144.266 51.3232C144.266 43.6772 150.485 37.456 158.133 37.456C165.781 37.456 172 43.6772 172 51.3232C172 58.9692 165.781 65.1905 158.133 65.1905ZM158.133 39.6581C151.7 39.6581 146.468 44.892 146.468 51.3232C146.468 57.7544 151.702 62.9883 158.133 62.9883C164.564 62.9883 169.798 57.7544 169.798 51.3232C169.798 44.892 164.564 39.6581 158.133 39.6581Z" fill="#653024"/>
<path fill-rule="evenodd" clip-rule="evenodd" d="M53.883 2.35314C54.8374 5.10368 54.591 8.06594 53.5237 10.8564V10.8599C52.5381 13.4369 50.8478 15.8768 48.7619 17.8603C46.6708 19.849 44.1736 21.39 41.5793 22.1657C38.9658 22.9466 36.2517 22.957 33.7372 21.8829L33.3519 21.718L33.1958 21.331C31.6964 17.6173 32.2257 13.9141 33.9211 10.6881C35.0248 8.59002 36.6196 6.69848 38.4626 5.14533C40.3038 3.59566 42.4018 2.3757 44.5138 1.61908C47.6947 0.48069 50.9276 0.395657 53.4231 1.8013L53.7563 1.98872L53.883 2.35314ZM48.3888 8.36616L35.8804 20.623H35.8769C37.522 20.9857 39.2504 20.8555 40.9441 20.3488C43.2626 19.6547 45.5133 18.2612 47.4136 16.4547C49.3172 14.6447 50.8565 12.4286 51.7485 10.098C52.6162 7.8282 52.8626 5.45596 52.2153 3.26767C50.2873 2.35141 47.7728 2.50065 45.2339 3.40824C43.325 4.09197 41.4162 5.20433 39.7311 6.62386C38.0478 8.04164 36.5988 9.75618 35.6062 11.6425C34.3706 13.9922 33.8483 16.6195 34.4834 19.2677L47.0231 6.98134C47.3858 6.62559 47.9862 6.64642 48.3628 7.0282C48.7411 7.40997 48.7515 8.00867 48.3888 8.36616Z" fill="#653024"/>
<path fill-rule="evenodd" clip-rule="evenodd" d="M86.6864 77.1644C86.5511 77.1644 86.4747 77.0881 86.4747 76.9527V72.9614C86.4747 72.826 86.5511 72.7497 86.6864 72.7497H87.5958C88.9598 72.7497 89.6574 73.0777 89.6574 74.2108C89.6574 75.344 88.958 75.672 87.5992 75.672H86.9676V76.951C86.9676 77.0863 86.8912 77.1627 86.7559 77.1627H86.6864V77.1644ZM87.6513 75.2121C88.6144 75.2121 89.1576 75.0317 89.1576 74.2039C89.1576 73.3761 88.6127 73.1991 87.6513 73.1991H86.9658V75.2121H87.6513Z" fill="#653024"/>
<path fill-rule="evenodd" clip-rule="evenodd" d="M93.3311 77.1644C93.5342 77.1644 93.5793 77.0707 93.4648 76.9059L93.4595 76.9076L92.4322 75.5124C93.1836 75.3631 93.581 74.9605 93.581 74.1605C93.581 73.0794 92.9094 72.7514 91.5854 72.7514H90.5563C90.4209 72.7514 90.3446 72.8278 90.3446 72.9631V76.9544C90.3446 77.0898 90.4209 77.1662 90.5563 77.1662H90.6292C90.7645 77.1662 90.8409 77.0898 90.8409 76.9544V75.5835H91.5802C91.6947 75.5835 91.8023 75.58 91.9064 75.5748L92.958 77.0291C93.0205 77.1193 93.0986 77.1644 93.2131 77.1644H93.3311ZM93.0882 74.1761C93.0882 74.9935 92.5415 75.1514 91.5784 75.1514H90.8392V73.1905H91.5784C92.5398 73.1905 93.0882 73.3588 93.0882 74.1761Z" fill="#653024"/>
<path fill-rule="evenodd" clip-rule="evenodd" d="M94.2474 74.9622C94.2474 73.3883 95.2261 72.6993 96.3246 72.6993C97.4231 72.6993 98.3932 73.3883 98.3932 74.9622C98.3932 76.5362 97.411 77.2304 96.3125 77.2304C95.214 77.2304 94.2474 76.5657 94.2474 74.9622ZM96.3125 76.774C97.2982 76.774 97.9003 76.1128 97.9003 74.9622C97.9003 73.8117 97.2895 73.1575 96.3246 73.1575C95.3598 73.1575 94.7333 73.8291 94.7333 74.9622C94.7333 76.0954 95.3216 76.774 96.3125 76.774Z" fill="#653024"/>
<path d="M99.0786 74.9449C99.0786 76.3225 99.88 77.2126 101.127 77.213C102.397 77.2126 103.186 76.3988 103.186 75.0733V74.9709C103.186 74.8512 103.11 74.7957 102.975 74.7957H101.369C101.237 74.7957 101.158 74.8685 101.158 75.0004V75.0213C101.158 75.1566 101.234 75.233 101.369 75.233H102.678C102.645 76.2308 102.109 76.774 101.144 76.774C100.179 76.774 99.5697 76.0469 99.5697 74.9484C99.5697 73.8499 100.205 73.1262 101.152 73.1262C101.704 73.1262 102.102 73.3085 102.378 73.6868C102.454 73.7891 102.529 73.8273 102.652 73.7978L102.718 73.7822C102.863 73.7475 102.919 73.6364 102.839 73.508C102.494 72.9527 101.906 72.682 101.147 72.682C99.9168 72.682 99.0786 73.567 99.0786 74.9449Z" fill="#653024"/>
<path fill-rule="evenodd" clip-rule="evenodd" d="M107.12 76.9059C107.235 77.0707 107.19 77.1644 106.987 77.1644H106.869C106.754 77.1644 106.676 77.1193 106.614 77.0291L105.562 75.5748C105.458 75.58 105.35 75.5835 105.236 75.5835H104.496V76.9544C104.496 77.0898 104.42 77.1662 104.285 77.1662H104.212C104.076 77.1662 104 77.0898 104 76.9544V72.9631C104 72.8278 104.076 72.7514 104.212 72.7514H105.241C106.565 72.7514 107.237 73.0794 107.237 74.1605C107.237 74.9605 106.839 75.3631 106.088 75.5124L107.115 76.9076L107.12 76.9059ZM105.234 75.1514C106.197 75.1514 106.744 74.9935 106.744 74.1761C106.744 73.3588 106.195 73.1905 105.234 73.1905H104.495V75.1514H105.234Z" fill="#653024"/>
<path fill-rule="evenodd" clip-rule="evenodd" d="M111.367 77.1644C111.521 77.1644 111.585 77.0638 111.525 76.918H111.523L109.772 72.9145C109.725 72.8035 109.642 72.7497 109.525 72.7497H109.399C109.281 72.7497 109.199 72.8035 109.152 72.9145L107.405 76.918C107.346 77.0638 107.412 77.1644 107.57 77.1644H107.655C107.773 77.1644 107.858 77.1072 107.901 76.9996L108.247 76.1857H110.685L111.03 76.9996C111.077 77.1072 111.16 77.1644 111.276 77.1644H111.367ZM108.424 75.7675L109.465 73.3067L110.508 75.7675H108.424Z" fill="#653024"/>
<path d="M111.958 77.1644C111.813 77.1644 111.743 77.0829 111.769 76.9336L112.552 72.9388C112.574 72.8087 112.653 72.7497 112.779 72.7497H112.994C113.114 72.7497 113.197 72.8069 113.234 72.9215L114.555 76.6421L115.875 72.9215C115.913 72.8069 115.995 72.7497 116.115 72.7497H116.33C116.456 72.7497 116.535 72.8104 116.557 72.9388L117.34 76.9336C117.366 77.0829 117.295 77.1644 117.151 77.1644H117.078C116.951 77.1644 116.873 77.102 116.85 76.9753L116.149 73.4351L114.876 76.9926C114.837 77.1072 114.756 77.1627 114.636 77.1627H114.476C114.357 77.1627 114.273 77.1054 114.237 76.9926L112.961 73.4351L112.26 76.9753C112.238 77.102 112.16 77.1644 112.033 77.1644H111.958Z" fill="#653024"/>
<path fill-rule="evenodd" clip-rule="evenodd" d="M121.546 77.1644C121.701 77.1644 121.765 77.0638 121.704 76.918H121.702L119.952 72.9145C119.905 72.8035 119.821 72.7497 119.705 72.7497H119.578C119.46 72.7497 119.379 72.8035 119.332 72.9145L117.584 76.918C117.525 77.0638 117.591 77.1644 117.749 77.1644H117.834C117.952 77.1644 118.037 77.1072 118.081 76.9996L118.426 76.1857H120.864L121.21 76.9996C121.256 77.1072 121.34 77.1644 121.456 77.1644H121.546ZM118.603 75.7675L119.644 73.3067L120.687 75.7675H118.603Z" fill="#653024"/>
<path fill-rule="evenodd" clip-rule="evenodd" d="M124.151 77.1644C124.016 77.1644 123.939 77.0881 123.939 76.9527V72.9614C123.939 72.826 124.016 72.7497 124.151 72.7497H125.06C126.424 72.7497 127.122 73.0777 127.122 74.2108C127.122 75.344 126.423 75.672 125.064 75.672H124.432V76.951C124.432 77.0863 124.356 77.1627 124.221 77.1627H124.151V77.1644ZM125.116 75.2121C126.079 75.2121 126.622 75.0317 126.622 74.2039C126.622 73.3761 126.077 73.1991 125.116 73.1991H124.43V75.2121H125.116Z" fill="#653024"/>
<path fill-rule="evenodd" clip-rule="evenodd" d="M130.796 77.1644C130.999 77.1644 131.044 77.0707 130.929 76.9059L130.924 76.9076L129.897 75.5124C130.648 75.3631 131.046 74.9605 131.046 74.1605C131.046 73.0794 130.374 72.7514 129.05 72.7514H128.021C127.886 72.7514 127.809 72.8278 127.809 72.9631V76.9544C127.809 77.0898 127.886 77.1662 128.021 77.1662H128.094C128.229 77.1662 128.306 77.0898 128.306 76.9544V75.5835H129.045C129.159 75.5835 129.267 75.58 129.371 75.5748L130.423 77.0291C130.485 77.1193 130.563 77.1644 130.678 77.1644H130.796ZM130.553 74.1761C130.553 74.9935 130.006 75.1514 129.043 75.1514H128.304V73.1905H129.043C130.004 73.1905 130.553 73.3588 130.553 74.1761Z" fill="#653024"/>
<path d="M131.844 76.9527V72.9614C131.844 72.826 131.92 72.7497 132.056 72.7497H132.125C132.26 72.7497 132.337 72.826 132.337 72.9614V76.9527C132.337 77.0881 132.26 77.1644 132.125 77.1644H132.056C131.92 77.1644 131.844 77.0881 131.844 76.9527Z" fill="#653024"/>
<path fill-rule="evenodd" clip-rule="evenodd" d="M135.235 72.6993C134.136 72.6993 133.158 73.3883 133.158 74.9622C133.158 76.5657 134.124 77.2304 135.223 77.2304C136.321 77.2304 137.303 76.5362 137.303 74.9622C137.303 73.3883 136.333 72.6993 135.235 72.6993ZM136.811 74.9622C136.811 76.1128 136.208 76.774 135.223 76.774C134.232 76.774 133.643 76.0954 133.643 74.9622C133.643 73.8291 134.27 73.1575 135.235 73.1575C136.2 73.1575 136.811 73.8117 136.811 74.9622Z" fill="#653024"/>
<path fill-rule="evenodd" clip-rule="evenodd" d="M141.237 76.9059C141.352 77.0707 141.307 77.1644 141.104 77.1644H140.986C140.871 77.1644 140.793 77.1193 140.731 77.0291L139.679 75.5748C139.575 75.58 139.467 75.5835 139.353 75.5835H138.614V76.9544C138.614 77.0898 138.537 77.1662 138.402 77.1662H138.329C138.194 77.1662 138.117 77.0898 138.117 76.9544V72.9631C138.117 72.8278 138.194 72.7514 138.329 72.7514H139.358C140.682 72.7514 141.354 73.0794 141.354 74.1605C141.354 74.9605 140.956 75.3631 140.205 75.5124L141.232 76.9076L141.237 76.9059ZM139.351 75.1514C140.314 75.1514 140.861 74.9935 140.861 74.1761C140.861 73.3588 140.312 73.1905 139.351 73.1905H138.612V75.1514H139.351Z" fill="#653024"/>
<path d="M142.15 72.9614V76.9527C142.15 77.0881 142.227 77.1644 142.362 77.1644H142.431C142.567 77.1644 142.643 77.0881 142.643 76.9527V72.9614C142.643 72.826 142.567 72.7497 142.431 72.7497H142.362C142.227 72.7497 142.15 72.826 142.15 72.9614Z" fill="#653024"/>
<path d="M144.811 77.1644C144.675 77.1644 144.599 77.0881 144.599 76.9527V73.2061H143.516C143.381 73.2061 143.304 73.1297 143.304 72.9944V72.9614C143.304 72.826 143.381 72.7497 143.516 72.7497H146.168C146.303 72.7497 146.379 72.826 146.379 72.9614V72.9944C146.379 73.1297 146.303 73.2061 146.168 73.2061H145.092V76.9527C145.092 77.0881 145.015 77.1644 144.88 77.1644H144.811Z" fill="#653024"/>
<path fill-rule="evenodd" clip-rule="evenodd" d="M150.015 77.1644C150.169 77.1644 150.232 77.0638 150.173 76.918H150.171L148.42 72.9145C148.373 72.8035 148.29 72.7497 148.174 72.7497H148.047C147.929 72.7497 147.847 72.8035 147.801 72.9145L146.053 76.918C145.994 77.0638 146.06 77.1644 146.218 77.1644H146.303C146.421 77.1644 146.506 77.1072 146.549 76.9996L146.895 76.1857H149.333L149.678 76.9996C149.725 77.1072 149.808 77.1644 149.925 77.1644H150.015ZM147.072 75.7675L148.113 73.3067L149.156 75.7675H147.072Z" fill="#653024"/>
<path d="M148.035 72.1128C147.966 72.2583 148.003 72.3623 148.124 72.3627C148.249 72.3624 148.342 72.3155 148.404 72.2065L148.745 71.587C148.828 71.4412 148.788 71.3336 148.653 71.3336H148.594C148.476 71.3336 148.397 71.384 148.347 71.4881L148.035 72.1128Z" fill="#653024"/>
<path fill-rule="evenodd" clip-rule="evenodd" d="M153.807 76.9059C153.921 77.0707 153.876 77.1644 153.673 77.1644H153.555C153.44 77.1644 153.362 77.1193 153.3 77.0291L152.248 75.5748C152.144 75.58 152.037 75.5835 151.922 75.5835H151.183V76.9544C151.183 77.0898 151.106 77.1662 150.971 77.1662H150.898C150.763 77.1662 150.686 77.0898 150.686 76.9544V72.9631C150.686 72.8278 150.763 72.7514 150.898 72.7514H151.927C153.251 72.7514 153.923 73.0794 153.923 74.1605C153.923 74.9605 153.525 75.3631 152.774 75.5124L153.801 76.9076L153.807 76.9059ZM151.92 75.1514C152.883 75.1514 153.43 74.9935 153.43 74.1761C153.43 73.3588 152.882 73.1905 151.92 73.1905H151.181V75.1514H151.92Z" fill="#653024"/>
<path d="M154.721 72.9614V76.9527C154.721 77.0881 154.797 77.1644 154.933 77.1644H155.002C155.138 77.1644 155.214 77.0881 155.214 76.9527V72.9614C155.214 72.826 155.138 72.7497 155.002 72.7497H154.933C154.797 72.7497 154.721 72.826 154.721 72.9614Z" fill="#653024"/>
<path fill-rule="evenodd" clip-rule="evenodd" d="M156.035 74.9622C156.035 73.3883 157.014 72.6993 158.112 72.6993C159.211 72.6993 160.181 73.3883 160.181 74.9622C160.181 76.5362 159.198 77.2304 158.1 77.2304C157.001 77.2304 156.035 76.5657 156.035 74.9622ZM158.1 76.774C159.086 76.774 159.688 76.1128 159.688 74.9622C159.688 73.8117 159.077 73.1575 158.112 73.1575C157.147 73.1575 156.521 73.8291 156.521 74.9622C156.521 76.0954 157.109 76.774 158.1 76.774Z" fill="#653024"/>
<path fill-rule="evenodd" clip-rule="evenodd" d="M162.716 76.9527C162.716 77.0881 162.792 77.1644 162.928 77.1644H163.771C165.569 77.1644 166.308 76.472 166.308 74.9536C166.308 73.4351 165.569 72.7497 163.771 72.7497H162.928C162.792 72.7497 162.716 72.826 162.716 72.9614V76.9527ZM165.812 74.9518C165.812 76.1874 165.217 76.708 163.783 76.708V76.7098H163.209V73.2043H163.78C165.217 73.2043 165.812 73.7163 165.812 74.9518Z" fill="#653024"/>
<path d="M167.337 77.1644C167.202 77.1644 167.125 77.0881 167.125 76.9527V72.9614C167.125 72.826 167.202 72.7497 167.337 72.7497H169.755C169.89 72.7497 169.966 72.826 169.966 72.9614V72.9944C169.966 73.1297 169.89 73.2061 169.755 73.2061H167.617V74.6985H169.643C169.779 74.6985 169.855 74.7748 169.855 74.9102V74.931C169.855 75.0664 169.779 75.1393 169.643 75.1393H167.617V76.708H169.755C169.89 76.708 169.966 76.7844 169.966 76.9197V76.9527C169.966 77.0881 169.89 77.1644 169.755 77.1644H167.337Z" fill="#653024"/>
<path fill-rule="evenodd" clip-rule="evenodd" d="M86.4747 80.8226V86.9796L86.4765 86.9779C86.4765 87.5853 86.8062 87.9133 87.4118 87.9133H89.5515C92.3663 87.9133 93.0483 86.8026 93.0483 85.6625C93.0483 84.5935 92.2899 84.0208 91.594 83.8577C92.2379 83.6929 92.8279 83.0942 92.8279 82.0824C92.8279 80.9527 92.1042 79.8872 89.3988 79.8872H87.4101C86.8027 79.8872 86.4747 80.2169 86.4747 80.8226ZM90.5146 82.4018C90.5146 82.9015 90.237 83.2035 89.4231 83.2035H88.6769V81.6694H89.4127C90.2543 81.6694 90.5146 81.902 90.5146 82.4018ZM89.5897 84.5501C90.4886 84.5501 90.7506 84.8417 90.7506 85.3588H90.7489C90.7489 85.8464 90.4608 86.1519 89.5827 86.1519H88.6769V84.5501H89.5897Z" fill="#653024"/>
<path d="M94.2248 86.9796V80.8226C94.2248 80.2169 94.5528 79.8872 95.1602 79.8872H95.5437C96.1493 79.8872 96.4791 80.2152 96.4791 80.8226V86.9796C96.4791 87.5853 96.1511 87.915 95.5437 87.915H95.1602C94.5545 87.915 94.2248 87.587 94.2248 86.9796Z" fill="#653024"/>
<path fill-rule="evenodd" clip-rule="evenodd" d="M101.607 79.8247C99.5784 79.8247 97.7632 81.0516 97.7632 83.9115C97.7632 86.8269 99.5576 87.9965 101.586 87.9965C103.615 87.9965 105.434 86.7714 105.434 83.9115C105.434 81.0516 103.636 79.8247 101.607 79.8247ZM101.593 81.7839C102.534 81.7839 103.19 82.5475 103.19 83.9046C103.19 85.3223 102.565 86.0512 101.586 86.0512C100.607 86.0512 99.9776 85.2651 99.9776 83.9046C99.9776 82.544 100.653 81.7839 101.593 81.7839Z" fill="#653024"/>
<path d="M106.719 80.8226C106.719 80.2169 107.047 79.8872 107.655 79.8872H111.178C111.783 79.8872 112.113 80.2152 112.113 80.8226V80.9388C112.113 81.5445 111.785 81.8742 111.178 81.8742H108.963V83.0647H110.978C111.584 83.0647 111.913 83.3562 111.913 83.8768V83.8872C111.913 84.4165 111.585 84.7046 110.978 84.7046H108.963V85.9367H111.178C111.783 85.9367 112.113 86.2647 112.113 86.872V86.9814C112.113 87.587 111.785 87.9167 111.178 87.9167H107.655C107.049 87.9167 106.719 87.5887 106.719 86.9814V80.8226Z" fill="#653024"/>
<path d="M117.024 79.8213C114.803 79.8213 113.13 81.331 113.13 83.9219H113.128C113.128 86.5683 114.77 88 117.022 88C118.411 88 119.667 87.4377 120.274 86.2455C120.686 85.4369 120.554 84.9649 119.891 84.8607L119.539 84.8052C118.969 84.715 118.636 84.8295 118.405 85.1731C118.053 85.7406 117.619 85.9974 117.015 85.9974C116.075 85.9974 115.452 85.1922 115.452 83.9219C115.452 82.6516 116.073 81.8325 117.015 81.8325C117.612 81.8325 118.051 82.0859 118.423 82.6534C118.673 83.0056 118.929 83.1011 119.533 83.0022L119.886 82.9449C120.495 82.846 120.706 82.4382 120.424 81.8152C119.809 80.4616 118.499 79.8213 117.024 79.8213Z" fill="#653024"/>
<path fill-rule="evenodd" clip-rule="evenodd" d="M121.456 83.9115C121.456 81.0516 123.271 79.8247 125.3 79.8247C127.329 79.8247 129.126 81.0516 129.126 83.9115C129.126 86.7714 127.308 87.9965 125.279 87.9965C123.25 87.9965 121.456 86.8269 121.456 83.9115ZM126.883 83.9046C126.883 82.5475 126.227 81.7839 125.286 81.7839C124.345 81.7839 123.67 82.544 123.67 83.9046C123.67 85.2651 124.3 86.0512 125.279 86.0512C126.258 86.0512 126.883 85.3223 126.883 83.9046Z" fill="#653024"/>
<path d="M130.411 80.8226V86.9796H130.409C130.409 87.587 130.738 87.915 131.344 87.915H131.728C132.335 87.915 132.663 87.5853 132.663 86.9796V83.4638L134.995 87.2746C135.268 87.7172 135.608 87.9133 136.12 87.9133H136.599C137.206 87.9133 137.534 87.5835 137.534 86.9779V80.8208C137.534 80.2135 137.204 79.8855 136.599 79.8855H136.224C135.618 79.8855 135.289 80.2152 135.289 80.8208V84.3349L132.956 80.5258C132.684 80.0833 132.344 79.8872 131.832 79.8872H131.346C130.738 79.8872 130.411 80.2169 130.411 80.8226Z" fill="#653024"/>
<path fill-rule="evenodd" clip-rule="evenodd" d="M138.817 83.9115C138.817 81.0516 140.632 79.8247 142.66 79.8247C144.689 79.8247 146.487 81.0516 146.487 83.9115C146.487 86.7714 144.668 87.9965 142.64 87.9965C140.611 87.9965 138.817 86.8269 138.817 83.9115ZM144.243 83.9046C144.243 82.5475 143.587 81.7839 142.647 81.7839C141.706 81.7839 141.031 82.544 141.031 83.9046C141.031 85.2651 141.661 86.0512 142.64 86.0512C143.618 86.0512 144.243 85.3223 144.243 83.9046Z" fill="#653024"/>
<path d="M148.181 80.7497L147.302 86.9206C147.212 87.5575 147.535 87.9133 148.17 87.9133H148.545C149.121 87.9133 149.454 87.6096 149.531 87.0352L150.091 82.8182L151.276 87.1098C151.424 87.6425 151.759 87.9133 152.316 87.9133H152.771C153.328 87.9133 153.663 87.6425 153.81 87.1098L154.995 82.8182L155.556 87.0352C155.632 87.6096 155.965 87.9133 156.542 87.9133H156.916C157.553 87.9133 157.874 87.5575 157.784 86.9206L156.906 80.7497C156.824 80.1788 156.486 79.8872 155.91 79.8872H154.865C154.308 79.8872 153.973 80.1579 153.831 80.6976L152.543 85.5653L151.256 80.6976C151.112 80.1579 150.778 79.8872 150.221 79.8872H149.177C148.601 79.8872 148.262 80.1805 148.181 80.7497Z" fill="#653024"/>
<path d="M159.037 86.9796V80.8226C159.037 80.2169 159.365 79.8872 159.972 79.8872H160.356C160.962 79.8872 161.291 80.2152 161.291 80.8226V86.9796C161.291 87.5853 160.963 87.915 160.356 87.915H159.972C159.367 87.915 159.037 87.587 159.037 86.9796Z" fill="#653024"/>
<path fill-rule="evenodd" clip-rule="evenodd" d="M169.14 87.9132C169.82 87.9132 170.126 87.4794 169.885 86.8373H169.883L167.549 80.6386C167.358 80.1301 167.014 79.8889 166.476 79.8889H165.772C165.234 79.8889 164.89 80.1301 164.699 80.6386L162.374 86.839C162.135 87.4776 162.438 87.9132 163.122 87.9132H163.519C164.064 87.9132 164.404 87.6616 164.569 87.1323L164.701 86.7123H167.559L167.693 87.1323C167.861 87.6616 168.196 87.9132 168.743 87.9132H169.14ZM165.211 85.1418L166.126 82.3184L167.047 85.1418H165.211Z" fill="#653024"/>
</svg>
