<svg width="132" height="113" viewBox="0 0 132 113" fill="none" xmlns="http://www.w3.org/2000/svg">
<path fill-rule="evenodd" clip-rule="evenodd" d="M1 8L19.5499 0H112.243L105.072 19L12.9457 18L1 8ZM9.16372 9L21.1372 3.5L48.3496 4.5L41.8186 6.5L9.16372 9Z" fill="white"/>
<path d="M70.7822 21.6278L53.9342 21.4449L54.6064 26.6691L70.4424 26.2419L70.7822 21.6278Z" fill="white"/>
<path d="M56.3891 56.4354L55.6616 50.2881L69.8503 50.737L69.5167 55.1579L56.3891 56.4354Z" fill="white"/>
<path d="M68.8819 80.9865L57.5431 81.7036L59.5972 113L64.4954 111.5L67.7609 113L68.8819 80.9865Z" fill="white"/>
<path fill-rule="evenodd" clip-rule="evenodd" d="M26.9029 30.4163L27.3745 46.393L100.912 48.7198L114.117 36.9338L97.946 28.5L26.9029 30.4163ZM94.6106 32L64.1327 31.5L71.7522 35.5L72.8407 34L82.0929 37V34.5L88.6239 37L103.863 36.5L94.6106 32Z" fill="white"/>
<path fill-rule="evenodd" clip-rule="evenodd" d="M9.44309 64.0039L112.243 54L124 62.5L116.104 75L21.2339 81L9.44309 64.0039ZM17.3274 66L23.3142 77.5H24.9469V65.5L17.3274 66ZM27.6681 75L28.2124 65.5H30.3894L32.0221 67H34.1991L29.3009 75H27.6681Z" fill="white"/>
<path fill-rule="evenodd" clip-rule="evenodd" d="M119.533 13.1538C120 13.448 120.14 14.0655 119.846 14.5328L111.87 27.201L124.047 35.163C124.279 35.3143 124.437 35.5546 124.485 35.8268C124.533 36.099 124.466 36.3789 124.3 36.6L115.962 47.7169L131.518 57.1448C131.991 57.4311 132.141 58.046 131.855 58.5183C131.569 58.9906 130.954 59.1414 130.482 58.8552L113.982 48.8552C113.74 48.7089 113.572 48.4673 113.518 48.1901C113.465 47.9128 113.531 47.6259 113.7 47.4L122.06 36.2533L109.953 28.337C109.496 28.0384 109.363 27.4289 109.654 26.9672L118.154 13.4672C118.448 12.9998 119.065 12.8595 119.533 13.1538ZM30.9671 53.2455C31.1076 53.7796 30.7886 54.3265 30.2545 54.4671L2.99221 61.6414L10.8768 76.0192C11.1424 76.5034 10.9651 77.1113 10.4808 77.3768C9.99658 77.6424 9.38874 77.4651 9.12319 76.9808L0.623188 61.4808C0.475182 61.2109 0.459719 60.8879 0.581267 60.6051C0.702815 60.3223 0.94783 60.1113 1.24551 60.0329L29.7455 52.5329C30.2796 52.3924 30.8265 52.7114 30.9671 53.2455ZM74.0136 82.8356C74.094 82.3534 74.5112 82 75 82H92.5C93.0523 82 93.5 82.4477 93.5 83C93.5 83.5523 93.0523 84 92.5 84H75.8471L74.9864 89.1644C74.8956 89.7092 74.3804 90.0772 73.8356 89.9864C73.2908 89.8956 72.9228 89.3804 73.0136 88.8356L74.0136 82.8356Z" fill="#FFA400"/>
</svg>
