<svg width="146" height="104" viewBox="0 0 146 104" fill="none" xmlns="http://www.w3.org/2000/svg">
<path fill-rule="evenodd" clip-rule="evenodd" d="M32.6867 28.1667C40.5094 28.1667 46.8509 21.8613 46.8509 14.0833C46.8509 6.30532 40.5094 0 32.6867 0C24.864 0 18.5225 6.30532 18.5225 14.0833C18.5225 21.8613 24.864 28.1667 32.6867 28.1667ZM29.418 15.1667C31.825 15.1667 33.7763 13.2266 33.7763 10.8333C33.7763 8.4401 31.825 6.5 29.418 6.5C27.0111 6.5 25.0598 8.4401 25.0598 10.8333C25.0598 13.2266 27.0111 15.1667 29.418 15.1667Z" fill="white"/>
<path fill-rule="evenodd" clip-rule="evenodd" d="M79.5 62C79.5 62 46.306 63.375 31.1677 67.9354C8.11539 73.8905 0.723823 79.0337 0.723823 79.0337C0.723823 79.0337 -2.50915 87.3558 4.69013 89.905C24.5152 92.625 29.4302 104 29.4302 104C29.4302 104 40.3137 93.1667 64.2836 89.375C115.711 82.3018 124.209 68.25 92.4094 46.7929C86.3723 42.7192 85 35.5 85 35.5C104 22.5 146 29.4443 146 29.4443C146 29.4443 140.505 25.0585 141.642 22.2083C142.752 19.4239 140.5 17.5 140.5 17.5C140.5 17.5 137.433 17.0472 137 16C136.143 13.9269 140.27 12.3824 140.27 12.3824C111.5 10 79 18.5 79 18.5C79 18.5 55.4836 32.6851 73.2714 46.2508C88.3486 57.7493 79.5 62 79.5 62ZM112.41 19.429C112.41 19.429 114.093 17.1676 117.127 16.7917C121.502 16.2496 130.454 17.2605 130.454 17.2605C130.454 17.2605 126.08 19.9711 122.799 19.429C118.797 18.7677 112.41 19.429 112.41 19.429ZM60.1522 72.2733C60.1522 72.2733 53.5906 72.8154 46.4822 71.7311C39.3737 70.6469 36.0929 74.9838 36.0929 74.9838C36.0929 74.9838 44.8418 72.8154 51.4034 74.9838C57.965 77.1523 60.1522 72.2733 60.1522 72.2733ZM24.6061 81.4883C30.0741 83.6568 38.2761 82.0304 38.2761 82.0304C38.2761 82.0304 33.9953 86.9937 27.9805 85.3674C20.711 83.4018 12.5764 84.8253 12.5764 84.8253C12.5764 84.8253 19.379 79.4154 24.6061 81.4883ZM72.2687 78.2917C84.875 79.9629 89.1567 77.75 89.1567 77.75C89.1567 77.75 85.9103 83.168 79.8955 81.5417C72.626 79.5761 61.9179 81.5417 61.9179 81.5417C61.9179 81.5417 64.097 77.2083 72.2687 78.2917Z" fill="white"/>
<path d="M28.3285 31.4167L31.4686 54.313C31.5423 54.8498 32.0034 55.25 32.5482 55.25H32.8252C33.37 55.25 33.8311 54.8498 33.9048 54.313L37.0449 31.4167C33.6409 32.5 31.7325 32.5 28.3285 31.4167Z" fill="white"/>
<path d="M22.8806 47.6667L14.709 32.5L7.08209 39.5417L22.8806 47.6667Z" fill="white"/>
<path d="M9.80597 50.375L22.3358 54.1667L7.62687 56.875L9.80597 50.375Z" fill="white"/>
<path d="M41.3134 52L56.5672 47.125L50.5746 39L41.3134 52Z" fill="white"/>
<path fill-rule="evenodd" clip-rule="evenodd" d="M114.991 31.8643C115.066 32.4115 114.683 32.9158 114.136 32.9907C111.104 33.406 107.655 33.9526 104.573 34.7058C101.448 35.4696 98.8612 36.41 97.431 37.5358C96.7299 38.0876 96.4211 38.5945 96.3498 39.042C96.2816 39.4702 96.3958 40.0698 97.0451 40.8991C98.39 42.6166 101.657 44.8365 107.903 47.5847C108.408 47.8071 108.638 48.3972 108.415 48.9027C108.193 49.4083 107.603 49.6377 107.097 49.4153C100.843 46.6635 97.1517 44.2792 95.4704 42.1321C94.6068 41.0291 94.191 39.8813 94.3747 38.7275C94.5554 37.593 95.2805 36.6832 96.194 35.9642C97.9929 34.5483 100.958 33.5304 104.099 32.763C107.282 31.9849 110.813 31.4273 113.864 31.0093C114.411 30.9343 114.916 31.3171 114.991 31.8643ZM73.3872 56.0386C73.642 56.5286 73.4513 57.1324 72.9613 57.3872C69.6765 59.0953 65.8159 59.9261 61.6607 60.3694C58.0543 60.754 54.1573 60.8521 50.1594 60.9528C49.5548 60.968 48.9479 60.9833 48.3393 60.9996C39.014 61.25 29.2136 61.755 20.427 65.9042C19.9276 66.1401 19.3316 65.9264 19.0957 65.427C18.8599 64.9276 19.0736 64.3316 19.573 64.0957C28.7863 59.745 38.986 59.25 48.2856 59.0004C48.9003 58.9839 49.5107 58.9685 50.1165 58.9532C54.1231 58.8521 57.9294 58.756 61.4486 58.3806C65.4966 57.9489 69.0734 57.1547 72.0386 55.6128C72.5286 55.358 73.1324 55.5486 73.3872 56.0386ZM103.842 82.9599C104.14 83.4247 104.005 84.0433 103.54 84.3416C96.8001 88.6672 91.5503 91.3004 86.5884 92.8661C81.617 94.4349 76.9866 94.9157 71.5154 94.9999C70.9631 95.0084 70.5086 94.5676 70.5001 94.0154C70.4916 93.4632 70.9324 93.0086 71.4846 93.0001C76.8467 92.9176 81.2663 92.4484 85.9865 90.9588C90.7163 89.4663 95.7998 86.9328 102.46 82.6584C102.925 82.3601 103.543 82.4951 103.842 82.9599Z" fill="#FFA400"/>
</svg>
